<?xml version="1.0" standalone="no"?>
<!DOCTYPE svg PUBLIC "-//W3C//DTD SVG 1.1//EN" "http://www.w3.org/Graphics/SVG/1.1/DTD/svg11.dtd" >
<svg>
<metadata>
Created by FontForge 20090622 at Fri Dec 23 09:42:37 2016
 By deploy user
Modern and elegant sans serif font.
</metadata>
<defs>
<font id="Nexa-Heavy" horiz-adv-x="790" >
  <font-face 
    font-family="Nexa Heavy"
    font-weight="400"
    font-stretch="normal"
    units-per-em="1000"
    panose-1="2 0 0 0 0 0 0 0 0 0"
    ascent="700"
    descent="-300"
    x-height="493"
    cap-height="700"
    bbox="-296 -298 1160 984"
    underline-thickness="50"
    underline-position="-50"
    unicode-range="U+0020-U+FB02"
  />
<missing-glyph horiz-adv-x="665" 
d="M590 700v-700h-538v700h538zM269.5 485q21.5 18 50.5 18q31 0 52.5 -13t21.5 -44q0 -18 -10.5 -26.5t-32.5 -16.5l-15.5 -6.5t-18.5 -9.5q-5 -5 -22.5 -19.5t-28 -43t-10.5 -73.5l107 -1q0 11 2 25.5t5 23.5q11 10 41 24q29 14 47.5 26.5t32 35t13.5 56.5q0 79 -52.5 119
t-131.5 40q-78 0 -128 -41t-50 -116h108q-2 24 19.5 42zM260.5 95q18.5 -17 43.5 -17t43.5 17t18.5 47q0 32 -18.5 49.5t-43.5 17.5t-43.5 -17.5t-18.5 -49.5q0 -30 18.5 -47z" />
    <glyph glyph-name="fi" unicode="fi" horiz-adv-x="649" 
d="M344 589.5q-9 2.5 -21 2.5q-29 0 -48 -20t-19 -58v-29h122v-125h-122v-360h-144v360h-89v125h89v29q0 68 28.5 113t74 66.5t97.5 21.5q26 0 47.5 -5.5t48.5 -17.5l-42 -111q-13 6 -22 8.5zM459 685q24 21 58 21t58 -21t24 -60t-24 -60t-58 -21t-58 21t-24 60t24 60z
M589 0h-144v495h144v-495z" />
    <glyph glyph-name="fl" unicode="fl" horiz-adv-x="652" 
d="M344.5 590q-9.5 2 -21.5 2q-29 0 -48 -20t-19 -58v-29h115v-125h-115v-360h-144v360h-89v125h89v29q0 68 28.5 113t74 66.5t97.5 21.5q26 0 48 -5t48 -17l-42 -111q-12 6 -21.5 8zM589 0h-144v700h144v-700z" />
    <glyph glyph-name=".notdef" horiz-adv-x="665" 
d="M590 700v-700h-538v700h538zM269.5 485q21.5 18 50.5 18q31 0 52.5 -13t21.5 -44q0 -18 -10.5 -26.5t-32.5 -16.5l-15.5 -6.5t-18.5 -9.5q-5 -5 -22.5 -19.5t-28 -43t-10.5 -73.5l107 -1q0 11 2 25.5t5 23.5q11 10 41 24q29 14 47.5 26.5t32 35t13.5 56.5q0 79 -52.5 119
t-131.5 40q-78 0 -128 -41t-50 -116h108q-2 24 19.5 42zM260.5 95q18.5 -17 43.5 -17t43.5 17t18.5 47q0 32 -18.5 49.5t-43.5 17.5t-43.5 -17.5t-18.5 -49.5q0 -30 18.5 -47z" />
    <glyph glyph-name=".null" horiz-adv-x="0" 
 />
    <glyph glyph-name="nonmarkingreturn" horiz-adv-x="322" 
 />
    <glyph glyph-name="space" unicode=" " horiz-adv-x="237" 
 />
    <glyph glyph-name="A" unicode="A" 
d="M215 120l-51 -120h-168l314 700h170l314 -700h-169l-51 120h-359zM274 258h241l-120 284z" />
    <glyph glyph-name="Aacute" unicode="&#xc1;" 
d="M446 757h-126v7l74 140h168v-6zM215 120l-51 -120h-168l314 700h170l314 -700h-169l-51 120h-359zM274 258h241l-120 284z" />
    <glyph glyph-name="Abreve" unicode="&#x102;" 
d="M517 798q-47 -41 -119 -41q-41 0 -79.5 14.5t-63.5 44t-25 71.5q0 12 1 18h120q0 -24 15 -33t32 -9q44 0 44 42h120q2 -66 -45 -107zM215 120l-51 -120h-168l314 700h170l314 -700h-169l-51 120h-359zM274 258h241l-120 284z" />
    <glyph glyph-name="Acircumflex" unicode="&#xc2;" 
d="M581 767v-5h-140l-47 42l-46 -42h-141v5l150 140h75zM215 120l-51 -120h-168l314 700h170l314 -700h-169l-51 120h-359zM274 258h241l-120 284z" />
    <glyph glyph-name="Adieresis" unicode="&#xc4;" 
d="M207.5 894.5q23.5 20.5 56.5 20.5q32 0 55.5 -21t23.5 -58t-23.5 -57.5t-55.5 -20.5q-33 0 -56.5 20.5t-23.5 57.5q0 38 23.5 58.5zM467.5 894.5q23.5 20.5 56.5 20.5q32 0 55.5 -21t23.5 -58t-23.5 -57.5t-55.5 -20.5t-56 20.5t-24 57.5q0 38 23.5 58.5zM215 120
l-51 -120h-168l314 700h170l314 -700h-169l-51 120h-359zM274 258h241l-120 284z" />
    <glyph glyph-name="Agrave" unicode="&#xc0;" 
d="M389 904l74 -140v-7h-126l-116 141v6h168zM215 120l-51 -120h-168l314 700h170l314 -700h-169l-51 120h-359zM274 258h241l-120 284z" />
    <glyph glyph-name="Amacron" unicode="&#x100;" 
d="M575 882v-119h-359v119h359zM215 120l-51 -120h-168l314 700h170l314 -700h-169l-51 120h-359zM274 258h241l-120 284z" />
    <glyph glyph-name="Aogonek" unicode="&#x104;" horiz-adv-x="793" 
d="M613 27l-39 93h-359l-51 -120h-168l314 700h170l314 -700h-38l-23 -2q-23 -3 -35 -15.5t-12 -28.5t11.5 -27t32.5 -11q26 0 49 15l71 -56q-18 -24 -46.5 -39.5t-59.5 -19.5q-20 -2 -29 -2q-43 0 -76 18t-51.5 47.5t-18.5 61.5q0 37 24 67q6 9 20 19zM274 258h241
l-120 284z" />
    <glyph glyph-name="Aring" unicode="&#xc5;" 
d="M164 0h-168l312 697q-25 17 -40 43t-15 61q0 40 20.5 69t53 44t68.5 15q35 0 67 -14.5t52 -43.5t20 -70q0 -62 -53 -104l313 -697h-169l-51 120h-359zM350 837q-15 -14 -15 -34t15 -34.5t42 -14.5t42 14t15 33q0 20 -15.5 35t-41.5 15q-27 0 -42 -14zM274 258h241
l-120 284z" />
    <glyph glyph-name="Aringacute" unicode="&#x1fa;" 
d="M452 880h-131v5l77 95h175v-4zM297 825.5q45 29.5 100 29.5q54 0 96.5 -30t42.5 -92q0 -50 -34 -82l292 -651h-169l-51 120h-359l-51 -120h-168l290 648q-34 31 -34 85q0 63 45 92.5zM353 765.5q-15 -15.5 -15 -37.5q0 -21 15 -37t41 -16q27 0 42 15.5t15 36.5
q0 22 -15.5 38t-41.5 16t-41 -15.5zM274 258h241l-120 284z" />
    <glyph glyph-name="Atilde" unicode="&#xc3;" 
d="M318 898q17 0 32 -4q12 -4 21.5 -8l16.5 -7q34 -16 48 -16q25 0 37 32l89 -44q-41 -97 -103 -97q-13 0 -36 7q-16 5 -39 16q-3 1 -20.5 8.5t-30.5 7.5q-27 0 -43 -39l-85 50q42 94 113 94zM215 120l-51 -120h-168l314 700h170l314 -700h-169l-51 120h-359zM274 258h241
l-120 284z" />
    <glyph glyph-name="AE" unicode="&#xc6;" horiz-adv-x="892" 
d="M440 0v109h-222l-63 -109h-182l439 700h421v-136h-253v-144h236v-132h-236v-150h269v-138h-409zM446 500l-148 -254h142z" />
    <glyph glyph-name="AEacute" unicode="&#x1fc;" horiz-adv-x="892" 
d="M573 766h-130v7l77 131h172v-5zM440 0v109h-222l-63 -109h-182l439 700h421v-136h-253v-144h236v-132h-236v-150h269v-138h-409zM446 500l-148 -254h142z" />
    <glyph glyph-name="B" unicode="B" horiz-adv-x="727" 
d="M597.5 651.5q68.5 -48.5 68.5 -141.5q0 -101 -93 -143q54 -20 84.5 -66.5t30.5 -100.5q0 -12 -4 -36q-15 -83 -81 -123.5t-174 -40.5h-351v700h345q106 0 174.5 -48.5zM489 445.5q23 17.5 23 48.5q0 32 -23 51.5t-66 19.5h-192v-137h190q45 0 68 17.5zM500.5 157
q25.5 21 25.5 59t-27 60t-78 22h-190v-162h192q52 0 77.5 21z" />
    <glyph glyph-name="C" unicode="C" horiz-adv-x="696" 
d="M412 -17q-128 0 -211.5 49.5t-123 131.5t-39.5 182q0 95 41.5 180t125.5 138t207 53q73 0 138 -27t119 -81l-98 -97q-31 29 -72.5 43.5t-86.5 14.5q-75 0 -124.5 -33.5t-72.5 -85t-23 -106.5t22 -104.5t71.5 -81.5t126.5 -32q44 0 92.5 18t79.5 49l97 -108
q-103 -103 -269 -103z" />
    <glyph glyph-name="Cacute" unicode="&#x106;" horiz-adv-x="696" 
d="M449 772h-120v7l71 133h159v-5zM412 -17q-128 0 -211.5 49.5t-123 131.5t-39.5 182q0 95 41.5 180t125.5 138t207 53q73 0 138 -27t119 -81l-98 -97q-31 29 -72.5 43.5t-86.5 14.5q-75 0 -124.5 -33.5t-72.5 -85t-23 -106.5t22 -104.5t71.5 -81.5t126.5 -32q44 0 92.5 18
t79.5 49l97 -108q-103 -103 -269 -103z" />
    <glyph glyph-name="Ccaron" unicode="&#x10c;" horiz-adv-x="696" 
d="M368 904l44 -36l47 36h134v-5l-149 -129h-71l-144 129v5h139zM412 -17q-128 0 -211.5 49.5t-123 131.5t-39.5 182q0 95 41.5 180t125.5 138t207 53q73 0 138 -27t119 -81l-98 -97q-31 29 -72.5 43.5t-86.5 14.5q-75 0 -124.5 -33.5t-72.5 -85t-23 -106.5t22 -104.5
t71.5 -81.5t126.5 -32q44 0 92.5 18t79.5 49l97 -108q-103 -103 -269 -103z" />
    <glyph glyph-name="Ccedilla" unicode="&#xc7;" horiz-adv-x="699" 
d="M431 -17l-14 -40q56 -3 82 -32t26 -68q0 -59 -39.5 -90.5t-97.5 -31.5q-45 0 -86 19t-62 53l61 51q10 -12 32 -21.5t43 -9.5q17 0 29 8t12 24q0 17 -16 28t-36 11t-37 -12l-32 24l34 93q-147 23 -219.5 121.5t-72.5 235.5q0 95 41.5 180t125.5 138t207 53q73 0 138 -27
t119 -81l-98 -97q-31 29 -72.5 43.5t-86.5 14.5q-75 0 -124.5 -33.5t-72.5 -85t-23 -106.5t22 -104.5t71.5 -81.5t126.5 -32q44 0 92.5 18t79.5 49l97 -108q-97 -97 -250 -103z" />
    <glyph glyph-name="Ccircumflex" unicode="&#x108;" horiz-adv-x="696" 
d="M586 789v-5h-140l-40 35l-41 -35h-140v5l145 135h72zM412 -17q-128 0 -211.5 49.5t-123 131.5t-39.5 182q0 95 41.5 180t125.5 138t207 53q73 0 138 -27t119 -81l-98 -97q-31 29 -72.5 43.5t-86.5 14.5q-75 0 -124.5 -33.5t-72.5 -85t-23 -106.5t22 -104.5t71.5 -81.5
t126.5 -32q44 0 92.5 18t79.5 49l97 -108q-103 -103 -269 -103z" />
    <glyph glyph-name="Cdotaccent" unicode="&#x10a;" horiz-adv-x="696" 
d="M333 910q25 20 60 20q34 0 59 -20t25 -56q0 -35 -25 -55.5t-59 -20.5q-35 0 -60 20t-25 56t25 56zM412 -17q-128 0 -211.5 49.5t-123 131.5t-39.5 182q0 95 41.5 180t125.5 138t207 53q73 0 138 -27t119 -81l-98 -97q-31 29 -72.5 43.5t-86.5 14.5q-75 0 -124.5 -33.5
t-72.5 -85t-23 -106.5t22 -104.5t71.5 -81.5t126.5 -32q44 0 92.5 18t79.5 49l97 -108q-103 -103 -269 -103z" />
    <glyph glyph-name="D" unicode="D" horiz-adv-x="753" 
d="M559 653.5q78 -46.5 116 -124.5t38 -174t-37 -176.5t-115.5 -129.5t-195.5 -49h-287v700h287q116 0 194 -46.5zM514 206q45 62 45 151q0 85 -46.5 143.5t-147.5 58.5h-133v-415h133q104 0 149 62z" />
    <glyph glyph-name="Eth" unicode="&#xd0;" horiz-adv-x="757" 
d="M83 700h287q116 0 194 -46.5t116 -124.5t38 -174t-37 -176.5t-115.5 -129.5t-195.5 -49h-287v286h-68v125h68v289zM361 286h-124v-142h133q104 0 149 62t45 151q0 85 -46.5 143.5t-147.5 58.5h-133v-148h124v-125z" />
    <glyph glyph-name="Dcaron" unicode="&#x10e;" horiz-adv-x="753" 
d="M307 897l46 -36l49 36h141v-5l-156 -126h-75l-151 126v5h146zM559 653.5q78 -46.5 116 -124.5t38 -174t-37 -176.5t-115.5 -129.5t-195.5 -49h-287v700h287q116 0 194 -46.5zM514 206q45 62 45 151q0 85 -46.5 143.5t-147.5 58.5h-133v-415h133q104 0 149 62z" />
    <glyph glyph-name="Dcroat" unicode="&#x110;" horiz-adv-x="759" 
d="M83 700h287q116 0 194 -46.5t116 -124.5t38 -174t-37 -176.5t-115.5 -129.5t-195.5 -49h-287v288h-61v126h61v286zM355 288h-118v-144h133q104 0 149 62t45 151q0 85 -46.5 143.5t-147.5 58.5h-133v-145h118v-126z" />
    <glyph glyph-name="E" unicode="E" horiz-adv-x="656" 
d="M78 0v700h519v-143h-366v-135h345v-137h-345v-141h380v-144h-533z" />
    <glyph glyph-name="Eacute" unicode="&#xc9;" horiz-adv-x="656" 
d="M391 768h-126v7l74 140h168v-6zM78 0v700h519v-143h-366v-135h345v-137h-345v-141h380v-144h-533z" />
    <glyph glyph-name="Ebreve" unicode="&#x114;" horiz-adv-x="656" 
d="M465 800q-45 -38 -115 -38q-40 0 -77.5 14t-61.5 42t-24 67q0 10 1 15h117q0 -21 14.5 -30t30.5 -9t29 8.5t13 30.5h116q2 -62 -43 -100zM78 0v700h519v-143h-366v-135h345v-137h-345v-141h380v-144h-533z" />
    <glyph glyph-name="Ecaron" unicode="&#x11a;" horiz-adv-x="656" 
d="M298 902l47 -37l49 37h141v-6l-156 -127h-76l-151 127v6h146zM78 0v700h519v-143h-366v-135h345v-137h-345v-141h380v-144h-533z" />
    <glyph glyph-name="Ecircumflex" unicode="&#xca;" horiz-adv-x="656" 
d="M533 773v-5h-140l-47 42l-46 -42h-141v5l150 140h75zM78 0v700h519v-143h-366v-135h345v-137h-345v-141h380v-144h-533z" />
    <glyph glyph-name="Edieresis" unicode="&#xcb;" horiz-adv-x="656" 
d="M161.5 897.5q23.5 20.5 56.5 20.5q32 0 55.5 -21t23.5 -58t-23.5 -57.5t-55.5 -20.5q-33 0 -56.5 20.5t-23.5 57.5q0 38 23.5 58.5zM421.5 897.5q23.5 20.5 56.5 20.5q32 0 55.5 -21t23.5 -58t-23.5 -57.5t-55.5 -20.5q-33 0 -56.5 20.5t-23.5 57.5q0 38 23.5 58.5zM78 0
v700h519v-143h-366v-135h345v-137h-345v-141h380v-144h-533z" />
    <glyph glyph-name="Edotaccent" unicode="&#x116;" horiz-adv-x="656" 
d="M295.5 899q25.5 20 59.5 20q35 0 60.5 -20t25.5 -55t-25.5 -55t-60.5 -20q-34 0 -59.5 20t-25.5 55t25.5 55zM78 0v700h519v-143h-366v-135h345v-137h-345v-141h380v-144h-533z" />
    <glyph glyph-name="Egrave" unicode="&#xc8;" horiz-adv-x="656" 
d="M343 915l74 -140v-7h-126l-116 141v6h168zM78 0v700h519v-143h-366v-135h345v-137h-345v-141h380v-144h-533z" />
    <glyph glyph-name="Emacron" unicode="&#x112;" horiz-adv-x="656" 
d="M521 892v-119h-359v119h359zM78 0v700h519v-143h-366v-135h345v-137h-345v-141h380v-144h-533z" />
    <glyph glyph-name="Eogonek" unicode="&#x118;" horiz-adv-x="668" 
d="M511 -14q-17 -14 -17 -33q-2 -20 11 -28.5t35 -8.5q17 0 36 5t29 11l70 -56q-22 -35 -66.5 -54.5t-92.5 -19.5q-34 0 -63 10t-46 28q-24 27 -24 65q0 31 17.5 57.5t49.5 37.5h-372v700h519v-143h-366v-135h345v-137h-345v-141h380v-144h-45q-38 -1 -55 -14z" />
    <glyph glyph-name="F" unicode="F" horiz-adv-x="626" 
d="M78 699h510v-143h-354v-166h332v-139h-332v-251h-156v699z" />
    <glyph glyph-name="G" unicode="G" horiz-adv-x="742" 
d="M499.5 559q-44.5 16 -88.5 16q-102 0 -161 -58.5t-59 -170.5q0 -53 22 -103.5t71.5 -84t126.5 -33.5q41 0 76 10t73 39v108h-167v130h302v-301q-91 -130 -285 -130q-128 0 -211.5 52t-122 135t-38.5 178q0 102 41 186.5t125 135t207 50.5q77 0 140.5 -24.5t120.5 -83.5
l-97 -97q-31 30 -75.5 46z" />
    <glyph glyph-name="Gbreve" unicode="&#x11e;" horiz-adv-x="742" 
d="M528 816.5q-47 -40.5 -120 -40.5q-43 0 -82.5 14.5t-64 44.5t-24.5 72q0 11 1 16h122q0 -24 15 -33t33 -9q16 0 30 9t14 33h121q2 -66 -45 -106.5zM499.5 559q-44.5 16 -88.5 16q-102 0 -161 -58.5t-59 -170.5q0 -53 22 -103.5t71.5 -84t126.5 -33.5q41 0 76 10t73 39
v108h-167v130h302v-301q-91 -130 -285 -130q-128 0 -211.5 52t-122 135t-38.5 178q0 102 41 186.5t125 135t207 50.5q77 0 140.5 -24.5t120.5 -83.5l-97 -97q-31 30 -75.5 46z" />
    <glyph glyph-name="Gcircumflex" unicode="&#x11c;" horiz-adv-x="742" 
d="M595 781v-5h-145l-49 40l-47 -40h-147v5l156 133h78zM499.5 559q-44.5 16 -88.5 16q-102 0 -161 -58.5t-59 -170.5q0 -53 22 -103.5t71.5 -84t126.5 -33.5q41 0 76 10t73 39v108h-167v130h302v-301q-91 -130 -285 -130q-128 0 -211.5 52t-122 135t-38.5 178
q0 102 41 186.5t125 135t207 50.5q77 0 140.5 -24.5t120.5 -83.5l-97 -97q-31 30 -75.5 46z" />
    <glyph glyph-name="Gcommaaccent" unicode="&#x122;" horiz-adv-x="742" 
d="M499.5 559q-44.5 16 -88.5 16q-102 0 -161 -58.5t-59 -170.5q0 -53 22 -103.5t71.5 -84t126.5 -33.5q41 0 76 10t73 39v108h-167v130h302v-301q-91 -130 -285 -130q-128 0 -211.5 52t-122 135t-38.5 178q0 102 41 186.5t125 135t207 50.5q77 0 140.5 -24.5t120.5 -83.5
l-97 -97q-31 30 -75.5 46zM473.5 -184q-6.5 -23 -21.5 -66q-12 -32 -17 -48h-77l15 101q-26 4 -40.5 18.5t-14.5 38.5q0 35 23.5 54.5t56.5 19.5t57.5 -19.5t24.5 -52.5q0 -23 -6.5 -46z" />
    <glyph glyph-name="Gdotaccent" unicode="&#x120;" horiz-adv-x="742" 
d="M338.5 913.5q26.5 20.5 62.5 20.5t62 -20.5t26 -57.5q0 -36 -26 -56.5t-62 -20.5t-62.5 20.5t-26.5 56.5q0 37 26.5 57.5zM499.5 559q-44.5 16 -88.5 16q-102 0 -161 -58.5t-59 -170.5q0 -53 22 -103.5t71.5 -84t126.5 -33.5q41 0 76 10t73 39v108h-167v130h302v-301
q-91 -130 -285 -130q-128 0 -211.5 52t-122 135t-38.5 178q0 102 41 186.5t125 135t207 50.5q77 0 140.5 -24.5t120.5 -83.5l-97 -97q-31 30 -75.5 46z" />
    <glyph glyph-name="H" unicode="H" horiz-adv-x="779" 
d="M547 276h-313v-277h-156v700h156v-280h313v280h154v-700h-154v277z" />
    <glyph glyph-name="Hbar" unicode="&#x126;" 
d="M552 276h-313v-277h-156v516h-72v96h72v88h156v-88h313v88h154v-88h65v-96h-65v-516h-154v277zM552 515h-313v-96h313v96z" />
    <glyph glyph-name="Hcircumflex" unicode="&#x124;" horiz-adv-x="779" 
d="M567 780v-5h-136l-46 41l-45 -41h-137v5l146 136h73zM547 277h-313v-277h-156v700h156v-280h313v280h154v-700h-154v277z" />
    <glyph glyph-name="I" unicode="I" horiz-adv-x="311" 
d="M78 700h155v-700h-155v700z" />
    <glyph glyph-name="IJ" unicode="&#x132;" horiz-adv-x="1027" 
d="M78 700h155v-700h-155v700zM526 171q42 -38 113 -38q78 0 120.5 43.5t42.5 124.5v257h-194v142h350v-400q0 -93 -36.5 -164t-108 -111t-172.5 -40q-308 0 -312 306h151q4 -82 46 -120z" />
    <glyph glyph-name="Iacute" unicode="&#xcd;" horiz-adv-x="311" 
d="M209 758h-126v7l74 140h168v-6zM78 700h155v-700h-155v700z" />
    <glyph glyph-name="Ibreve" unicode="&#x12c;" horiz-adv-x="311" 
d="M302 840.5q-20 -35.5 -56.5 -55t-81.5 -19.5q-41 0 -78 15.5t-60.5 47t-23.5 76.5q0 11 1 17h116q0 -24 14.5 -34t30.5 -10t29 9t13 35h115q1 -46 -19 -81.5zM78 700h155v-700h-155v700z" />
    <glyph glyph-name="Icircumflex" unicode="&#xce;" horiz-adv-x="311" 
d="M343 770v-5h-140l-47 42l-46 -42h-141v5l150 140h75zM78 700h155v-700h-155v700z" />
    <glyph glyph-name="Idieresis" unicode="&#xcf;" horiz-adv-x="311" 
d="M-29.5 897.5q23.5 20.5 56.5 20.5q32 0 55.5 -21t23.5 -58t-23.5 -57.5t-55.5 -20.5t-56 20.5t-24 57.5q0 38 23.5 58.5zM230.5 897.5q23.5 20.5 56.5 20.5q32 0 55.5 -21t23.5 -58t-23.5 -57.5t-55.5 -20.5q-33 0 -56.5 20.5t-23.5 57.5q0 38 23.5 58.5zM78 700h155
v-700h-155v700z" />
    <glyph glyph-name="Idotaccent" unicode="&#x130;" horiz-adv-x="311" 
d="M94.5 902.5q26.5 20.5 62.5 20.5t62 -20.5t26 -57.5q0 -36 -26 -56t-62 -20q-37 0 -63 20t-26 56q0 37 26.5 57.5zM78 700h155v-700h-155v700z" />
    <glyph glyph-name="Igrave" unicode="&#xcc;" horiz-adv-x="311" 
d="M153 909l74 -140v-7h-126l-116 141v6h168zM78 700h155v-700h-155v700z" />
    <glyph glyph-name="Imacron" unicode="&#x12a;" horiz-adv-x="311" 
d="M290 889v-117h-269v117h269zM78 700h155v-700h-155v700z" />
    <glyph glyph-name="Iogonek" unicode="&#x12e;" horiz-adv-x="313" 
d="M143.5 -28.5q-14.5 -16.5 -9.5 -32.5q4 -12 16 -20.5t29 -8.5q26 0 55 22l71 -56q-24 -30 -62.5 -46.5t-79.5 -16.5q-48 0 -84.5 23t-48.5 68q-3 10 -3 25q0 37 21 68q11 16 30 26v677h155v-700h-27l-19 -3q-29 -9 -43.5 -25.5z" />
    <glyph glyph-name="Itilde" unicode="&#x128;" horiz-adv-x="311" 
d="M87 915q16 0 31 -4q16 -5 35 -14q13 -6 26.5 -11t22.5 -5q24 0 36 31l87 -43q-22 -48 -46.5 -71t-54.5 -23q-14 0 -35 7q-19 6 -35 15q-3 1 -20.5 8.5t-31.5 7.5q-27 0 -43 -38l-83 49q43 91 111 91zM78 700h155v-700h-155v700z" />
    <glyph glyph-name="J" unicode="J" horiz-adv-x="716" 
d="M215 171q42 -38 113 -38q78 0 120.5 43.5t42.5 124.5v257h-194v142h350v-400q0 -93 -36.5 -164t-108 -111t-172.5 -40q-308 0 -312 306h151q4 -82 46 -120z" />
    <glyph glyph-name="Jcircumflex" unicode="&#x134;" horiz-adv-x="716" 
d="M655 777v-5h-145l-49 44l-48 -44h-147v5l156 147h78zM215 171q42 -38 113 -38q78 0 120.5 43.5t42.5 124.5v257h-194v142h350v-400q0 -93 -36.5 -164t-108 -111t-172.5 -40q-308 0 -312 306h151q4 -82 46 -120z" />
    <glyph glyph-name="K" unicode="K" horiz-adv-x="673" 
d="M372 360l309 -351v-9h-188l-259 299v-299h-156v700h156v-289l233 289h189v-4z" />
    <glyph glyph-name="Kcommaaccent" unicode="&#x136;" horiz-adv-x="673" 
d="M372 360l309 -351v-9h-188l-259 299v-299h-156v700h156v-289l233 289h189v-4zM439.5 -163q-7.5 -25 -23.5 -66q-3 -9 -7.5 -19.5t-8.5 -23.5h-81l16 100q-26 4 -41.5 18.5t-15.5 37.5q0 35 25 54t59 19t59.5 -19t25.5 -52q0 -24 -7.5 -49z" />
    <glyph glyph-name="L" unicode="L" horiz-adv-x="600" 
d="M234 143h350v-143h-506v700h156v-557z" />
    <glyph glyph-name="Lacute" unicode="&#x139;" horiz-adv-x="600" 
d="M209 773h-123v7l72 127h165v-5zM234 143h350v-143h-506v700h156v-557z" />
    <glyph glyph-name="Lcaron" unicode="&#x13d;" horiz-adv-x="602" 
d="M234 143h350v-143h-506v700h156v-557zM552 697l-77 -219h-102l45 219h134z" />
    <glyph glyph-name="Lcommaaccent" unicode="&#x13b;" horiz-adv-x="600" 
d="M234 143h350v-143h-506v700h156v-557zM412 -175q-7 -26 -22 -67l-16 -47h-77l15 104q-25 4 -39.5 19t-14.5 40q0 36 23.5 56t56.5 20t57 -19.5t24 -54.5q0 -25 -7 -51z" />
    <glyph glyph-name="Ldot" unicode="&#x13f;" horiz-adv-x="600" 
d="M234 143h350v-143h-506v700h156v-557zM359 436.5q26 22.5 61 22.5q36 0 61.5 -22.5t25.5 -63.5q0 -40 -25.5 -62.5t-61.5 -22.5q-35 0 -61 22.5t-26 62.5q0 41 26 63.5z" />
    <glyph glyph-name="Lslash" unicode="&#x141;" horiz-adv-x="612" 
d="M247 427l102 52v-117l-102 -51v-168h350v-143h-506v233l-80 -40v114l80 40v353h156v-273z" />
    <glyph glyph-name="M" unicode="M" horiz-adv-x="921" 
d="M471 214h-28l-209 274v-489h-156v700h179l204 -269l205 269h177v-700h-156v487z" />
    <glyph glyph-name="N" unicode="N" 
d="M555 465v235h157v-700h-134l-348 448l6 -230v-218h-158v700h134l353 -455z" />
    <glyph glyph-name="Nacute" unicode="&#x143;" 
d="M445 766h-133v7l78 136h177v-6zM555 465v235h157v-700h-134l-348 448l6 -230v-218h-158v700h134l353 -455z" />
    <glyph glyph-name="Ncaron" unicode="&#x147;" 
d="M354 906l45 -37l47 37h136v-5l-150 -130h-73l-146 130v5h141zM555 465v235h157v-700h-134l-348 448l6 -230v-218h-158v700h134l353 -455z" />
    <glyph glyph-name="Ncommaaccent" unicode="&#x145;" 
d="M555 465v235h157v-700h-134l-348 448l6 -230v-218h-158v700h134l353 -455zM482.5 -164q-7.5 -27 -22.5 -65l-18 -50h-81l15 105q-26 4 -41.5 19t-15.5 41q0 36 25 56t60 20t60.5 -19.5t25.5 -54.5q0 -25 -7.5 -52z" />
    <glyph glyph-name="Eng" unicode="&#x14a;" horiz-adv-x="786" 
d="M555 700h157v-719q0 -102 -43.5 -156t-113.5 -54q-64 0 -133 42l53 111q30 -13 51 -13q22 0 32 17t10 53v32l-338 435l6 -230v-218h-158v700h134l353 -455l-10 220v235z" />
    <glyph glyph-name="Ntilde" unicode="&#xd1;" 
d="M314 912q17 0 32 -4q19 -5 42 -16q3 -1 20.5 -8.5t29.5 -7.5q26 0 39 33l94 -47q-42 -102 -109 -102q-20 0 -38 7q-11 3 -41 17q-38 17 -55 17q-29 0 -45 -41l-90 53q43 99 121 99zM555 465v235h157v-700h-134l-348 448l6 -230v-218h-158v700h134l353 -455z" />
    <glyph glyph-name="O" unicode="O" horiz-adv-x="832" 
d="M746.5 155q-47.5 -83 -133 -127.5t-197.5 -44.5t-197.5 44.5t-133 127.5t-47.5 195t47.5 195t133 127.5t197.5 44.5t197.5 -44.5t133 -127.5t47.5 -195t-47.5 -195zM613 465.5q-28 51.5 -79 81.5t-118 30q-65 0 -116.5 -30t-80 -82t-28.5 -115q0 -65 28.5 -116.5
t79.5 -80.5t117 -29q67 0 118 29t79 80.5t28 116.5q0 64 -28 115.5z" />
    <glyph glyph-name="Oacute" unicode="&#xd3;" horiz-adv-x="832" 
d="M466 775h-126v7l74 140h168v-6zM746.5 155q-47.5 -83 -133 -127.5t-197.5 -44.5t-197.5 44.5t-133 127.5t-47.5 195t47.5 195t133 127.5t197.5 44.5t197.5 -44.5t133 -127.5t47.5 -195t-47.5 -195zM613 465.5q-28 51.5 -79 81.5t-118 30q-65 0 -116.5 -30t-80 -82
t-28.5 -115q0 -65 28.5 -116.5t79.5 -80.5t117 -29q67 0 118 29t79 80.5t28 116.5q0 64 -28 115.5z" />
    <glyph glyph-name="Obreve" unicode="&#x14e;" horiz-adv-x="832" 
d="M545.5 805.5q-47.5 -40.5 -121.5 -40.5q-43 0 -82.5 15t-64.5 44.5t-25 71.5q0 10 1 15h124q0 -23 15 -32.5t32 -9.5q45 0 45 42h122q2 -65 -45.5 -105.5zM746.5 155q-47.5 -83 -133 -127.5t-197.5 -44.5t-197.5 44.5t-133 127.5t-47.5 195t47.5 195t133 127.5
t197.5 44.5t197.5 -44.5t133 -127.5t47.5 -195t-47.5 -195zM613 465.5q-28 51.5 -79 81.5t-118 30q-65 0 -116.5 -30t-80 -82t-28.5 -115q0 -65 28.5 -116.5t79.5 -80.5t117 -29q67 0 118 29t79 80.5t28 116.5q0 64 -28 115.5z" />
    <glyph glyph-name="Ocircumflex" unicode="&#xd4;" horiz-adv-x="832" 
d="M603 780v-5h-140l-47 42l-46 -42h-141v5l150 140h75zM746.5 155q-47.5 -83 -133 -127.5t-197.5 -44.5t-197.5 44.5t-133 127.5t-47.5 195t47.5 195t133 127.5t197.5 44.5t197.5 -44.5t133 -127.5t47.5 -195t-47.5 -195zM613 465.5q-28 51.5 -79 81.5t-118 30
q-65 0 -116.5 -30t-80 -82t-28.5 -115q0 -65 28.5 -116.5t79.5 -80.5t117 -29q67 0 118 29t79 80.5t28 116.5q0 64 -28 115.5z" />
    <glyph glyph-name="Odieresis" unicode="&#xd6;" horiz-adv-x="832" 
d="M232.5 904.5q23.5 20.5 56.5 20.5q32 0 55.5 -21t23.5 -58t-23.5 -57.5t-55.5 -20.5q-33 0 -56.5 20.5t-23.5 57.5q0 38 23.5 58.5zM492.5 904.5q23.5 20.5 56.5 20.5q32 0 55.5 -21t23.5 -58t-23.5 -57.5t-55.5 -20.5q-33 0 -56.5 20.5t-23.5 57.5q0 38 23.5 58.5z
M746.5 155q-47.5 -83 -133 -127.5t-197.5 -44.5t-197.5 44.5t-133 127.5t-47.5 195t47.5 195t133 127.5t197.5 44.5t197.5 -44.5t133 -127.5t47.5 -195t-47.5 -195zM613 465.5q-28 51.5 -79 81.5t-118 30q-65 0 -116.5 -30t-80 -82t-28.5 -115q0 -65 28.5 -116.5t79.5 -80.5
t117 -29q67 0 118 29t79 80.5t28 116.5q0 64 -28 115.5z" />
    <glyph glyph-name="Ograve" unicode="&#xd2;" horiz-adv-x="832" 
d="M406 919l74 -140v-7h-126l-116 141v6h168zM746.5 155q-47.5 -83 -133 -127.5t-197.5 -44.5t-197.5 44.5t-133 127.5t-47.5 195t47.5 195t133 127.5t197.5 44.5t197.5 -44.5t133 -127.5t47.5 -195t-47.5 -195zM613 465.5q-28 51.5 -79 81.5t-118 30q-65 0 -116.5 -30
t-80 -82t-28.5 -115q0 -65 28.5 -116.5t79.5 -80.5t117 -29q67 0 118 29t79 80.5t28 116.5q0 64 -28 115.5z" />
    <glyph glyph-name="Ohungarumlaut" unicode="&#x150;" horiz-adv-x="832" 
d="M495 909l-106 -131h-136l93 136h149v-5zM693 908l-120 -131h-130l101 136h149v-5zM746.5 155q-47.5 -83 -133 -127.5t-197.5 -44.5t-197.5 44.5t-133 127.5t-47.5 195t47.5 195t133 127.5t197.5 44.5t197.5 -44.5t133 -127.5t47.5 -195t-47.5 -195zM613 465.5
q-28 51.5 -79 81.5t-118 30q-65 0 -116.5 -30t-80 -82t-28.5 -115q0 -65 28.5 -116.5t79.5 -80.5t117 -29q67 0 118 29t79 80.5t28 116.5q0 64 -28 115.5z" />
    <glyph glyph-name="Omacron" unicode="&#x14c;" horiz-adv-x="832" 
d="M601 905v-119h-359v119h359zM746.5 155q-47.5 -83 -133 -127.5t-197.5 -44.5t-197.5 44.5t-133 127.5t-47.5 195t47.5 195t133 127.5t197.5 44.5t197.5 -44.5t133 -127.5t47.5 -195t-47.5 -195zM613 465.5q-28 51.5 -79 81.5t-118 30q-65 0 -116.5 -30t-80 -82
t-28.5 -115q0 -65 28.5 -116.5t79.5 -80.5t117 -29q67 0 118 29t79 80.5t28 116.5q0 64 -28 115.5z" />
    <glyph glyph-name="Oslash" unicode="&#xd8;" horiz-adv-x="798" 
d="M716.5 151.5q-45.5 -83.5 -127.5 -128t-189 -44.5q-70 0 -136 21l-43 -70h-149l81 134q-55 48 -85 120.5t-30 163.5q0 113 45.5 196.5t127.5 128t189 44.5q75 0 139 -23l44 73h150l-84 -137q54 -49 83.5 -120.5t29.5 -161.5q0 -113 -45.5 -196.5zM234 197l227 371
q-30 8 -61 8q-62 0 -111 -30t-76.5 -82t-27.5 -116q0 -89 49 -151zM568 497l-226 -369q25 -7 58 -7q64 0 113 29t76 80.5t27 117.5q0 89 -48 149z" />
    <glyph glyph-name="Oslashacute" unicode="&#x1fe;" horiz-adv-x="835" 
d="M469 785h-126v7l74 140h168v-6zM746.5 155q-47.5 -83 -133 -127.5t-197.5 -44.5q-69 0 -134 19l-44 -72h-149l79 129q-62 48 -96 122t-34 169q0 112 47.5 195t133 127.5t197.5 44.5q72 0 140 -21l44 71h150l-81 -131q60 -49 92.5 -121.5t32.5 -164.5q0 -112 -47.5 -195z
M206 262.5q15 -40.5 43 -70.5l230 377q-30 8 -63 8q-65 0 -116.5 -30t-80 -82t-28.5 -115q0 -47 15 -87.5zM627.5 433q-13.5 39 -39.5 69l-228 -372q25 -6 56 -6q67 0 118 29t79 80.5t28 116.5q0 44 -13.5 83z" />
    <glyph glyph-name="Otilde" unicode="&#xd5;" horiz-adv-x="832" 
d="M279 896q29 26 68 26q17 0 33 -4q13 -4 37 -16q4 -2 21.5 -9.5t31.5 -7.5q25 0 39 34l93 -47q-22 -52 -48.5 -76.5t-58.5 -24.5q-20 0 -38 7q-21 8 -38 16q-15 7 -29.5 12t-25.5 5q-30 0 -47 -40l-89 52q22 47 51 73zM746.5 155q-47.5 -83 -133 -127.5t-197.5 -44.5
t-197.5 44.5t-133 127.5t-47.5 195t47.5 195t133 127.5t197.5 44.5t197.5 -44.5t133 -127.5t47.5 -195t-47.5 -195zM613 465.5q-28 51.5 -79 81.5t-118 30q-65 0 -116.5 -30t-80 -82t-28.5 -115q0 -65 28.5 -116.5t79.5 -80.5t117 -29q67 0 118 29t79 80.5t28 116.5
q0 64 -28 115.5z" />
    <glyph glyph-name="OE" unicode="&#x152;" horiz-adv-x="1038" 
d="M398 -17q-119 0 -199.5 47t-120 130.5t-39.5 192.5q0 108 40.5 190t121 128t197.5 46q48 0 128 -16h456v-139h-315v-137h296v-135h-296v-148h323v-140h-463q-62 -19 -129 -19zM218 234.5q23 -54.5 71.5 -88.5t120.5 -34q68 0 117 27v423q-33 15 -60.5 21t-61.5 6
q-98 0 -153.5 -63.5t-56.5 -173.5q0 -63 23 -117.5z" />
    <glyph glyph-name="P" unicode="P" horiz-adv-x="699" 
d="M78 0v700h330q87 0 147.5 -33.5t90.5 -90.5t30 -127q0 -72 -30.5 -128t-90.5 -89t-147 -34h-174v-198h-156zM491 371q29 30 29 75t-29 75.5t-83 30.5h-174v-211h174q54 0 83 30z" />
    <glyph glyph-name="Thorn" unicode="&#xde;" horiz-adv-x="686" 
d="M233 587h166q85 0 145 -33.5t90.5 -87.5t30.5 -115t-30.5 -115t-90.5 -87.5t-145 -33.5h-165v-115h-156l1 699h154v-112zM481.5 282.5q29.5 28.5 29.5 67.5q0 38 -29.5 66.5t-82.5 28.5h-165v-191h165q53 0 82.5 28.5z" />
    <glyph glyph-name="Q" unicode="Q" horiz-adv-x="832" 
d="M731 132l81 -82l-109 -108l-85 87q-86 -46 -202 -46q-112 0 -197.5 44t-133 126.5t-47.5 196.5t47.5 196.5t133 126.5t197.5 44t197 -44t132 -126.5t47 -196.5q0 -126 -61 -218zM611.5 467q-27.5 51 -78 79.5t-117.5 28.5q-65 0 -116.5 -29t-80 -80.5t-28.5 -115.5
q0 -66 28.5 -117t79.5 -79.5t117 -28.5q67 0 118.5 30t79 81.5t25.5 113.5q0 66 -27.5 117z" />
    <glyph glyph-name="R" unicode="R" horiz-adv-x="725" 
d="M347 230h-113v-230h-156v700h332q81 0 140 -32.5t89 -86.5t30 -117q0 -77 -35 -132t-127 -88l192 -232v-12h-173zM412 362q50 0 76.5 30t26.5 68q0 41 -27.5 73.5t-77.5 32.5h-176v-204h178z" />
    <glyph glyph-name="Racute" unicode="&#x154;" horiz-adv-x="725" 
d="M386 772h-121v6l71 135h161v-6zM347 230h-113v-230h-156v700h332q81 0 140 -32.5t89 -86.5t30 -117q0 -77 -35 -132t-127 -88l192 -232v-12h-173zM412 362q50 0 76.5 30t26.5 68q0 41 -27.5 73.5t-77.5 32.5h-176v-204h178z" />
    <glyph glyph-name="Rcaron" unicode="&#x158;" horiz-adv-x="725" 
d="M306 906l43 -38l47 38h133v-6l-147 -133h-72l-142 133v6h138zM347 230h-113v-230h-156v700h332q81 0 140 -32.5t89 -86.5t30 -117q0 -77 -35 -132t-127 -88l192 -232v-12h-173zM412 362q50 0 76.5 30t26.5 68q0 41 -27.5 73.5t-77.5 32.5h-176v-204h178z" />
    <glyph glyph-name="Rcommaaccent" unicode="&#x156;" horiz-adv-x="725" 
d="M347 230h-113v-230h-156v700h332q81 0 140 -32.5t89 -86.5t30 -117q0 -77 -35 -132t-127 -88l192 -232v-12h-173zM412 362q50 0 76.5 30t26.5 68q0 41 -27.5 73.5t-77.5 32.5h-176v-204h178zM453 -171q-7 -26 -22 -67l-16 -47h-77l15 104q-25 4 -39.5 19t-14.5 40
q0 36 23.5 56t56.5 20t57 -19.5t24 -54.5q0 -25 -7 -51z" />
    <glyph glyph-name="S" unicode="S" horiz-adv-x="654" 
d="M417 572q-44 15 -88 15q-52 0 -88 -21t-36 -55q0 -44 36.5 -60.5t113.5 -23.5q121 -11 195 -62t74 -163q0 -74 -41 -123.5t-108 -73.5t-146 -24q-93 -2 -178 34.5t-127 106.5l93 96q36 -48 96.5 -73t116.5 -25q64 0 102 22.5t38 61.5q0 43 -34 64t-107 27
q-131 12 -205 57.5t-72 157.5q0 67 38.5 114.5t101.5 71t136 23.5q86 0 148 -23t113 -82l-98 -85q-30 28 -74 43z" />
    <glyph glyph-name="Sacute" unicode="&#x15a;" horiz-adv-x="654" 
d="M382 781h-125v6l73 139h167v-6zM417 572q-44 15 -88 15q-52 0 -88 -21t-36 -55q0 -44 36.5 -60.5t113.5 -23.5q121 -11 195 -62t74 -163q0 -74 -41 -123.5t-108 -73.5t-146 -24q-93 -2 -178 34.5t-127 106.5l93 96q36 -48 96.5 -73t116.5 -25q64 0 102 22.5t38 61.5
q0 43 -34 64t-107 27q-131 12 -205 57.5t-72 157.5q0 67 38.5 114.5t101.5 71t136 23.5q86 0 148 -23t113 -82l-98 -85q-30 28 -74 43z" />
    <glyph glyph-name="Scaron" unicode="&#x160;" horiz-adv-x="654" 
d="M292 913l46 -38l50 38h141v-5l-156 -134h-76l-152 134v5h147zM417 572q-44 15 -88 15q-52 0 -88 -21t-36 -55q0 -44 36.5 -60.5t113.5 -23.5q121 -11 195 -62t74 -163q0 -74 -41 -123.5t-108 -73.5t-146 -24q-93 -2 -178 34.5t-127 106.5l93 96q36 -48 96.5 -73
t116.5 -25q64 0 102 22.5t38 61.5q0 43 -34 64t-107 27q-131 12 -205 57.5t-72 157.5q0 67 38.5 114.5t101.5 71t136 23.5q86 0 148 -23t113 -82l-98 -85q-30 28 -74 43z" />
    <glyph glyph-name="Scedilla" unicode="&#x15e;" horiz-adv-x="662" 
d="M419 577q-44 15 -88 15q-52 0 -88 -21t-36 -55q0 -44 36.5 -60.5t113.5 -23.5q121 -11 195 -62t74 -163q0 -94 -63.5 -148t-164.5 -68l-15 -44q59 -3 85.5 -30.5t26.5 -65.5q0 -37 -24.5 -64.5t-62.5 -41.5q-29 -10 -63 -10q-44 0 -83 18t-62 51l63 49q12 -14 32 -23
q17 -7 37 -7q21 0 35 8.5t14 24.5q0 14 -15 23t-34 9q-23 0 -37 -13l-37 27l32 85q-84 6 -155.5 42t-108.5 98l93 96q36 -48 96.5 -73t116.5 -25q64 0 102 22.5t38 61.5q0 43 -34 64t-107 27q-131 12 -205 57.5t-72 157.5q0 67 38.5 114.5t101.5 71t136 23.5q86 0 148 -23
t113 -82l-98 -85q-30 28 -74 43z" />
    <glyph glyph-name="Scircumflex" unicode="&#x15c;" horiz-adv-x="654" 
d="M529 789v-5h-140l-47 42l-46 -42h-141v5l150 140h75zM417 572q-44 15 -88 15q-52 0 -88 -21t-36 -55q0 -44 36.5 -60.5t113.5 -23.5q121 -11 195 -62t74 -163q0 -74 -41 -123.5t-108 -73.5t-146 -24q-93 -2 -178 34.5t-127 106.5l93 96q36 -48 96.5 -73t116.5 -25
q64 0 102 22.5t38 61.5q0 43 -34 64t-107 27q-131 12 -205 57.5t-72 157.5q0 67 38.5 114.5t101.5 71t136 23.5q86 0 148 -23t113 -82l-98 -85q-30 28 -74 43z" />
    <glyph glyph-name="Scommaaccent" unicode="&#x218;" horiz-adv-x="654" 
d="M417 572q-44 15 -88 15q-52 0 -88 -21t-36 -55q0 -44 36.5 -60.5t113.5 -23.5q121 -11 195 -62t74 -163q0 -74 -41 -123.5t-108 -73.5t-146 -24q-93 -2 -178 34.5t-127 106.5l93 96q36 -48 96.5 -73t116.5 -25q64 0 102 22.5t38 61.5q0 43 -34 64t-107 27
q-131 12 -205 57.5t-72 157.5q0 67 38.5 114.5t101.5 71t136 23.5q86 0 148 -23t113 -82l-98 -85q-30 28 -74 43zM417 -186.5q-8 -25.5 -25 -67.5l-16 -41h-83l16 100q-27 4 -42.5 18.5t-15.5 38.5q0 35 25.5 54t60.5 19t61.5 -19t26.5 -52q0 -25 -8 -50.5z" />
    <glyph glyph-name="T" unicode="T" horiz-adv-x="615" 
d="M17 561v139h581v-139h-213v-561h-155v561h-213z" />
    <glyph glyph-name="Tbar" unicode="&#x166;" horiz-adv-x="624" 
d="M234 401v160h-213v139h581v-139h-213v-160h110v-117h-110v-284h-155v284h-125v117h125z" />
    <glyph glyph-name="Tcaron" unicode="&#x164;" horiz-adv-x="615" 
d="M260 906l46 -40l49 40h140v-6l-155 -140h-75l-150 140v6h145zM17 561v139h581v-139h-213v-561h-155v561h-213z" />
    <glyph glyph-name="U" unicode="U" horiz-adv-x="774" 
d="M622.5 67q-83.5 -84 -229.5 -84q-91 0 -164.5 36t-117 109t-43.5 180v391h155v-391q0 -90 45 -137.5t127 -47.5q156 0 156 185v391h155v-391q0 -157 -83.5 -241z" />
    <glyph glyph-name="Uacute" unicode="&#xda;" horiz-adv-x="774" 
d="M429 762h-126v7l74 140h168v-6zM622.5 67q-83.5 -84 -229.5 -84q-91 0 -164.5 36t-117 109t-43.5 180v391h155v-391q0 -90 45 -137.5t127 -47.5q156 0 156 185v391h155v-391q0 -157 -83.5 -241z" />
    <glyph glyph-name="Ubreve" unicode="&#x16c;" horiz-adv-x="774" 
d="M511 799.5q-47 -40.5 -119 -40.5q-41 0 -79.5 14.5t-63.5 43.5t-25 70q0 12 1 18h120q0 -23 15.5 -32.5t31.5 -9.5q44 0 44 42h120q2 -65 -45 -105.5zM622.5 67q-83.5 -84 -229.5 -84q-91 0 -164.5 36t-117 109t-43.5 180v391h155v-391q0 -90 45 -137.5t127 -47.5
q156 0 156 185v391h155v-391q0 -157 -83.5 -241z" />
    <glyph glyph-name="Ucircumflex" unicode="&#xdb;" horiz-adv-x="774" 
d="M575 773v-5h-140l-47 42l-46 -42h-141v5l150 140h75zM622.5 67q-83.5 -84 -229.5 -84q-91 0 -164.5 36t-117 109t-43.5 180v391h155v-391q0 -90 45 -137.5t127 -47.5q156 0 156 185v391h155v-391q0 -157 -83.5 -241z" />
    <glyph glyph-name="Udieresis" unicode="&#xdc;" horiz-adv-x="774" 
d="M206.5 897.5q23.5 20.5 56.5 20.5q32 0 55.5 -21t23.5 -58t-23.5 -57.5t-55.5 -20.5q-33 0 -56.5 20.5t-23.5 57.5q0 38 23.5 58.5zM466.5 897.5q23.5 20.5 56.5 20.5q32 0 55.5 -21t23.5 -58t-23.5 -57.5t-55.5 -20.5q-33 0 -56.5 20.5t-23.5 57.5q0 38 23.5 58.5z
M622.5 67q-83.5 -84 -229.5 -84q-91 0 -164.5 36t-117 109t-43.5 180v391h155v-391q0 -90 45 -137.5t127 -47.5q156 0 156 185v391h155v-391q0 -157 -83.5 -241z" />
    <glyph glyph-name="Ugrave" unicode="&#xd9;" horiz-adv-x="774" 
d="M391 910l74 -140v-7h-126l-116 141v6h168zM622.5 67q-83.5 -84 -229.5 -84q-91 0 -164.5 36t-117 109t-43.5 180v391h155v-391q0 -90 45 -137.5t127 -47.5q156 0 156 185v391h155v-391q0 -157 -83.5 -241z" />
    <glyph glyph-name="Uhungarumlaut" unicode="&#x170;" horiz-adv-x="774" 
d="M455 903l-104 -141h-133l91 146h146v-5zM649 902l-118 -141h-127l98 146h147v-5zM622.5 67q-83.5 -84 -229.5 -84q-91 0 -164.5 36t-117 109t-43.5 180v391h155v-391q0 -90 45 -137.5t127 -47.5q156 0 156 185v391h155v-391q0 -157 -83.5 -241z" />
    <glyph glyph-name="Umacron" unicode="&#x16a;" horiz-adv-x="774" 
d="M561 896v-125h-342v125h342zM622.5 67q-83.5 -84 -229.5 -84q-91 0 -164.5 36t-117 109t-43.5 180v391h155v-391q0 -90 45 -137.5t127 -47.5q156 0 156 185v391h155v-391q0 -157 -83.5 -241z" />
    <glyph glyph-name="Uogonek" unicode="&#x172;" horiz-adv-x="776" 
d="M661.5 119q-44.5 -76 -126.5 -110h1q-24 -9 -35 -21t-11 -26q0 -15 12.5 -26.5t30.5 -11.5q26 0 49 24l82 -70q-23 -37 -62 -57t-83 -20t-82 20q-29 15 -46 46.5t-17 66.5q0 26 10 49q-89 2 -160.5 38.5t-113.5 108.5t-42 178v391h155v-391q0 -90 45 -137.5t127 -47.5
q156 0 156 185v391h155v-391q0 -113 -44.5 -189z" />
    <glyph glyph-name="Uring" unicode="&#x16e;" horiz-adv-x="774" 
d="M298 955q41 29 96 29q53 0 91.5 -29t38.5 -87q0 -54 -39.5 -83.5t-90.5 -29.5q-55 0 -96 27.5t-41 85.5t41 87zM352 902.5q-14 -13.5 -14 -32.5t14 -33t39 -14q26 0 39.5 13t13.5 32t-14 33.5t-39 14.5t-39 -13.5zM622.5 67q-83.5 -84 -229.5 -84q-91 0 -164.5 36
t-117 109t-43.5 180v391h155v-391q0 -90 45 -137.5t127 -47.5q156 0 156 185v391h155v-391q0 -157 -83.5 -241z" />
    <glyph glyph-name="Utilde" unicode="&#x168;" horiz-adv-x="774" 
d="M245.5 896.5q30.5 27.5 70.5 27.5q14 0 34 -5q14 -4 42 -16q13 -6 26.5 -11t23.5 -5q26 0 39 33l95 -47q-23 -53 -50 -77.5t-60 -24.5q-20 0 -38 7q-12 3 -25 9t-18 8q-36 17 -53 17q-28 0 -46 -42l-90 53q19 46 49.5 73.5zM622.5 67q-83.5 -84 -229.5 -84
q-91 0 -164.5 36t-117 109t-43.5 180v391h155v-391q0 -90 45 -137.5t127 -47.5q156 0 156 185v391h155v-391q0 -157 -83.5 -241z" />
    <glyph glyph-name="V" unicode="V" horiz-adv-x="738" 
d="M289 -3l-292 703h175l197 -517l197 517h175l-291 -703h-161z" />
    <glyph glyph-name="W" unicode="W" horiz-adv-x="1073" 
d="M686 1l-150 391l-145 -391h-128l-261 699h175l87 -239l63 -226l157 465h102l164 -465l60 225l83 240h175l-254 -699h-128z" />
    <glyph glyph-name="Wacute" unicode="&#x1e82;" horiz-adv-x="1073" 
d="M597 772h-134v7l79 131h179v-5zM686 1l-150 391l-145 -391h-128l-261 699h175l87 -239l63 -226l157 465h102l164 -465l60 225l83 240h175l-254 -699h-128z" />
    <glyph glyph-name="Wcircumflex" unicode="&#x174;" horiz-adv-x="1073" 
d="M739 780v-5h-152l-52 45l-50 -45h-153v5l163 152h82zM686 1l-150 391l-145 -391h-128l-261 699h175l87 -239l63 -226l157 465h102l164 -465l60 225l83 240h175l-254 -699h-128z" />
    <glyph glyph-name="Wdieresis" unicode="&#x1e84;" horiz-adv-x="1073" 
d="M347.5 891.5q23.5 20.5 56.5 20.5q32 0 55.5 -21t23.5 -58t-23.5 -57.5t-55.5 -20.5t-56 20.5t-24 57.5q0 38 23.5 58.5zM607.5 891.5q23.5 20.5 56.5 20.5q32 0 55.5 -21t23.5 -58t-23.5 -57.5t-55.5 -20.5t-56 20.5t-24 57.5q0 38 23.5 58.5zM686 1l-150 391l-145 -391
h-128l-261 699h175l87 -239l63 -226l157 465h102l164 -465l60 225l83 240h175l-254 -699h-128z" />
    <glyph glyph-name="Wgrave" unicode="&#x1e80;" horiz-adv-x="1073" 
d="M529 909l80 -130v-6h-137l-125 130v6h182zM686 1l-150 391l-145 -391h-128l-261 699h175l87 -239l63 -226l157 465h102l164 -465l60 225l83 240h175l-254 -699h-128z" />
    <glyph glyph-name="X" unicode="X" horiz-adv-x="689" 
d="M679 700v-7l-236 -341l240 -347v-5h-173l-165 246l-165 -246h-173v5l238 347l-235 341v7h171l164 -249l163 249h171z" />
    <glyph glyph-name="Y" unicode="Y" horiz-adv-x="704" 
d="M529 700h179v-8l-280 -414v-278h-156v278l-268 414v8h180l168 -278z" />
    <glyph glyph-name="Yacute" unicode="&#xdd;" horiz-adv-x="704" 
d="M394 766h-126v7l74 140h168v-6zM529 700h179v-8l-280 -414v-278h-156v278l-268 414v8h180l168 -278z" />
    <glyph glyph-name="Ycircumflex" unicode="&#x176;" horiz-adv-x="704" 
d="M547 782v-5h-145l-48 42l-48 -42h-146v5l155 138h78zM529 700h179v-8l-280 -414v-278h-156v278l-268 414v8h180l168 -278z" />
    <glyph glyph-name="Ydieresis" unicode="&#x178;" horiz-adv-x="704" 
d="M172.5 892q22.5 20 53.5 20t53.5 -20t22.5 -55t-22.5 -54.5t-53.5 -19.5t-53.5 19.5t-22.5 54.5t22.5 55zM420.5 892q22.5 20 53.5 20q30 0 52.5 -20t22.5 -55t-22.5 -54.5t-52.5 -19.5q-31 0 -53.5 19.5t-22.5 54.5t22.5 55zM529 700h179v-8l-280 -414v-278h-156v278
l-268 414v8h180l168 -278z" />
    <glyph glyph-name="Ygrave" unicode="&#x1ef2;" horiz-adv-x="704" 
d="M367 910l81 -129v-6h-138l-126 130v5h183zM529 700h179v-8l-280 -414v-278h-156v278l-268 414v8h180l168 -278z" />
    <glyph glyph-name="Z" unicode="Z" horiz-adv-x="628" 
d="M583 700v-68l-336 -486h344v-146h-560v81l342 485h-325v134h535z" />
    <glyph glyph-name="Zacute" unicode="&#x179;" horiz-adv-x="628" 
d="M356 767h-126v7l74 140h168v-6zM583 700v-68l-336 -486h344v-146h-560v81l342 485h-325v134h535z" />
    <glyph glyph-name="Zcaron" unicode="&#x17d;" horiz-adv-x="628" 
d="M280 907l46 -40l49 40h140v-6l-155 -140h-75l-150 140v6h145zM583 700v-68l-336 -486h344v-146h-560v81l342 485h-325v134h535z" />
    <glyph glyph-name="Zdotaccent" unicode="&#x17b;" horiz-adv-x="628" 
d="M258.5 904.5q27.5 20.5 64.5 20.5t64.5 -20t27.5 -56q0 -37 -27 -57.5t-65 -20.5q-37 0 -64.5 20t-27.5 56q0 37 27.5 57.5zM583 700v-68l-336 -486h344v-146h-560v81l342 485h-325v134h535z" />
    <glyph glyph-name="uni0162" unicode="&#x162;" horiz-adv-x="617" 
d="M17 700h581v-139h-213v-561h-53l-14 -49q58 -7 89.5 -36.5t27.5 -69.5q-6 -54 -49 -85.5t-101 -31.5q-43 0 -81.5 18t-63.5 53l63 55q33 -36 77 -34q25 2 37 11.5t12 23.5q0 17 -19 30.5t-50 13.5q-21 0 -39 -5l-23 16l32 91v560h-213v139z" />
    <glyph glyph-name="uni021A" unicode="&#x21a;" horiz-adv-x="615" 
d="M17 561v139h581v-139h-213v-561h-155v561h-213zM378 -171.5q-7 -25.5 -22 -68.5l-15 -45h-76l15 103q-25 4 -39.5 19t-14.5 39q0 36 23 55.5t56 19.5q32 0 56 -19.5t24 -53.5q0 -24 -7 -49.5z" />
    <glyph glyph-name="a" unicode="a" horiz-adv-x="639" 
d="M578 0h-130l-8 62q-22 -38 -66 -57.5t-86 -19.5q-74 0 -132 31.5t-90.5 91t-32.5 139.5q0 79 33 137.5t90.5 89.5t128.5 31q51 0 91.5 -17.5t61.5 -50.5l5 57h135v-494zM214 342.5q-37 -35.5 -37 -95.5t37 -95t93 -35q39 0 69 18t46 47t16 60q0 56 -35 96t-96 40
q-56 0 -93 -35.5z" />
    <glyph glyph-name="aacute" unicode="&#xe1;" horiz-adv-x="639" 
d="M358 568h-126v7l74 140h168v-6zM578 0h-130l-8 62q-22 -38 -66 -57.5t-86 -19.5q-74 0 -132 31.5t-90.5 91t-32.5 139.5q0 79 33 137.5t90.5 89.5t128.5 31q51 0 91.5 -17.5t61.5 -50.5l5 57h135v-494zM214 342.5q-37 -35.5 -37 -95.5t37 -95t93 -35q39 0 69 18t46 47
t16 60q0 56 -35 96t-96 40q-56 0 -93 -35.5z" />
    <glyph glyph-name="abreve" unicode="&#x103;" horiz-adv-x="639" 
d="M445.5 610.5q-46.5 -39.5 -117.5 -39.5q-42 0 -80.5 14.5t-62.5 43t-24 69.5q0 11 1 16h120q0 -22 14.5 -31t31.5 -9q43 0 43 40h119q2 -64 -44.5 -103.5zM578 0h-130l-8 62q-22 -38 -66 -57.5t-86 -19.5q-74 0 -132 31.5t-90.5 91t-32.5 139.5q0 79 33 137.5t90.5 89.5
t128.5 31q51 0 91.5 -17.5t61.5 -50.5l5 57h135v-494zM214 342.5q-37 -35.5 -37 -95.5t37 -95t93 -35q39 0 69 18t46 47t16 60q0 56 -35 96t-96 40q-56 0 -93 -35.5z" />
    <glyph glyph-name="acircumflex" unicode="&#xe2;" horiz-adv-x="639" 
d="M526 574v-5h-140l-47 42l-46 -42h-141v5l150 140h75zM578 0h-130l-8 62q-22 -38 -66 -57.5t-86 -19.5q-74 0 -132 31.5t-90.5 91t-32.5 139.5q0 79 33 137.5t90.5 89.5t128.5 31q51 0 91.5 -17.5t61.5 -50.5l5 57h135v-494zM214 342.5q-37 -35.5 -37 -95.5t37 -95t93 -35
q39 0 69 18t46 47t16 60q0 56 -35 96t-96 40q-56 0 -93 -35.5z" />
    <glyph glyph-name="adieresis" unicode="&#xe4;" horiz-adv-x="639" 
d="M160.5 699.5q22.5 18.5 54.5 18.5q31 0 53.5 -18.5t22.5 -52.5q0 -33 -22.5 -51.5t-53.5 -18.5q-32 0 -54.5 18.5t-22.5 51.5q0 34 22.5 52.5zM410.5 699.5q22.5 18.5 54.5 18.5q31 0 53.5 -18.5t22.5 -52.5q0 -33 -22.5 -51.5t-53.5 -18.5q-32 0 -54.5 18.5t-22.5 51.5
q0 34 22.5 52.5zM578 0h-130l-8 62q-22 -38 -66 -57.5t-86 -19.5q-74 0 -132 31.5t-90.5 91t-32.5 139.5q0 79 33 137.5t90.5 89.5t128.5 31q51 0 91.5 -17.5t61.5 -50.5l5 57h135v-494zM214 342.5q-37 -35.5 -37 -95.5t37 -95t93 -35q39 0 69 18t46 47t16 60q0 56 -35 96
t-96 40q-56 0 -93 -35.5z" />
    <glyph glyph-name="agrave" unicode="&#xe0;" horiz-adv-x="639" 
d="M317 715l74 -140v-7h-126l-116 141v6h168zM578 0h-130l-8 62q-22 -38 -66 -57.5t-86 -19.5q-74 0 -132 31.5t-90.5 91t-32.5 139.5q0 79 33 137.5t90.5 89.5t128.5 31q51 0 91.5 -17.5t61.5 -50.5l5 57h135v-494zM214 342.5q-37 -35.5 -37 -95.5t37 -95t93 -35
q39 0 69 18t46 47t16 60q0 56 -35 96t-96 40q-56 0 -93 -35.5z" />
    <glyph glyph-name="amacron" unicode="&#x101;" horiz-adv-x="639" 
d="M501 705v-119h-359v119h359zM578 0h-130l-8 62q-22 -38 -66 -57.5t-86 -19.5q-74 0 -132 31.5t-90.5 91t-32.5 139.5q0 79 33 137.5t90.5 89.5t128.5 31q51 0 91.5 -17.5t61.5 -50.5l5 57h135v-494zM214 342.5q-37 -35.5 -37 -95.5t37 -95t93 -35q39 0 69 18t46 47t16 60
q0 56 -35 96t-96 40q-56 0 -93 -35.5z" />
    <glyph glyph-name="aogonek" unicode="&#x105;" horiz-adv-x="640" 
d="M578 -53q-8 2 -22 2q-35 0 -64 -12t-29 -41q0 -17 11.5 -27.5t30.5 -10.5q27 0 56 22l71 -55q-30 -48 -107 -61q-8 -1 -23 -1q-51 0 -90.5 24.5t-49.5 72.5q-2 12 -2 21q0 34 19 66t69 53l-8 62q-22 -38 -66 -57.5t-86 -19.5q-74 0 -132 31.5t-90.5 91t-32.5 139.5
q0 79 33 137.5t90.5 89.5t128.5 31q51 0 91.5 -17.5t61.5 -50.5l5 57h135v-547zM214 342.5q-37 -35.5 -37 -95.5t37 -95t93 -35q39 0 69 18t46 47t16 60q0 56 -35 96t-96 40q-56 0 -93 -35.5z" />
    <glyph glyph-name="aring" unicode="&#xe5;" horiz-adv-x="639" 
d="M226.5 747.5q43.5 28.5 101.5 28.5q56 0 96.5 -28.5t40.5 -86.5q0 -54 -41.5 -83t-95.5 -29q-58 0 -101.5 27t-43.5 85t43.5 86.5zM283 695.5q-15 -13.5 -15 -32.5t15 -33t42 -14q26 0 41 13.5t15 32.5t-15 33t-41 14q-27 0 -42 -13.5zM578 0h-130l-8 62
q-22 -38 -66 -57.5t-86 -19.5q-74 0 -132 31.5t-90.5 91t-32.5 139.5q0 79 33 137.5t90.5 89.5t128.5 31q51 0 91.5 -17.5t61.5 -50.5l5 57h135v-494zM214 342.5q-37 -35.5 -37 -95.5t37 -95t93 -35q39 0 69 18t46 47t16 60q0 56 -35 96t-96 40q-56 0 -93 -35.5z" />
    <glyph glyph-name="aringacute" unicode="&#x1fb;" horiz-adv-x="639" 
d="M375 774h-121v4l71 97h160v-5zM230.5 719q38.5 26 90.5 26q51 0 86.5 -26t35.5 -79q0 -48 -37 -75.5t-85 -27.5q-51 0 -90 25.5t-39 77.5q0 53 38.5 79zM281.5 671.5q-13.5 -12.5 -13.5 -29.5q0 -18 13 -30.5t37 -12.5t37.5 12t13.5 29q0 18 -13.5 31t-37.5 13
q-23 0 -36.5 -12.5zM578 0h-130l-8 62q-22 -38 -66 -57.5t-86 -19.5q-74 0 -132 31.5t-90.5 91t-32.5 139.5q0 79 33 137.5t90.5 89.5t128.5 31q51 0 91.5 -17.5t61.5 -50.5l5 57h135v-494zM214 342.5q-37 -35.5 -37 -95.5t37 -95t93 -35q39 0 69 18t46 47t16 60
q0 56 -35 96t-96 40q-56 0 -93 -35.5z" />
    <glyph glyph-name="atilde" unicode="&#xe3;" horiz-adv-x="639" 
d="M196 697.5q28 25.5 65 25.5q20 0 35 -5q17 -5 44 -18q30 -17 45 -17q22 0 36 33l89 -48q-43 -98 -104 -98q-17 0 -38 8q-14 4 -40 17q-14 7 -27.5 12t-24.5 5q-28 0 -45 -39l-85 54q22 45 50 70.5zM578 0h-130l-8 62q-22 -38 -66 -57.5t-86 -19.5q-74 0 -132 31.5
t-90.5 91t-32.5 139.5q0 79 33 137.5t90.5 89.5t128.5 31q51 0 91.5 -17.5t61.5 -50.5l5 57h135v-494zM214 342.5q-37 -35.5 -37 -95.5t37 -95t93 -35q39 0 69 18t46 47t16 60q0 56 -35 96t-96 40q-56 0 -93 -35.5z" />
    <glyph glyph-name="ae" unicode="&#xe6;" horiz-adv-x="963" 
d="M614 134.5q38 -24.5 87 -24.5q33 0 66.5 11t55.5 30l77 -92q-70 -75 -199 -75q-46 0 -87.5 17t-66.5 52l-6 -53h-105l-1 62q-14 -35 -60.5 -54t-88.5 -19q-117 0 -185 64t-68 194q0 81 34.5 139.5t92 88.5t124.5 30q46 0 86 -17.5t64 -50.5l5 56h108v-50q30 35 73 50
t89 15q61 0 113 -28t83.5 -81.5t31.5 -125.5q0 -34 -7 -68h-366q12 -46 50 -70.5zM765.5 365.5q-26.5 18.5 -63.5 18.5q-51 0 -85 -18.5t-50 -54.5h230q-5 36 -31.5 54.5zM213.5 344q-36.5 -35 -36.5 -97t36.5 -97.5t92.5 -35.5q63 0 98 39.5t35 93.5t-35 93t-98 39
q-56 0 -92.5 -35z" />
    <glyph glyph-name="aeacute" unicode="&#x1fd;" horiz-adv-x="962" 
d="M548 565h-116v6l68 129h155v-6zM614 134.5q38 -24.5 87 -24.5q33 0 66.5 11t55.5 30l77 -92q-70 -75 -199 -75q-46 0 -87.5 17t-66.5 52l-6 -53h-105l-1 62q-14 -35 -60.5 -54t-88.5 -19q-117 0 -185 64t-68 194q0 81 34.5 139.5t92 88.5t124.5 30q46 0 86 -17.5
t64 -50.5l5 56h108v-50q30 35 73 50t89 15q61 0 113 -28t83.5 -81.5t31.5 -125.5q0 -34 -7 -68h-366q12 -46 50 -70.5zM765.5 365.5q-26.5 18.5 -63.5 18.5q-51 0 -85 -18.5t-50 -54.5h230q-5 36 -31.5 54.5zM213.5 344q-36.5 -35 -36.5 -97t36.5 -97.5t92.5 -35.5
q63 0 98 39.5t35 93.5t-35 93t-98 39q-56 0 -92.5 -35z" />
    <glyph glyph-name="b" unicode="b" horiz-adv-x="640" 
d="M361 505q72 0 128 -31.5t87 -89.5t31 -137q0 -76 -31 -135.5t-86 -93t-127 -33.5q-53 0 -93 16.5t-71 61.5l-9 -63h-129v699h145v-265q58 71 155 71zM247.5 340.5q-39.5 -33.5 -39.5 -93.5q0 -65 39 -96t94 -31q56 0 88.5 36t32.5 91q0 57 -32.5 92t-88.5 35
q-54 0 -93.5 -33.5z" />
    <glyph glyph-name="c" unicode="c" horiz-adv-x="508" 
d="M302 -16q-75 0 -136 28.5t-97.5 87t-36.5 144.5q0 80 36.5 139.5t98 90.5t134.5 31q58 0 100.5 -15.5t78.5 -54.5l-80 -91q-39 29 -93 29q-56 0 -93 -34.5t-37 -94.5q0 -57 37 -90.5t90 -33.5q26 0 54.5 10t45.5 27l91 -94q-75 -79 -193 -79z" />
    <glyph glyph-name="cacute" unicode="&#x107;" horiz-adv-x="508" 
d="M324 570h-111v6l65 123h148v-6zM302 -16q-75 0 -136 28.5t-97.5 87t-36.5 144.5q0 80 36.5 139.5t98 90.5t134.5 31q58 0 100.5 -15.5t78.5 -54.5l-80 -91q-39 29 -93 29q-56 0 -93 -34.5t-37 -94.5q0 -57 37 -90.5t90 -33.5q26 0 54.5 10t45.5 27l91 -94
q-75 -79 -193 -79z" />
    <glyph glyph-name="ccaron" unicode="&#x10d;" horiz-adv-x="508" 
d="M249 700l42 -37l45 37h128v-6l-142 -129h-69l-137 129v6h133zM302 -16q-75 0 -136 28.5t-97.5 87t-36.5 144.5q0 80 36.5 139.5t98 90.5t134.5 31q58 0 100.5 -15.5t78.5 -54.5l-80 -91q-39 29 -93 29q-56 0 -93 -34.5t-37 -94.5q0 -57 37 -90.5t90 -33.5q26 0 54.5 10
t45.5 27l91 -94q-75 -79 -193 -79z" />
    <glyph glyph-name="ccedilla" unicode="&#xe7;" horiz-adv-x="509" 
d="M325 -15l-9 -24q57 -5 81.5 -32t24.5 -61q0 -7 -2 -19q-6 -51 -43 -77.5t-89 -26.5q-42 0 -81.5 17t-63.5 48l59 58q10 -11 32.5 -19.5t42.5 -8.5q17 0 28 7.5t11 22.5q0 16 -16 27t-38 11q-20 0 -37 -10l-28 19l28 75q-87 20 -140 83.5t-53 168.5q0 80 36.5 139.5
t98 90.5t134.5 31q58 0 100.5 -15.5t78.5 -54.5l-80 -91q-39 29 -93 29q-56 0 -93 -34.5t-37 -94.5q0 -57 37 -90.5t90 -33.5q26 0 54.5 10t45.5 27l91 -94q-69 -73 -170 -78z" />
    <glyph glyph-name="ccircumflex" unicode="&#x109;" horiz-adv-x="508" 
d="M463 575v-4h-130l-44 39l-42 -39h-131v4l139 130h70zM302 -16q-75 0 -136 28.5t-97.5 87t-36.5 144.5q0 80 36.5 139.5t98 90.5t134.5 31q58 0 100.5 -15.5t78.5 -54.5l-80 -91q-39 29 -93 29q-56 0 -93 -34.5t-37 -94.5q0 -57 37 -90.5t90 -33.5q26 0 54.5 10t45.5 27
l91 -94q-75 -79 -193 -79z" />
    <glyph glyph-name="cdotaccent" unicode="&#x10b;" horiz-adv-x="508" 
d="M239 692q24 18 56 18q33 0 56.5 -18t23.5 -51t-23.5 -51t-56.5 -18q-32 0 -56 18t-24 51t24 51zM302 -16q-75 0 -136 28.5t-97.5 87t-36.5 144.5q0 80 36.5 139.5t98 90.5t134.5 31q58 0 100.5 -15.5t78.5 -54.5l-80 -91q-39 29 -93 29q-56 0 -93 -34.5t-37 -94.5
q0 -57 37 -90.5t90 -33.5q26 0 54.5 10t45.5 27l91 -94q-75 -79 -193 -79z" />
    <glyph glyph-name="d" unicode="d" horiz-adv-x="640" 
d="M450 0l-9 63q-33 -45 -72.5 -61t-91.5 -16q-72 0 -127 33t-86 92.5t-31 135.5q0 79 31 137t87 89t128 31q97 0 155 -70v265h145v-699h-129zM210.5 339q-32.5 -35 -32.5 -92q0 -55 32.5 -91t88.5 -36q55 0 94 31t39 96q0 60 -39.5 93.5t-93.5 33.5q-56 0 -88.5 -35z" />
    <glyph glyph-name="eth" unicode="&#xf0;" horiz-adv-x="580" 
d="M395 603q75 -61 111.5 -147.5t36.5 -185.5q0 -126 -66 -202t-188 -76q-82 0 -140 34.5t-87 91t-29 120.5q0 83 47 148.5t134 88.5q28 6 57 6q58 0 97 -28q-34 60 -103.5 95t-139.5 45l24 109q85 -12 153 -42l51 57l84 -67zM370 152q29 33 33 87q4 50 -28.5 84t-85.5 34
q-51 0 -81.5 -35t-30.5 -83t30.5 -84t81.5 -36q52 0 81 33z" />
    <glyph glyph-name="dcaron" unicode="&#x10f;" horiz-adv-x="734" 
d="M784 700l-75 -213h-98l43 213h130zM450 0l-9 63q-33 -45 -72.5 -61t-91.5 -16q-72 0 -127 33t-86 92.5t-31 135.5q0 79 31 137t87 89t128 31q97 0 155 -70v265h145v-699h-129zM210.5 339q-32.5 -35 -32.5 -92q0 -55 32.5 -91t88.5 -36q55 0 94 31t39 96q0 60 -39.5 93.5
t-93.5 33.5q-56 0 -88.5 -35z" />
    <glyph glyph-name="dcroat" unicode="&#x111;" horiz-adv-x="636" 
d="M638 644v-98h-59v-546h-129l-9 63q-33 -45 -72.5 -61t-91.5 -16q-72 0 -127 33t-86 92.5t-31 135.5q0 79 31 137t87 89t128 31q97 0 155 -70v112h-99v98h99v55h145v-55h59zM210.5 339q-32.5 -35 -32.5 -92q0 -55 32.5 -91t88.5 -36q55 0 94 31t39 96q0 60 -39.5 93.5
t-93.5 33.5q-56 0 -88.5 -35z" />
    <glyph glyph-name="e" unicode="e" horiz-adv-x="577" 
d="M220 133.5q35 -25.5 93 -25.5q35 0 69.5 9t58.5 30l81 -90q-38 -37 -94.5 -55t-117.5 -18q-88 0 -150.5 33t-94.5 93t-32 139q0 74 32.5 132t91.5 90.5t138 32.5q115 0 183.5 -62t68.5 -178q0 -37 -5 -67h-363q6 -38 41 -63.5zM377 360.5q-34 20.5 -82 20.5
q-44 0 -74.5 -21t-41.5 -58h234q-2 38 -36 58.5z" />
    <glyph glyph-name="eacute" unicode="&#xe9;" horiz-adv-x="577" 
d="M336 565h-126v7l74 140h168v-6zM220 133.5q35 -25.5 93 -25.5q35 0 69.5 9t58.5 30l81 -90q-38 -37 -94.5 -55t-117.5 -18q-88 0 -150.5 33t-94.5 93t-32 139q0 74 32.5 132t91.5 90.5t138 32.5q115 0 183.5 -62t68.5 -178q0 -37 -5 -67h-363q6 -38 41 -63.5zM377 360.5
q-34 20.5 -82 20.5q-44 0 -74.5 -21t-41.5 -58h234q-2 38 -36 58.5z" />
    <glyph glyph-name="ebreve" unicode="&#x115;" horiz-adv-x="577" 
d="M418.5 605q-45.5 -40 -115.5 -40q-42 0 -79.5 15t-61.5 44t-24 69q0 11 1 16h118q0 -23 14 -31.5t32 -8.5q42 0 42 40h117q2 -64 -43.5 -104zM220 133.5q35 -25.5 93 -25.5q35 0 69.5 9t58.5 30l81 -90q-38 -37 -94.5 -55t-117.5 -18q-88 0 -150.5 33t-94.5 93t-32 139
q0 74 32.5 132t91.5 90.5t138 32.5q115 0 183.5 -62t68.5 -178q0 -37 -5 -67h-363q6 -38 41 -63.5zM377 360.5q-34 20.5 -82 20.5q-44 0 -74.5 -21t-41.5 -58h234q-2 38 -36 58.5z" />
    <glyph glyph-name="ecaron" unicode="&#x11b;" horiz-adv-x="577" 
d="M258 700l45 -36l49 36h140v-6l-155 -126h-74l-150 126v6h145zM220 133.5q35 -25.5 93 -25.5q35 0 69.5 9t58.5 30l81 -90q-38 -37 -94.5 -55t-117.5 -18q-88 0 -150.5 33t-94.5 93t-32 139q0 74 32.5 132t91.5 90.5t138 32.5q115 0 183.5 -62t68.5 -178q0 -37 -5 -67
h-363q6 -38 41 -63.5zM377 360.5q-34 20.5 -82 20.5q-44 0 -74.5 -21t-41.5 -58h234q-2 38 -36 58.5z" />
    <glyph glyph-name="ecircumflex" unicode="&#xea;" horiz-adv-x="577" 
d="M496 575v-5h-140l-47 42l-46 -42h-141v5l150 140h75zM220 133.5q35 -25.5 93 -25.5q35 0 69.5 9t58.5 30l81 -90q-38 -37 -94.5 -55t-117.5 -18q-88 0 -150.5 33t-94.5 93t-32 139q0 74 32.5 132t91.5 90.5t138 32.5q115 0 183.5 -62t68.5 -178q0 -37 -5 -67h-363
q6 -38 41 -63.5zM377 360.5q-34 20.5 -82 20.5q-44 0 -74.5 -21t-41.5 -58h234q-2 38 -36 58.5z" />
    <glyph glyph-name="edieresis" unicode="&#xeb;" horiz-adv-x="577" 
d="M127 697q23 20 54 20q32 0 54.5 -20t22.5 -55t-23 -54.5t-54 -19.5t-54 19.5t-23 54.5t23 55zM360 697q23 20 54 20q32 0 54.5 -20t22.5 -55t-23 -54.5t-54 -19.5t-54 19.5t-23 54.5t23 55zM220 133.5q35 -25.5 93 -25.5q35 0 69.5 9t58.5 30l81 -90q-38 -37 -94.5 -55
t-117.5 -18q-88 0 -150.5 33t-94.5 93t-32 139q0 74 32.5 132t91.5 90.5t138 32.5q115 0 183.5 -62t68.5 -178q0 -37 -5 -67h-363q6 -38 41 -63.5zM377 360.5q-34 20.5 -82 20.5q-44 0 -74.5 -21t-41.5 -58h234q-2 38 -36 58.5z" />
    <glyph glyph-name="edotaccent" unicode="&#x117;" horiz-adv-x="577" 
d="M238.5 699q25.5 19 60.5 19t60.5 -19t25.5 -53q0 -33 -25.5 -51.5t-60.5 -18.5t-60.5 18.5t-25.5 51.5q0 34 25.5 53zM220 133.5q35 -25.5 93 -25.5q35 0 69.5 9t58.5 30l81 -90q-38 -37 -94.5 -55t-117.5 -18q-88 0 -150.5 33t-94.5 93t-32 139q0 74 32.5 132t91.5 90.5
t138 32.5q115 0 183.5 -62t68.5 -178q0 -37 -5 -67h-363q6 -38 41 -63.5zM377 360.5q-34 20.5 -82 20.5q-44 0 -74.5 -21t-41.5 -58h234q-2 38 -36 58.5z" />
    <glyph glyph-name="egrave" unicode="&#xe8;" horiz-adv-x="577" 
d="M307 717l74 -140v-7h-126l-116 141v6h168zM220 133.5q35 -25.5 93 -25.5q35 0 69.5 9t58.5 30l81 -90q-38 -37 -94.5 -55t-117.5 -18q-88 0 -150.5 33t-94.5 93t-32 139q0 74 32.5 132t91.5 90.5t138 32.5q115 0 183.5 -62t68.5 -178q0 -37 -5 -67h-363q6 -38 41 -63.5z
M377 360.5q-34 20.5 -82 20.5q-44 0 -74.5 -21t-41.5 -58h234q-2 38 -36 58.5z" />
    <glyph glyph-name="emacron" unicode="&#x113;" horiz-adv-x="577" 
d="M454 694v-110h-320v110h320zM220 133.5q35 -25.5 93 -25.5q35 0 69.5 9t58.5 30l81 -90q-38 -37 -94.5 -55t-117.5 -18q-88 0 -150.5 33t-94.5 93t-32 139q0 74 32.5 132t91.5 90.5t138 32.5q115 0 183.5 -62t68.5 -178q0 -37 -5 -67h-363q6 -38 41 -63.5zM377 360.5
q-34 20.5 -82 20.5q-44 0 -74.5 -21t-41.5 -58h234q-2 38 -36 58.5z" />
    <glyph glyph-name="eogonek" unicode="&#x119;" horiz-adv-x="580" 
d="M220 133.5q35 -25.5 93 -25.5q35 0 69.5 9t58.5 30l81 -90q-49 -48 -128 -64q-10 -8 -14 -15q-6 -12 -6 -24q0 -8 3 -15q10 -20 38 -20t59 24l71 -56q-28 -32 -72 -49.5t-88 -17.5q-36 0 -65 12t-44 35q-17 24 -17 57q0 35 26 61q-120 7 -186 78.5t-66 185.5
q0 74 32.5 132t91.5 90.5t138 32.5q115 0 183.5 -62t68.5 -178q0 -37 -5 -67h-363q6 -38 41 -63.5zM377 360.5q-34 20.5 -82 20.5q-44 0 -74.5 -21t-41.5 -58h234q-2 38 -36 58.5z" />
    <glyph glyph-name="f" unicode="f" horiz-adv-x="406" 
d="M23 367v121h87v26q0 68 28.5 112.5t74 65.5t97.5 21q40 0 71.5 -10t65.5 -32l-49 -101q-31 20 -71 20q-34 0 -53.5 -19t-19.5 -57v-26h137v-121h-137v-367h-144v367h-87z" />
    <glyph glyph-name="g" unicode="g" horiz-adv-x="641" 
d="M231 -109q32 -15 79 -15q52 0 90.5 27.5t38.5 86.5v69q-25 -39 -66.5 -56t-84.5 -17q-74 0 -132 31.5t-90.5 90.5t-32.5 139q0 79 33 137.5t90.5 90t129.5 31.5q48 0 89 -19t60 -50l5 56h140v-506q0 -81 -37 -135.5t-98.5 -80.5t-136.5 -26q-109 0 -180.5 50.5
t-77.5 144.5h143q6 -34 38 -49zM213.5 344q-36.5 -35 -36.5 -97q0 -61 36.5 -95t92.5 -34q60 0 93 39t33 92t-33 91.5t-93 38.5q-56 0 -92.5 -35z" />
    <glyph glyph-name="gbreve" unicode="&#x11f;" horiz-adv-x="641" 
d="M435 604.5q-46 -37.5 -115 -37.5q-45 0 -83.5 16.5t-60.5 49.5t-18 80h117q0 -25 12.5 -36t32.5 -11q45 0 45 47h116q0 -71 -46 -108.5zM231 -109q32 -15 79 -15q52 0 90.5 27.5t38.5 86.5v69q-25 -39 -66.5 -56t-84.5 -17q-74 0 -132 31.5t-90.5 90.5t-32.5 139
q0 79 33 137.5t90.5 90t129.5 31.5q48 0 89 -19t60 -50l5 56h140v-506q0 -81 -37 -135.5t-98.5 -80.5t-136.5 -26q-109 0 -180.5 50.5t-77.5 144.5h143q6 -34 38 -49zM213.5 344q-36.5 -35 -36.5 -97q0 -61 36.5 -95t92.5 -34q60 0 93 39t33 92t-33 91.5t-93 38.5
q-56 0 -92.5 -35z" />
    <glyph glyph-name="gcircumflex" unicode="&#x11d;" horiz-adv-x="641" 
d="M364 570l-44 43l-51 -43h-140v6l155 140h75l150 -140v-6h-145zM231 -109q32 -15 79 -15q52 0 90.5 27.5t38.5 86.5v69q-25 -39 -66.5 -56t-84.5 -17q-74 0 -132 31.5t-90.5 90.5t-32.5 139q0 79 33 137.5t90.5 90t129.5 31.5q48 0 89 -19t60 -50l5 56h140v-506
q0 -81 -37 -135.5t-98.5 -80.5t-136.5 -26q-109 0 -180.5 50.5t-77.5 144.5h143q6 -34 38 -49zM213.5 344q-36.5 -35 -36.5 -97q0 -61 36.5 -95t92.5 -34q60 0 93 39t33 92t-33 91.5t-93 38.5q-56 0 -92.5 -35z" />
    <glyph glyph-name="gcommaaccent" unicode="&#x123;" horiz-adv-x="641" 
d="M239 682.5q5 15.5 18 42.5l23 55h77l-16 -77q26 -4 40 -18.5t14 -40.5q0 -36 -23 -56t-55 -20q-33 0 -58 21t-25 59q0 19 5 34.5zM231 -109q32 -15 79 -15q52 0 90.5 27.5t38.5 86.5v69q-25 -39 -66.5 -56t-84.5 -17q-74 0 -132 31.5t-90.5 90.5t-32.5 139q0 79 33 137.5
t90.5 90t129.5 31.5q48 0 89 -19t60 -50l5 56h140v-506q0 -81 -37 -135.5t-98.5 -80.5t-136.5 -26q-109 0 -180.5 50.5t-77.5 144.5h143q6 -34 38 -49zM213.5 344q-36.5 -35 -36.5 -97q0 -61 36.5 -95t92.5 -34q60 0 93 39t33 92t-33 91.5t-93 38.5q-56 0 -92.5 -35z" />
    <glyph glyph-name="gdotaccent" unicode="&#x121;" horiz-adv-x="641" 
d="M257.5 699.5q24.5 20.5 57.5 20.5t57.5 -20.5t24.5 -57.5q0 -35 -24.5 -55.5t-57.5 -20.5t-57.5 20.5t-24.5 55.5q0 37 24.5 57.5zM231 -109q32 -15 79 -15q52 0 90.5 27.5t38.5 86.5v69q-25 -39 -66.5 -56t-84.5 -17q-74 0 -132 31.5t-90.5 90.5t-32.5 139
q0 79 33 137.5t90.5 90t129.5 31.5q48 0 89 -19t60 -50l5 56h140v-506q0 -81 -37 -135.5t-98.5 -80.5t-136.5 -26q-109 0 -180.5 50.5t-77.5 144.5h143q6 -34 38 -49zM213.5 344q-36.5 -35 -36.5 -97q0 -61 36.5 -95t92.5 -34q60 0 93 39t33 92t-33 91.5t-93 38.5
q-56 0 -92.5 -35z" />
    <glyph glyph-name="h" unicode="h" horiz-adv-x="607" 
d="M274 488q39 16 82 16q197 0 197 -237v-267h-144v266q0 51 -25.5 79t-68.5 28q-47 0 -78.5 -31.5t-31.5 -89.5v-252h-144v700h145v-265q29 37 68 53z" />
    <glyph glyph-name="hbar" unicode="&#x127;" horiz-adv-x="607" 
d="M328 644v-96h-122v-113q29 37 68 53t82 16q197 0 197 -237v-267h-144v266q0 51 -25.5 79t-68.5 28q-47 0 -78.5 -31.5t-31.5 -89.5v-252h-144v548h-60v96h60v56h145v-56h122z" />
    <glyph glyph-name="hcircumflex" unicode="&#x125;" horiz-adv-x="607" 
d="M476 781v-5h-135l-45 41l-44 -41h-135v5l144 135h72zM274 488q39 16 82 16q197 0 197 -237v-267h-144v266q0 51 -25.5 79t-68.5 28q-47 0 -78.5 -31.5t-31.5 -89.5v-252h-144v700h145v-265q29 37 68 53z" />
    <glyph glyph-name="i" unicode="i" horiz-adv-x="266" 
d="M75 685q24 21 58 21t58 -21t24 -60t-24 -60t-58 -21t-58 21t-24 60t24 60zM205 0h-144v495h144v-495z" />
    <glyph glyph-name="dotlessi" unicode="&#x131;" horiz-adv-x="267" 
d="M61 494h145v-494h-145v494z" />
    <glyph glyph-name="iacute" unicode="&#xed;" horiz-adv-x="267" 
d="M184 551h-124v7l49 141h157v-6zM61 494h145v-494h-145v494z" />
    <glyph glyph-name="ibreve" unicode="&#x12d;" horiz-adv-x="267" 
d="M259.5 622.5q-17.5 -33.5 -49.5 -52t-72 -18.5q-38 0 -72 16.5t-54 50t-16 80.5h102q0 -23 13 -32t27 -9t25.5 8.5t11.5 32.5h101q1 -43 -16.5 -76.5zM61 494h145v-494h-145v494z" />
    <glyph glyph-name="icircumflex" unicode="&#xee;" horiz-adv-x="267" 
d="M298 562v-5h-123l-42 44l-40 -44h-125v5l132 150h67zM61 494h145v-494h-145v494z" />
    <glyph glyph-name="idieresis" unicode="&#xef;" horiz-adv-x="267" 
d="M-7 687q22 19 53 19q30 0 52 -19t22 -54t-22 -54t-52 -19q-31 0 -53 19t-22 54t22 54zM185 687q22 19 53 19q30 0 52 -19t22 -54t-22 -54t-52 -19q-31 0 -53 19t-22 54t22 54zM61 494h145v-494h-145v494z" />
    <glyph glyph-name="igrave" unicode="&#xec;" horiz-adv-x="267" 
d="M159 699l49 -141v-7h-124l-82 142v6h157zM61 494h145v-494h-145v494z" />
    <glyph glyph-name="ij" unicode="&#x133;" horiz-adv-x="531" 
d="M75 685q24 21 58 21t58 -21t24 -60t-24 -60t-58 -21t-58 21t-24 60t24 60zM342 685q24 21 57 21q34 0 58 -21t24 -60t-24 -60t-58 -21q-33 0 -57 21t-24 60t24 60zM205 0h-144v495h144v-495zM425 -170.5q-45 -49.5 -117 -49.5q-62 0 -121 35l41 105q31 -17 54 -17
q45 0 45 69v523h143v-519q0 -97 -45 -146.5z" />
    <glyph glyph-name="imacron" unicode="&#x12b;" horiz-adv-x="267" 
d="M249 698v-111h-229v111h229zM61 494h145v-494h-145v494z" />
    <glyph glyph-name="iogonek" unicode="&#x12f;" horiz-adv-x="269" 
d="M78 685q24 21 58 21t58 -21t24 -60t-24 -60t-58 -21t-58 21t-24 60t24 60zM168 0q-11 -1 -27 -7q-36 -14 -32 -46q0 -13 12 -23t31 -11q28 0 53 20l72 -56q-20 -33 -55.5 -50.5t-78.5 -17.5q-50 0 -81 13q-27 11 -40.5 25t-20.5 37t-7 40q0 32 17 59t53 44v468h144v-495
h-40z" />
    <glyph glyph-name="itilde" unicode="&#x129;" horiz-adv-x="267" 
d="M78 713q14 0 26 -4t31 -15q11 -6 21.5 -10.5t18.5 -4.5q21 0 30 31l73 -42q-18 -48 -38 -70.5t-45 -22.5q-16 0 -31 7q-15 6 -31 15q-12 6 -23 10.5t-20 4.5q-11 0 -19.5 -8.5t-15.5 -28.5l-70 48q35 90 93 90zM61 494h145v-494h-145v494z" />
    <glyph glyph-name="j" unicode="j" horiz-adv-x="265" 
d="M76 685q24 21 57 21q34 0 58 -21t24 -60t-24 -60t-58 -21q-33 0 -57 21t-24 60t24 60zM159 -170.5q-45 -49.5 -117 -49.5q-62 0 -121 35l41 105q31 -17 54 -17q45 0 45 69v523h143v-519q0 -97 -45 -146.5z" />
    <glyph glyph-name="uni0237" unicode="&#x237;" horiz-adv-x="265" 
d="M160.5 -200.5q-43.5 -48.5 -129.5 -48.5q-64 0 -116 35l49 104q31 -13 55 -12q42 4 42 77v540h143v-540q0 -107 -43.5 -155.5z" />
    <glyph glyph-name="jcircumflex" unicode="&#x135;" horiz-adv-x="265" 
d="M281 572v-5h-115l-38 43l-38 -43h-116v5l123 146h62zM160.5 -200.5q-43.5 -48.5 -129.5 -48.5q-64 0 -116 35l49 104q31 -13 55 -12q42 4 42 77v540h143v-540q0 -107 -43.5 -155.5z" />
    <glyph glyph-name="k" unicode="k" horiz-adv-x="548" 
d="M205 300l146 191h170v-9l-181 -221l209 -250v-11h-173l-171 217v-217h-144v699h144v-399z" />
    <glyph glyph-name="kcommaaccent" unicode="&#x137;" horiz-adv-x="548" 
d="M205 300l146 191h170v-9l-181 -221l209 -250v-11h-173l-171 217v-217h-144v699h144v-399zM361.5 -161q-6.5 -23 -21.5 -66q-12 -32 -17 -48h-77l15 101q-25 4 -39.5 18.5t-14.5 38.5q0 35 23.5 54.5t56.5 19.5q32 0 56.5 -19.5t24.5 -52.5q0 -23 -6.5 -46z" />
    <glyph glyph-name="kgreenlandic" unicode="&#x138;" horiz-adv-x="547" 
d="M205 300l146 193h170v-9l-186 -223l214 -250v-11h-173l-171 217v-217h-144v492h144v-192z" />
    <glyph glyph-name="l" unicode="l" horiz-adv-x="269" 
d="M206 0h-143v699h143v-699z" />
    <glyph glyph-name="lacute" unicode="&#x13a;" horiz-adv-x="269" 
d="M190 760h-121v6l71 125h160v-5zM206 0h-143v699h143v-699z" />
    <glyph glyph-name="lcaron" unicode="&#x13e;" horiz-adv-x="383" 
d="M427 700l-77 -221h-102l45 221h134zM206 0h-143v699h143v-699z" />
    <glyph glyph-name="lcommaaccent" unicode="&#x13c;" horiz-adv-x="269" 
d="M206 0h-143v699h143v-699zM209 -180q-7 -26 -22 -67l-16 -47h-77l15 104q-25 4 -39.5 19t-14.5 40q0 36 23.5 56t56.5 20t57 -19.5t24 -54.5q0 -25 -7 -51z" />
    <glyph glyph-name="ldot" unicode="&#x140;" horiz-adv-x="425" 
d="M206 0h-143v699h143v-699zM287 390.5q26 22.5 61 22.5q36 0 61.5 -22.5t25.5 -63.5q0 -40 -25.5 -62.5t-61.5 -22.5q-35 0 -61 22.5t-26 62.5q0 41 26 63.5z" />
    <glyph glyph-name="lslash" unicode="&#x142;" horiz-adv-x="303" 
d="M220 418l68 35v-102l-68 -35v-316h-143v243l-61 -31v104l61 30v353h143v-281z" />
    <glyph glyph-name="m" unicode="m" horiz-adv-x="886" 
d="M362 344q-24 29 -68 29q-41 0 -65 -32t-24 -77v-264h-144v494h126l10 -56q22 36 56.5 51.5t73.5 15.5q45 0 84 -21.5t61 -70.5q33 50 70.5 71t92.5 21q88 0 142.5 -53.5t54.5 -181.5v-270h-145v267q0 51 -16.5 77t-58.5 26q-41 0 -62.5 -30t-21.5 -75v-265h-142v265
q0 50 -24 79z" />
    <glyph glyph-name="n" unicode="n" horiz-adv-x="616" 
d="M315 376q-49 0 -80.5 -35.5t-31.5 -85.5v-255h-142v494h130l5 -63q57 74 155 74q97 0 154 -54t57 -189v-262h-145v261q0 115 -102 115z" />
    <glyph glyph-name="nacute" unicode="&#x144;" horiz-adv-x="616" 
d="M365 571h-119v6l70 133h158v-6zM315 376q-49 0 -80.5 -35.5t-31.5 -85.5v-255h-142v494h130l5 -63q57 74 155 74q97 0 154 -54t57 -189v-262h-145v261q0 115 -102 115z" />
    <glyph glyph-name="napostrophe" unicode="&#x149;" horiz-adv-x="616" 
d="M315 376q-49 0 -80.5 -35.5t-31.5 -85.5v-255h-142v494h130l5 -63q57 74 155 74q97 0 154 -54t57 -189v-262h-145v261q0 115 -102 115z" />
    <glyph glyph-name="ncaron" unicode="&#x148;" horiz-adv-x="616" 
d="M281 705l43 -38l46 38h131v-6l-145 -131h-70l-141 131v6h136zM315 376q-49 0 -80.5 -35.5t-31.5 -85.5v-255h-142v494h130l5 -63q57 74 155 74q97 0 154 -54t57 -189v-262h-145v261q0 115 -102 115z" />
    <glyph glyph-name="ncommaaccent" unicode="&#x146;" horiz-adv-x="616" 
d="M315 376q-49 0 -80.5 -35.5t-31.5 -85.5v-255h-142v494h130l5 -63q57 74 155 74q97 0 154 -54t57 -189v-262h-145v261q0 115 -102 115zM383 -169q-7 -26 -22 -67l-16 -47h-77l15 104q-25 4 -39.5 19t-14.5 40q0 36 23.5 56t56.5 20t57 -19.5t24 -54.5q0 -25 -7 -51z" />
    <glyph glyph-name="eng" unicode="&#x14b;" horiz-adv-x="614" 
d="M315 376q-49 0 -80.5 -35.5t-31.5 -85.5v-255h-142v494h130l5 -63q57 74 155 74q97 0 154 -54t57 -189v-291q-2 -102 -46 -149t-119 -47q-63 0 -124 35l45 101q27 -13 52 -13t36 18t11 55v290q0 115 -102 115z" />
    <glyph glyph-name="ntilde" unicode="&#xf1;" horiz-adv-x="616" 
d="M244 721q16 0 31 -4q19 -7 34 -15q3 -1 19.5 -8.5t29.5 -7.5q24 0 35 32l86 -43q-21 -49 -45 -72t-54 -23q-14 0 -35 7q-9 3 -36 15q-13 6 -26.5 11t-22.5 5q-27 0 -43 -38l-82 49q42 92 109 92zM315 376q-49 0 -80.5 -35.5t-31.5 -85.5v-255h-142v494h130l5 -63
q57 74 155 74q97 0 154 -54t57 -189v-262h-145v261q0 115 -102 115z" />
    <glyph glyph-name="o" unicode="o" horiz-adv-x="605" 
d="M158 16.5q-61 32.5 -93.5 91.5t-32.5 138q0 74 33.5 133t95 92.5t141.5 33.5q81 0 142.5 -33.5t95 -92.5t33.5 -133q0 -79 -33 -138t-94 -91.5t-144 -32.5t-144 32.5zM395.5 150.5q31.5 38.5 31.5 95.5q0 52 -32 91t-93 39q-60 0 -92 -39t-32 -91q0 -56 31 -95t93 -39
t93.5 38.5z" />
    <glyph glyph-name="oacute" unicode="&#xf3;" horiz-adv-x="605" 
d="M359 565h-126v7l74 140h168v-6zM158 16.5q-61 32.5 -93.5 91.5t-32.5 138q0 74 33.5 133t95 92.5t141.5 33.5q81 0 142.5 -33.5t95 -92.5t33.5 -133q0 -79 -33 -138t-94 -91.5t-144 -32.5t-144 32.5zM395.5 150.5q31.5 38.5 31.5 95.5q0 52 -32 91t-93 39q-60 0 -92 -39
t-32 -91q0 -56 31 -95t93 -39t93.5 38.5z" />
    <glyph glyph-name="obreve" unicode="&#x14f;" horiz-adv-x="605" 
d="M424 603q-45 -39 -113 -39q-40 0 -77 14.5t-60 43t-23 68.5q0 10 1 16h115q0 -22 14 -31t30 -9t29 8.5t13 31.5h114q2 -64 -43 -103zM158 16.5q-61 32.5 -93.5 91.5t-32.5 138q0 74 33.5 133t95 92.5t141.5 33.5q81 0 142.5 -33.5t95 -92.5t33.5 -133q0 -79 -33 -138
t-94 -91.5t-144 -32.5t-144 32.5zM395.5 150.5q31.5 38.5 31.5 95.5q0 52 -32 91t-93 39q-60 0 -92 -39t-32 -91q0 -56 31 -95t93 -39t93.5 38.5z" />
    <glyph glyph-name="ocircumflex" unicode="&#xf4;" horiz-adv-x="605" 
d="M488 574v-5h-140l-47 42l-46 -42h-141v5l150 140h75zM158 16.5q-61 32.5 -93.5 91.5t-32.5 138q0 74 33.5 133t95 92.5t141.5 33.5q81 0 142.5 -33.5t95 -92.5t33.5 -133q0 -79 -33 -138t-94 -91.5t-144 -32.5t-144 32.5zM395.5 150.5q31.5 38.5 31.5 95.5q0 52 -32 91
t-93 39q-60 0 -92 -39t-32 -91q0 -56 31 -95t93 -39t93.5 38.5z" />
    <glyph glyph-name="odieresis" unicode="&#xf6;" horiz-adv-x="605" 
d="M129.5 698.5q23.5 20.5 56.5 20.5q32 0 55.5 -21t23.5 -58t-23.5 -57.5t-55.5 -20.5q-33 0 -56.5 20.5t-23.5 57.5q0 38 23.5 58.5zM367.5 698.5q23.5 20.5 56.5 20.5q32 0 55.5 -21t23.5 -58t-23.5 -57.5t-55.5 -20.5q-33 0 -56.5 20.5t-23.5 57.5q0 38 23.5 58.5z
M158 16.5q-61 32.5 -93.5 91.5t-32.5 138q0 74 33.5 133t95 92.5t141.5 33.5q81 0 142.5 -33.5t95 -92.5t33.5 -133q0 -79 -33 -138t-94 -91.5t-144 -32.5t-144 32.5zM395.5 150.5q31.5 38.5 31.5 95.5q0 52 -32 91t-93 39q-60 0 -92 -39t-32 -91q0 -56 31 -95t93 -39
t93.5 38.5z" />
    <glyph glyph-name="ograve" unicode="&#xf2;" horiz-adv-x="605" 
d="M310 710l74 -140v-7h-126l-116 141v6h168zM158 16.5q-61 32.5 -93.5 91.5t-32.5 138q0 74 33.5 133t95 92.5t141.5 33.5q81 0 142.5 -33.5t95 -92.5t33.5 -133q0 -79 -33 -138t-94 -91.5t-144 -32.5t-144 32.5zM395.5 150.5q31.5 38.5 31.5 95.5q0 52 -32 91t-93 39
q-60 0 -92 -39t-32 -91q0 -56 31 -95t93 -39t93.5 38.5z" />
    <glyph glyph-name="ohungarumlaut" unicode="&#x151;" horiz-adv-x="605" 
d="M371 689l-99 -120h-128l87 124h140v-4zM557 688l-113 -119h-122l95 123h140v-4zM158 16.5q-61 32.5 -93.5 91.5t-32.5 138q0 74 33.5 133t95 92.5t141.5 33.5q81 0 142.5 -33.5t95 -92.5t33.5 -133q0 -79 -33 -138t-94 -91.5t-144 -32.5t-144 32.5zM395.5 150.5
q31.5 38.5 31.5 95.5q0 52 -32 91t-93 39q-60 0 -92 -39t-32 -91q0 -56 31 -95t93 -39t93.5 38.5z" />
    <glyph glyph-name="omacron" unicode="&#x14d;" horiz-adv-x="605" 
d="M464 699v-121h-313v121h313zM158 16.5q-61 32.5 -93.5 91.5t-32.5 138q0 74 33.5 133t95 92.5t141.5 33.5q81 0 142.5 -33.5t95 -92.5t33.5 -133q0 -79 -33 -138t-94 -91.5t-144 -32.5t-144 32.5zM395.5 150.5q31.5 38.5 31.5 95.5q0 52 -32 91t-93 39q-60 0 -92 -39
t-32 -91q0 -56 31 -95t93 -39t93.5 38.5z" />
    <glyph glyph-name="oslash" unicode="&#xf8;" horiz-adv-x="605" 
d="M218 -6l-29 -49h-126l56 96q-42 35 -64.5 87t-22.5 118q0 74 33.5 133t95 92.5t141.5 33.5q43 0 84 -11l33 57h126l-62 -106q43 -35 66.5 -86.5t23.5 -112.5q0 -79 -33 -138t-94 -91.5t-144 -32.5q-42 0 -84 10zM195 171l120 204q-4 1 -13 1q-60 0 -92 -39t-32 -91
q0 -44 17 -75zM395.5 150.5q31.5 38.5 31.5 95.5q0 37 -19 72l-121 -206h15q62 0 93.5 38.5z" />
    <glyph glyph-name="oslashacute" unicode="&#x1ff;" horiz-adv-x="605" 
d="M363 577h-113v6l66 126h151v-5zM218 -6l-29 -49h-126l56 96q-42 35 -64.5 87t-22.5 118q0 74 33.5 133t95 92.5t141.5 33.5q43 0 84 -11l33 57h126l-62 -106q43 -35 66.5 -86.5t23.5 -112.5q0 -79 -33 -138t-94 -91.5t-144 -32.5q-42 0 -84 10zM195 171l120 204
q-4 1 -13 1q-60 0 -92 -39t-32 -91q0 -44 17 -75zM395.5 150.5q31.5 38.5 31.5 95.5q0 37 -19 72l-121 -206h15q62 0 93.5 38.5z" />
    <glyph glyph-name="otilde" unicode="&#xf5;" horiz-adv-x="605" 
d="M232 719q17 0 32 -4q12 -4 21.5 -8l16.5 -7q34 -16 48 -16q25 0 37 32l89 -44q-41 -97 -103 -97q-13 0 -36 7q-16 5 -39 16q-3 1 -20.5 8.5t-30.5 7.5q-27 0 -43 -39l-85 50q42 94 113 94zM158 16.5q-61 32.5 -93.5 91.5t-32.5 138q0 74 33.5 133t95 92.5t141.5 33.5
q81 0 142.5 -33.5t95 -92.5t33.5 -133q0 -79 -33 -138t-94 -91.5t-144 -32.5t-144 32.5zM395.5 150.5q31.5 38.5 31.5 95.5q0 52 -32 91t-93 39q-60 0 -92 -39t-32 -91q0 -56 31 -95t93 -39t93.5 38.5z" />
    <glyph glyph-name="oe" unicode="&#x153;" horiz-adv-x="956" 
d="M158.5 22q-61.5 33 -94 91t-32.5 133q0 74 33.5 133.5t95 93t141.5 33.5q60 0 109 -24t79 -67q30 43 78 67.5t107 24.5q115 0 183.5 -62.5t68.5 -178.5q0 -37 -5 -67h-366q5 -38 41.5 -62.5t95.5 -24.5q35 0 69.5 9t58.5 30l81 -90q-38 -37 -95 -55.5t-117 -18.5
q-66 0 -116 25t-82 69q-30 -43 -79 -67.5t-111 -24.5q-82 0 -143.5 33zM760 363q-34 21 -82 21q-44 0 -77.5 -21.5t-44.5 -58.5h240q-2 38 -36 59zM397 156.5q33 38.5 33 89.5q0 33 -14.5 62.5t-43.5 48.5t-70 19q-60 0 -92 -39t-32 -91q0 -51 31.5 -89.5t92.5 -38.5
q62 0 95 38.5z" />
    <glyph glyph-name="p" unicode="p" horiz-adv-x="640" 
d="M190 493l9 -63q32 41 72 57.5t92 16.5q72 0 127.5 -32.5t86 -91t30.5 -134.5q0 -80 -31 -139t-87 -90.5t-128 -31.5q-44 0 -84.5 15t-70.5 48v-266h-145v711h129zM429 153q33 36 33 93q0 55 -32.5 91t-88.5 36q-55 0 -94 -31t-39 -96q0 -61 39.5 -95t93.5 -34q55 0 88 36
z" />
    <glyph glyph-name="thorn" unicode="&#xfe;" horiz-adv-x="639" 
d="M205 700v-259q22 31 64 47.5t81 16.5q115 0 185 -66.5t70 -192.5q0 -125 -68 -192t-181 -67q-40 0 -83 15t-68 51v-259h-144v906h144zM427 159q35 33 35 87t-35 87t-87 33q-32 0 -60 -17t-45 -44.5t-17 -58.5q0 -32 16.5 -59.5t45 -44t60.5 -16.5q52 0 87 33z" />
    <glyph glyph-name="q" unicode="q" horiz-adv-x="640" 
d="M363 1q-41 -16 -84 -16q-72 0 -128 32t-87 91.5t-31 137.5q0 76 30.5 134.5t86 91t127.5 32.5q52 0 91.5 -16t72.5 -58l9 63h129v-711h-145v271q-30 -36 -71 -52zM363.5 132.5q30.5 15.5 49.5 44.5t19 69q0 65 -39 96.5t-94 31.5q-56 0 -88.5 -36.5t-32.5 -91.5
q0 -57 33 -93t88 -36q34 0 64.5 15.5z" />
    <glyph glyph-name="r" unicode="r" horiz-adv-x="454" 
d="M262.5 489.5q32.5 15.5 75.5 15.5q70 0 121 -45l-60 -114q-34 25 -79 25q-49 0 -82 -30.5t-33 -83.5v-257h-144v493h134l11 -54q24 35 56.5 50.5z" />
    <glyph glyph-name="racute" unicode="&#x155;" horiz-adv-x="454" 
d="M274 574h-112v6l66 124h149v-5zM262.5 489.5q32.5 15.5 75.5 15.5q70 0 121 -45l-60 -114q-34 25 -79 25q-49 0 -82 -30.5t-33 -83.5v-257h-144v493h134l11 -54q24 35 56.5 50.5z" />
    <glyph glyph-name="rcaron" unicode="&#x159;" horiz-adv-x="454" 
d="M210 703l42 -36l44 36h127v-5l-140 -126h-68l-135 126v5h130zM262.5 489.5q32.5 15.5 75.5 15.5q70 0 121 -45l-60 -114q-34 25 -79 25q-49 0 -82 -30.5t-33 -83.5v-257h-144v493h134l11 -54q24 35 56.5 50.5z" />
    <glyph glyph-name="rcommaaccent" unicode="&#x157;" horiz-adv-x="454" 
d="M262.5 489.5q32.5 15.5 75.5 15.5q70 0 121 -45l-60 -114q-34 25 -79 25q-49 0 -82 -30.5t-33 -83.5v-257h-144v493h134l11 -54q24 35 56.5 50.5zM204 -170.5q-6 -23.5 -19 -59.5q-3 -9 -9 -25t-9 -29h-75l15 101q-24 4 -38.5 18.5t-14.5 38.5q0 35 22.5 54.5t54.5 19.5
t55.5 -19.5t23.5 -52.5q0 -23 -6 -46.5z" />
    <glyph glyph-name="s" unicode="s" horiz-adv-x="497" 
d="M316.5 380q-27.5 8 -61.5 8t-52.5 -11t-18.5 -29q0 -42 73 -43q94 -3 154.5 -35.5t60.5 -123.5q0 -42 -22.5 -79t-71 -61t-122.5 -24q-62 0 -118 18t-114 66l62 100q76 -60 176 -60q31 0 51 11.5t19 28.5q0 19 -18.5 30.5t-65.5 13.5q-83 3 -145 41t-62 117
q0 77 62 117.5t151 40.5q58 0 104.5 -15.5t84.5 -48.5l-71 -89q-28 19 -55.5 27z" />
    <glyph glyph-name="sacute" unicode="&#x15b;" horiz-adv-x="497" 
d="M296 572h-116v6l68 129h155v-6zM316.5 380q-27.5 8 -61.5 8t-52.5 -11t-18.5 -29q0 -42 73 -43q94 -3 154.5 -35.5t60.5 -123.5q0 -42 -22.5 -79t-71 -61t-122.5 -24q-62 0 -118 18t-114 66l62 100q76 -60 176 -60q31 0 51 11.5t19 28.5q0 19 -18.5 30.5t-65.5 13.5
q-83 3 -145 41t-62 117q0 77 62 117.5t151 40.5q58 0 104.5 -15.5t84.5 -48.5l-71 -89q-28 19 -55.5 27z" />
    <glyph glyph-name="scaron" unicode="&#x161;" horiz-adv-x="497" 
d="M219 703l43 -38l46 38h130v-5l-144 -134h-70l-140 134v5h135zM316.5 380q-27.5 8 -61.5 8t-52.5 -11t-18.5 -29q0 -42 73 -43q94 -3 154.5 -35.5t60.5 -123.5q0 -42 -22.5 -79t-71 -61t-122.5 -24q-62 0 -118 18t-114 66l62 100q76 -60 176 -60q31 0 51 11.5t19 28.5
q0 19 -18.5 30.5t-65.5 13.5q-83 3 -145 41t-62 117q0 77 62 117.5t151 40.5q58 0 104.5 -15.5t84.5 -48.5l-71 -89q-28 19 -55.5 27z" />
    <glyph glyph-name="scedilla" unicode="&#x15f;" horiz-adv-x="497" 
d="M316.5 380q-27.5 8 -61.5 8t-52.5 -11t-18.5 -29q0 -42 73 -43q94 -3 154.5 -35.5t60.5 -123.5q0 -58 -42 -104.5t-127 -56.5l-11 -34q47 0 77.5 -23.5t30.5 -63.5q0 -55 -43.5 -87t-102.5 -32q-39 0 -73.5 17t-55.5 48l58 45q10 -12 30 -20.5t40 -8.5q15 0 27 6.5
t17 19.5q6 17 -11 30t-39 13q-19 0 -31 -12l-34 26l29 75q-101 10 -187 82l62 100q76 -60 176 -60q31 0 51 11.5t19 28.5q0 19 -18.5 30.5t-65.5 13.5q-83 3 -145 41t-62 117q0 77 62 117.5t151 40.5q58 0 104.5 -15.5t84.5 -48.5l-71 -89q-28 19 -55.5 27z" />
    <glyph glyph-name="scircumflex" unicode="&#x15d;" horiz-adv-x="497" 
d="M419 576v-5h-127l-42 41l-42 -41h-127v5l135 136h68zM316.5 380q-27.5 8 -61.5 8t-52.5 -11t-18.5 -29q0 -42 73 -43q94 -3 154.5 -35.5t60.5 -123.5q0 -42 -22.5 -79t-71 -61t-122.5 -24q-62 0 -118 18t-114 66l62 100q76 -60 176 -60q31 0 51 11.5t19 28.5
q0 19 -18.5 30.5t-65.5 13.5q-83 3 -145 41t-62 117q0 77 62 117.5t151 40.5q58 0 104.5 -15.5t84.5 -48.5l-71 -89q-28 19 -55.5 27z" />
    <glyph glyph-name="scommaaccent" unicode="&#x219;" horiz-adv-x="497" 
d="M316.5 380q-27.5 8 -61.5 8t-52.5 -11t-18.5 -29q0 -42 73 -43q94 -3 154.5 -35.5t60.5 -123.5q0 -42 -22.5 -79t-71 -61t-122.5 -24q-62 0 -118 18t-114 66l62 100q76 -60 176 -60q31 0 51 11.5t19 28.5q0 19 -18.5 30.5t-65.5 13.5q-83 3 -145 41t-62 117
q0 77 62 117.5t151 40.5q58 0 104.5 -15.5t84.5 -48.5l-71 -89q-28 19 -55.5 27zM322.5 -174q-6.5 -23 -19.5 -55q-3 -10 -7.5 -21t-8.5 -25h-73l15 92q-24 3 -37.5 16t-13.5 36q0 32 22 49t53 17t53.5 -17.5t22.5 -47.5q0 -21 -6.5 -44z" />
    <glyph glyph-name="germandbls" unicode="&#xdf;" horiz-adv-x="632" 
d="M269 118q34 -7 63 -7q66 0 91 32.5t25 74.5q0 56 -38 82t-95 26h-44v137h33q46 0 70.5 14.5t24.5 40.5q0 29 -25.5 45.5t-61.5 16.5q-38 0 -67 -18t-30 -51v-511h-154v513q0 62 36 107t93.5 68t122.5 23q62 0 116.5 -21.5t88 -64.5t33.5 -104q0 -43 -25.5 -79.5
t-77.5 -47.5q73 -15 112.5 -63.5t39.5 -110.5q0 -119 -64.5 -174.5t-171.5 -55.5q-46 0 -94 9z" />
    <glyph glyph-name="longs" unicode="&#x17f;" horiz-adv-x="337" 
d="M23 359v126h89v29q0 68 28.5 113t74 66.5t97.5 21.5q37 0 68 -7.5t61 -26.5l-51 -108q-18 13 -31.5 16t-35.5 3q-29 0 -48 -20t-19 -58v-514h-144v359h-89z" />
    <glyph glyph-name="t" unicode="t" horiz-adv-x="419" 
d="M382 491v-120h-126v-190q0 -36 16 -51t40 -15q14 0 31.5 3t28.5 9l33 -120q-25 -10 -48 -14.5t-56 -7.5q-188 -9 -188 196v190h-88v120h88v122l144 16v-138h125z" />
    <glyph glyph-name="tbar" unicode="&#x167;" horiz-adv-x="420" 
d="M383 491v-120h-126v-76h96v-91h-96v-23q0 -36 16 -51t40 -15q14 0 31.5 3t28.5 9l33 -120q-25 -10 -48 -14.5t-56 -7.5q-188 -9 -188 196v23h-69v91h69v76h-88v120h88v122l144 16v-138h125z" />
    <glyph glyph-name="tcaron" unicode="&#x165;" horiz-adv-x="496" 
d="M553 634l-75 -216h-100l44 216h131zM347 491v-120h-96v-186q0 -35 18 -50.5t43 -15.5q14 0 31.5 3t28.5 9l33 -120q-25 -10 -48 -14.5t-56 -7.5q-88 -4 -140.5 41.5t-52.5 154.5v186h-83v120h83v122l144 16v-138h95z" />
    <glyph glyph-name="u" unicode="u" horiz-adv-x="616" 
d="M301 112q49 0 80.5 35.5t31.5 85.5v261h142v-495h-130l-5 60q-30 -41 -69 -58t-86 -17q-97 0 -154 53.5t-57 188.5v268h145v-267q0 -115 102 -115z" />
    <glyph glyph-name="uacute" unicode="&#xfa;" horiz-adv-x="616" 
d="M352 563h-126v7l74 140h168v-6zM301 112q49 0 80.5 35.5t31.5 85.5v261h142v-495h-130l-5 60q-30 -41 -69 -58t-86 -17q-97 0 -154 53.5t-57 188.5v268h145v-267q0 -115 102 -115z" />
    <glyph glyph-name="ubreve" unicode="&#x16d;" horiz-adv-x="616" 
d="M429 605q-45 -39 -114 -39q-41 0 -78 14.5t-60.5 42.5t-23.5 68q0 11 1 16h116q0 -22 14.5 -31t30.5 -9t29 8.5t13 31.5h115q2 -63 -43 -102zM301 112q49 0 80.5 35.5t31.5 85.5v261h142v-495h-130l-5 60q-30 -41 -69 -58t-86 -17q-97 0 -154 53.5t-57 188.5v268h145
v-267q0 -115 102 -115z" />
    <glyph glyph-name="ucircumflex" unicode="&#xfb;" horiz-adv-x="616" 
d="M489 572v-5h-140l-47 42l-46 -42h-141v5l150 140h75zM301 112q49 0 80.5 35.5t31.5 85.5v261h142v-495h-130l-5 60q-30 -41 -69 -58t-86 -17q-97 0 -154 53.5t-57 188.5v268h145v-267q0 -115 102 -115z" />
    <glyph glyph-name="udieresis" unicode="&#xfc;" horiz-adv-x="616" 
d="M119 698q24 20 56 20q33 0 56.5 -20t23.5 -55t-24 -54.5t-56 -19.5t-56 19.5t-24 54.5t24 55zM380 698q24 20 56 20t55.5 -20t23.5 -55t-23.5 -54.5t-55.5 -19.5t-56 19.5t-24 54.5t24 55zM301 112q49 0 80.5 35.5t31.5 85.5v261h142v-495h-130l-5 60q-30 -41 -69 -58
t-86 -17q-97 0 -154 53.5t-57 188.5v268h145v-267q0 -115 102 -115z" />
    <glyph glyph-name="ugrave" unicode="&#xf9;" horiz-adv-x="616" 
d="M309 706l74 -140v-7h-126l-116 141v6h168zM301 112q49 0 80.5 35.5t31.5 85.5v261h142v-495h-130l-5 60q-30 -41 -69 -58t-86 -17q-97 0 -154 53.5t-57 188.5v268h145v-267q0 -115 102 -115z" />
    <glyph glyph-name="uhungarumlaut" unicode="&#x171;" horiz-adv-x="616" 
d="M367 697l-100 -126h-128l87 131h141v-5zM553 697l-113 -127h-123l95 131h141v-4zM301 112q49 0 80.5 35.5t31.5 85.5v261h142v-495h-130l-5 60q-30 -41 -69 -58t-86 -17q-97 0 -154 53.5t-57 188.5v268h145v-267q0 -115 102 -115z" />
    <glyph glyph-name="umacron" unicode="&#x16b;" horiz-adv-x="616" 
d="M464 710v-118h-319v118h319zM301 112q49 0 80.5 35.5t31.5 85.5v261h142v-495h-130l-5 60q-30 -41 -69 -58t-86 -17q-97 0 -154 53.5t-57 188.5v268h145v-267q0 -115 102 -115z" />
    <glyph glyph-name="uni0163" unicode="&#x163;" horiz-adv-x="421" 
d="M382 491v-120h-126v-190q0 -36 16 -51t40 -15q14 0 31.5 3t28.5 9l33 -120q-25 -10 -48 -14.5t-56 -7.5h-6l-9 -26q56 -3 82.5 -31.5t26.5 -64.5q0 -7 -2 -17q-10 -50 -50.5 -76t-93.5 -26q-43 0 -81 17t-58 46l55 56q14 -14 34 -21.5t40 -7.5q19 0 32 6.5t16 18.5
q4 21 -16.5 35.5t-49.5 14.5q-18 0 -33 -6l-20 11l32 87q-87 41 -87 180v190h-88v120h88v122l144 16v-138h125z" />
    <glyph glyph-name="uni021B" unicode="&#x21b;" horiz-adv-x="419" 
d="M382 491v-120h-126v-190q0 -36 16 -51t40 -15q14 0 31.5 3t28.5 9l33 -120q-25 -10 -48 -14.5t-56 -7.5q-188 -9 -188 196v190h-88v120h88v122l144 16v-138h125zM318 -178.5q-7 -25.5 -22 -68.5l-15 -45h-76l15 103q-25 4 -39.5 19t-14.5 39q0 36 23 55.5t56 19.5
q32 0 56 -19.5t24 -53.5q0 -24 -7 -49.5z" />
    <glyph glyph-name="uogonek" unicode="&#x173;" horiz-adv-x="615" 
d="M301 112q49 0 80.5 35.5t31.5 85.5v261h142v-563q-8 2 -15 2q-29 0 -56.5 -15t-27.5 -40q0 -3 2 -13q4 -13 17 -21.5t31 -8.5q36 0 69 32l45 -61q-23 -31 -60.5 -48t-78.5 -17q-43 0 -79 20t-53 57q-10 21 -10 47q0 38 23 71t64 49l-6 74q-30 -41 -69 -58t-86 -17
q-97 0 -154 53.5t-57 188.5v268h145v-267q0 -115 102 -115z" />
    <glyph glyph-name="uring" unicode="&#x16f;" horiz-adv-x="616" 
d="M223 740q38 25 92 25q50 0 86.5 -26t36.5 -79q0 -48 -37.5 -75.5t-85.5 -27.5q-52 0 -91 25.5t-39 77.5q0 55 38 80zM274.5 691.5q-13.5 -12.5 -13.5 -29.5t13.5 -30t37.5 -13t37.5 12t13.5 29q0 18 -13.5 31t-37.5 13t-37.5 -12.5zM301 112q49 0 80.5 35.5t31.5 85.5
v261h142v-495h-130l-5 60q-30 -41 -69 -58t-86 -17q-97 0 -154 53.5t-57 188.5v268h145v-267q0 -115 102 -115z" />
    <glyph glyph-name="utilde" unicode="&#x169;" horiz-adv-x="616" 
d="M173.5 691.5q26.5 25.5 63.5 25.5q16 0 31 -4q15 -5 35 -15q32 -17 49 -17q24 0 36 33l86 -45q-40 -100 -100 -100q-18 0 -35 7q-18 6 -40 17q-3 1 -19.5 8.5t-28.5 7.5q-26 0 -42 -40l-83 51q21 46 47.5 71.5zM301 112q49 0 80.5 35.5t31.5 85.5v261h142v-495h-130
l-5 60q-30 -41 -69 -58t-86 -17q-97 0 -154 53.5t-57 188.5v268h145v-267q0 -115 102 -115z" />
    <glyph glyph-name="v" unicode="v" horiz-adv-x="590" 
d="M353 313l71 181h162l-212 -497h-158l-212 497h162l71 -181l58 -163z" />
    <glyph glyph-name="w" unicode="w" horiz-adv-x="845" 
d="M574 179l32 112l69 203h161l-183 -497h-143l-88 247l-87 -247h-144l-182 497h161l69 -203l32 -112l95 315h113z" />
    <glyph glyph-name="wacute" unicode="&#x1e83;" horiz-adv-x="845" 
d="M468 569h-125v6l74 126h167v-6zM574 179l32 112l69 203h161l-183 -497h-143l-88 247l-87 -247h-144l-182 497h161l69 -203l32 -112l95 315h113z" />
    <glyph glyph-name="wcircumflex" unicode="&#x175;" horiz-adv-x="845" 
d="M616 579v-5h-143l-47 42l-47 -42h-143v5l152 139h76zM574 179l32 112l69 203h161l-183 -497h-143l-88 247l-87 -247h-144l-182 497h161l69 -203l32 -112l95 315h113z" />
    <glyph glyph-name="wdieresis" unicode="&#x1e85;" horiz-adv-x="845" 
d="M249 688.5q22 19.5 52 19.5q29 0 51 -19.5t22 -54.5q0 -34 -22 -53.5t-51 -19.5q-30 0 -52 19.5t-22 53.5q0 35 22 54.5zM490 688.5q22 19.5 52 19.5t52 -19.5t22 -54.5q0 -34 -22 -53.5t-52 -19.5t-52 19.5t-22 53.5q0 35 22 54.5zM574 179l32 112l69 203h161l-183 -497
h-143l-88 247l-87 -247h-144l-182 497h161l69 -203l32 -112l95 315h113z" />
    <glyph glyph-name="wgrave" unicode="&#x1e81;" horiz-adv-x="845" 
d="M423 699l72 -123v-6h-123l-114 123v6h165zM574 179l32 112l69 203h161l-183 -497h-143l-88 247l-87 -247h-144l-182 497h161l69 -203l32 -112l95 315h113z" />
    <glyph glyph-name="x" unicode="x" horiz-adv-x="542" 
d="M525 493v-5l-157 -240l166 -245v-3h-172l-91 148l-90 -148h-173v3l167 245l-158 240v5h172l82 -147l82 147h172z" />
    <glyph glyph-name="y" unicode="y" horiz-adv-x="573" 
d="M265 -222h-157l102 237l-207 479h162l123 -311l121 311h159z" />
    <glyph glyph-name="yacute" unicode="&#xfd;" horiz-adv-x="573" 
d="M325 561h-126v7l74 140h168v-6zM265 -222h-157l102 237l-207 479h162l123 -311l121 311h159z" />
    <glyph glyph-name="ycircumflex" unicode="&#x177;" horiz-adv-x="573" 
d="M496 577v-5h-156l-52 43l-51 -43h-157v5l167 146h83zM265 -222h-157l102 237l-207 479h162l123 -311l121 311h159z" />
    <glyph glyph-name="ydieresis" unicode="&#xff;" horiz-adv-x="573" 
d="M105.5 706.5q23.5 20.5 56.5 20.5q32 0 55.5 -21t23.5 -58t-23.5 -57.5t-55.5 -20.5t-56 20.5t-24 57.5q0 38 23.5 58.5zM365.5 706.5q23.5 20.5 56.5 20.5q32 0 55.5 -21t23.5 -58t-23.5 -57.5t-55.5 -20.5q-33 0 -56.5 20.5t-23.5 57.5q0 38 23.5 58.5zM265 -222h-157
l102 237l-207 479h162l123 -311l121 311h159z" />
    <glyph glyph-name="ygrave" unicode="&#x1ef3;" horiz-adv-x="573" 
d="M290 698l74 -132v-7h-127l-116 133v6h169zM265 -222h-157l102 237l-207 479h162l123 -311l121 311h159z" />
    <glyph glyph-name="z" unicode="z" horiz-adv-x="479" 
d="M434 424l-207 -291h217v-133h-417v61l217 308h-198v125h388v-70z" />
    <glyph glyph-name="zacute" unicode="&#x17a;" horiz-adv-x="479" 
d="M299 570h-117v6l69 122h156v-5zM434 424l-207 -291h217v-133h-417v61l217 308h-198v125h388v-70z" />
    <glyph glyph-name="zcaron" unicode="&#x17e;" horiz-adv-x="479" 
d="M209 697l43 -36l46 36h131v-6l-145 -126h-71l-141 126v6h137zM434 424l-207 -291h217v-133h-417v61l217 308h-198v125h388v-70z" />
    <glyph glyph-name="zdotaccent" unicode="&#x17c;" horiz-adv-x="479" 
d="M199.5 700.5q25.5 18.5 59.5 18.5q35 0 60 -18.5t25 -51.5t-25 -51.5t-60 -18.5q-34 0 -59.5 18.5t-25.5 51.5t25.5 51.5zM434 424l-207 -291h217v-133h-417v61l217 308h-198v125h388v-70z" />
    <glyph glyph-name="a.alt" horiz-adv-x="559" 
d="M434.5 465.5q68.5 -42.5 68.5 -153.5v-312h-122l-11 49q-32 -32 -70.5 -43.5t-82.5 -11.5q-81 0 -135.5 42t-54.5 125q0 52 28 89t74 56t99 19q29 0 68 -8.5t65 -23.5v19q0 41 -34.5 57t-83.5 16q-39 0 -83 -10.5t-74 -22.5l-21 111q44 21 90.5 33t87.5 12
q123 0 191.5 -42.5zM193.5 122q22.5 -12 58.5 -12t67 17t41 56q-17 14 -43 21.5t-51 7.5q-95 0 -95 -51q0 -27 22.5 -39z" />
    <glyph glyph-name="aacute.alt" horiz-adv-x="559" 
d="M325 572h-127v7l65 133h169v-7zM434.5 465.5q68.5 -42.5 68.5 -153.5v-312h-122l-11 49q-32 -32 -70.5 -43.5t-82.5 -11.5q-81 0 -135.5 42t-54.5 125q0 52 28 89t74 56t99 19q29 0 68 -8.5t65 -23.5v19q0 41 -34.5 57t-83.5 16q-39 0 -83 -10.5t-74 -22.5l-21 111
q44 21 90.5 33t87.5 12q123 0 191.5 -42.5zM193.5 122q22.5 -12 58.5 -12t67 17t41 56q-17 14 -43 21.5t-51 7.5q-95 0 -95 -51q0 -27 22.5 -39z" />
    <glyph glyph-name="abreve.alt" horiz-adv-x="559" 
d="M417 631.5q-21 -34.5 -58 -53t-80 -18.5q-41 0 -79 15.5t-61.5 45.5t-23.5 73q0 11 1 17h117q0 -24 14.5 -35t28.5 -11t29 11t15 35h116q2 -45 -19 -79.5zM434.5 465.5q68.5 -42.5 68.5 -153.5v-312h-122l-11 49q-32 -32 -70.5 -43.5t-82.5 -11.5q-81 0 -135.5 42
t-54.5 125q0 52 28 89t74 56t99 19q29 0 68 -8.5t65 -23.5v19q0 41 -34.5 57t-83.5 16q-39 0 -83 -10.5t-74 -22.5l-21 111q44 21 90.5 33t87.5 12q123 0 191.5 -42.5zM193.5 122q22.5 -12 58.5 -12t67 17t41 56q-17 14 -43 21.5t-51 7.5q-95 0 -95 -51q0 -27 22.5 -39z" />
    <glyph glyph-name="acircumflex.alt" horiz-adv-x="559" 
d="M467 578v-6h-146l-44 45l-42 -45h-146v6l151 138h76zM434.5 465.5q68.5 -42.5 68.5 -153.5v-312h-122l-11 49q-32 -32 -70.5 -43.5t-82.5 -11.5q-81 0 -135.5 42t-54.5 125q0 52 28 89t74 56t99 19q29 0 68 -8.5t65 -23.5v19q0 41 -34.5 57t-83.5 16q-39 0 -83 -10.5
t-74 -22.5l-21 111q44 21 90.5 33t87.5 12q123 0 191.5 -42.5zM193.5 122q22.5 -12 58.5 -12t67 17t41 56q-17 14 -43 21.5t-51 7.5q-95 0 -95 -51q0 -27 22.5 -39z" />
    <glyph glyph-name="adieresis.alt" horiz-adv-x="559" 
d="M113.5 702q23.5 21 55.5 21t55.5 -20.5t23.5 -58.5q0 -37 -23.5 -57.5t-55.5 -20.5t-55.5 20.5t-23.5 57.5t23.5 58zM347.5 702q23.5 21 55.5 21t55.5 -20.5t23.5 -58.5q0 -37 -23.5 -57.5t-55.5 -20.5t-55.5 20.5t-23.5 57.5t23.5 58zM434.5 465.5
q68.5 -42.5 68.5 -153.5v-312h-122l-11 49q-32 -32 -70.5 -43.5t-82.5 -11.5q-81 0 -135.5 42t-54.5 125q0 52 28 89t74 56t99 19q29 0 68 -8.5t65 -23.5v19q0 41 -34.5 57t-83.5 16q-39 0 -83 -10.5t-74 -22.5l-21 111q44 21 90.5 33t87.5 12q123 0 191.5 -42.5zM193.5 122
q22.5 -12 58.5 -12t67 17t41 56q-17 14 -43 21.5t-51 7.5q-95 0 -95 -51q0 -27 22.5 -39z" />
    <glyph glyph-name="agrave.alt" horiz-adv-x="559" 
d="M294 712l64 -133v-7h-126l-107 133v7h169zM434.5 465.5q68.5 -42.5 68.5 -153.5v-312h-122l-11 49q-32 -32 -70.5 -43.5t-82.5 -11.5q-81 0 -135.5 42t-54.5 125q0 52 28 89t74 56t99 19q29 0 68 -8.5t65 -23.5v19q0 41 -34.5 57t-83.5 16q-39 0 -83 -10.5t-74 -22.5
l-21 111q44 21 90.5 33t87.5 12q123 0 191.5 -42.5zM193.5 122q22.5 -12 58.5 -12t67 17t41 56q-17 14 -43 21.5t-51 7.5q-95 0 -95 -51q0 -27 22.5 -39z" />
    <glyph glyph-name="amacron.alt" horiz-adv-x="559" 
d="M461 710v-114h-355v114h355zM434.5 465.5q68.5 -42.5 68.5 -153.5v-312h-122l-11 49q-32 -32 -70.5 -43.5t-82.5 -11.5q-81 0 -135.5 42t-54.5 125q0 52 28 89t74 56t99 19q29 0 68 -8.5t65 -23.5v19q0 41 -34.5 57t-83.5 16q-39 0 -83 -10.5t-74 -22.5l-21 111
q44 21 90.5 33t87.5 12q123 0 191.5 -42.5zM193.5 122q22.5 -12 58.5 -12t67 17t41 56q-17 14 -43 21.5t-51 7.5q-95 0 -95 -51q0 -27 22.5 -39z" />
    <glyph glyph-name="aogonek.alt" horiz-adv-x="559" 
d="M434.5 465.5q68.5 -42.5 68.5 -153.5v-364q-10 2 -19 2q-32 0 -61.5 -13t-29.5 -35q0 -3 2 -11q4 -8 15.5 -13t24.5 -5q11 0 17 2q16 3 35 13l71 -56q-20 -29 -55 -45t-74 -16q-8 0 -24 2q-43 7 -75.5 28.5t-40.5 59.5q-2 10 -2 20q0 33 21.5 66t73.5 51l-12 51
q-32 -32 -70.5 -43.5t-82.5 -11.5q-81 0 -135.5 42t-54.5 125q0 52 28 89t74 56t99 19q29 0 68 -8.5t65 -23.5v19q0 41 -34.5 57t-83.5 16q-39 0 -83 -10.5t-74 -22.5l-21 111q44 21 90.5 33t87.5 12q123 0 191.5 -42.5zM193.5 122q22.5 -12 58.5 -12t67 17t41 56
q-17 14 -43 21.5t-51 7.5q-95 0 -95 -51q0 -27 22.5 -39z" />
    <glyph glyph-name="aring.alt" horiz-adv-x="559" 
d="M183.5 760q39.5 31 94.5 31q52 0 91.5 -31.5t39.5 -86.5q0 -36 -19.5 -62t-49.5 -39t-62 -13q-53 0 -93.5 30t-40.5 84q0 56 39.5 87zM235.5 706q-14.5 -13 -14.5 -31q0 -19 14 -32t40 -13t39.5 12.5t13.5 30.5t-14.5 32t-38.5 14q-25 0 -39.5 -13zM434.5 465.5
q68.5 -42.5 68.5 -153.5v-312h-122l-11 49q-32 -32 -70.5 -43.5t-82.5 -11.5q-81 0 -135.5 42t-54.5 125q0 52 28 89t74 56t99 19q29 0 68 -8.5t65 -23.5v19q0 41 -34.5 57t-83.5 16q-39 0 -83 -10.5t-74 -22.5l-21 111q44 21 90.5 33t87.5 12q123 0 191.5 -42.5zM193.5 122
q22.5 -12 58.5 -12t67 17t41 56q-17 14 -43 21.5t-51 7.5q-95 0 -95 -51q0 -27 22.5 -39z" />
    <glyph glyph-name="aringacute.alt" horiz-adv-x="559" 
d="M351 766h-125v5l73 99h167v-4zM196.5 715q37.5 28 87.5 28q49 0 86 -28t37 -77q0 -50 -37 -76.5t-85 -26.5q-51 0 -88.5 26.5t-37.5 76.5q0 49 37.5 77zM245.5 666.5q-13.5 -11.5 -13.5 -27.5t13.5 -28t36.5 -12q24 0 37 11t13 27t-13.5 28.5t-36.5 12.5t-36.5 -11.5z
M434.5 465.5q68.5 -42.5 68.5 -153.5v-312h-122l-11 49q-32 -32 -70.5 -43.5t-82.5 -11.5q-81 0 -135.5 42t-54.5 125q0 52 28 89t74 56t99 19q29 0 68 -8.5t65 -23.5v19q0 41 -34.5 57t-83.5 16q-39 0 -83 -10.5t-74 -22.5l-21 111q44 21 90.5 33t87.5 12
q123 0 191.5 -42.5zM193.5 122q22.5 -12 58.5 -12t67 17t41 56q-17 14 -43 21.5t-51 7.5q-95 0 -95 -51q0 -27 22.5 -39z" />
    <glyph glyph-name="atilde.alt" horiz-adv-x="559" 
d="M145 693q32 26 74 26q14 0 29 -3q11 -3 31 -13q4 -2 15 -7t20 -7q9 -3 16 -3q21 0 38 29l93 -46q-21 -49 -48.5 -72.5t-58.5 -23.5q-14 0 -26 4q-13 4 -39 16q-19 9 -31.5 13.5t-25.5 5.5q-15 -2 -26 -10t-25 -28l-88 50q20 43 52 69zM434.5 465.5
q68.5 -42.5 68.5 -153.5v-312h-122l-11 49q-32 -32 -70.5 -43.5t-82.5 -11.5q-81 0 -135.5 42t-54.5 125q0 52 28 89t74 56t99 19q29 0 68 -8.5t65 -23.5v19q0 41 -34.5 57t-83.5 16q-39 0 -83 -10.5t-74 -22.5l-21 111q44 21 90.5 33t87.5 12q123 0 191.5 -42.5zM193.5 122
q22.5 -12 58.5 -12t67 17t41 56q-17 14 -43 21.5t-51 7.5q-95 0 -95 -51q0 -27 22.5 -39z" />
    <glyph glyph-name="g.alt" horiz-adv-x="606" 
d="M298 -171q51 0 86.5 23.5t35.5 67.5q0 39 -28.5 62t-91.5 23q-80 0 -140.5 30.5t-93.5 86.5t-33 132q0 80 37 137t98 86t132 29q78 0 116 -27l54 70l104 -80l-63 -75q51 -62 51 -132q0 -59 -26 -107t-80 -76q71 -31 90.5 -74t19.5 -85q0 -70 -37.5 -119.5t-99 -74
t-131.5 -24.5q-128 0 -194 59.5t-64 167.5h134q7 -100 124 -100zM207.5 345q-35.5 -33 -35.5 -91q0 -53 36 -85.5t92 -32.5q52 0 88 31t36 87q0 52 -35.5 88t-88.5 36q-57 0 -92.5 -33z" />
    <glyph glyph-name="gbreve.alt" horiz-adv-x="606" 
d="M429 610.5q-47 -40.5 -120 -40.5q-69 0 -120 34t-51 96q0 11 1 16h122q0 -23 15.5 -32.5t32.5 -9.5t30.5 9t13.5 33h121q2 -65 -45 -105.5zM298 -171q51 0 86.5 23.5t35.5 67.5q0 39 -28.5 62t-91.5 23q-80 0 -140.5 30.5t-93.5 86.5t-33 132q0 80 37 137t98 86t132 29
q78 0 116 -27l54 70l104 -80l-63 -75q51 -62 51 -132q0 -59 -26 -107t-80 -76q71 -31 90.5 -74t19.5 -85q0 -70 -37.5 -119.5t-99 -74t-131.5 -24.5q-128 0 -194 59.5t-64 167.5h134q7 -100 124 -100zM207.5 345q-35.5 -33 -35.5 -91q0 -53 36 -85.5t92 -32.5q52 0 88 31
t36 87q0 52 -35.5 88t-88.5 36q-57 0 -92.5 -33z" />
    <glyph glyph-name="gcircumflex.alt" horiz-adv-x="606" 
d="M485 591v-5h-133l-45 41l-44 -41h-135v5l144 137h71zM298 -171q51 0 86.5 23.5t35.5 67.5q0 39 -28.5 62t-91.5 23q-80 0 -140.5 30.5t-93.5 86.5t-33 132q0 80 37 137t98 86t132 29q78 0 116 -27l54 70l104 -80l-63 -75q51 -62 51 -132q0 -59 -26 -107t-80 -76
q71 -31 90.5 -74t19.5 -85q0 -70 -37.5 -119.5t-99 -74t-131.5 -24.5q-128 0 -194 59.5t-64 167.5h134q7 -100 124 -100zM207.5 345q-35.5 -33 -35.5 -91q0 -53 36 -85.5t92 -32.5q52 0 88 31t36 87q0 52 -35.5 88t-88.5 36q-57 0 -92.5 -33z" />
    <glyph glyph-name="gcommaaccent.alt" horiz-adv-x="606" 
d="M226 694.5q8 24.5 24 61.5l18 46h81l-18 -97q26 -4 41.5 -17t15.5 -35q0 -38 -25 -59.5t-60 -21.5q-34 0 -59.5 20t-25.5 54q0 24 8 48.5zM298 -171q51 0 86.5 23.5t35.5 67.5q0 39 -28.5 62t-91.5 23q-80 0 -140.5 30.5t-93.5 86.5t-33 132q0 80 37 137t98 86t132 29
q78 0 116 -27l54 70l104 -80l-63 -75q51 -62 51 -132q0 -59 -26 -107t-80 -76q71 -31 90.5 -74t19.5 -85q0 -70 -37.5 -119.5t-99 -74t-131.5 -24.5q-128 0 -194 59.5t-64 167.5h134q7 -100 124 -100zM207.5 345q-35.5 -33 -35.5 -91q0 -53 36 -85.5t92 -32.5q52 0 88 31
t36 87q0 52 -35.5 88t-88.5 36q-57 0 -92.5 -33z" />
    <glyph glyph-name="gdotaccent.alt" horiz-adv-x="606" 
d="M238.5 711q26.5 21 62.5 21q37 0 63 -21t26 -59q0 -37 -26.5 -58t-62.5 -21t-62.5 21t-26.5 58q0 38 26.5 59zM298 -171q51 0 86.5 23.5t35.5 67.5q0 39 -28.5 62t-91.5 23q-80 0 -140.5 30.5t-93.5 86.5t-33 132q0 80 37 137t98 86t132 29q78 0 116 -27l54 70l104 -80
l-63 -75q51 -62 51 -132q0 -59 -26 -107t-80 -76q71 -31 90.5 -74t19.5 -85q0 -70 -37.5 -119.5t-99 -74t-131.5 -24.5q-128 0 -194 59.5t-64 167.5h134q7 -100 124 -100zM207.5 345q-35.5 -33 -35.5 -91q0 -53 36 -85.5t92 -32.5q52 0 88 31t36 87q0 52 -35.5 88t-88.5 36
q-57 0 -92.5 -33z" />
    <glyph glyph-name="y.alt" horiz-adv-x="614" 
d="M223 156q26 -34 75 -34t80.5 36.5t31.5 88.5v247h143v-508q0 -81 -34.5 -136t-89.5 -81.5t-116 -26.5q-101 0 -168.5 49t-81.5 149h139q9 -38 37 -52t70 -14t74.5 30t32.5 81v74q-23 -30 -47.5 -44.5t-50.5 -18.5t-67 -4q-57 0 -102 29.5t-70.5 86t-25.5 133.5v253h144
v-252q0 -52 26 -86z" />
    <glyph glyph-name="yacute.alt" horiz-adv-x="614" 
d="M350 551h-126v7l75 143h168v-6zM223 156q26 -34 75 -34t80.5 36.5t31.5 88.5v247h143v-508q0 -81 -34.5 -136t-89.5 -81.5t-116 -26.5q-101 0 -168.5 49t-81.5 149h139q9 -38 37 -52t70 -14t74.5 30t32.5 81v74q-23 -30 -47.5 -44.5t-50.5 -18.5t-67 -4q-57 0 -102 29.5
t-70.5 86t-25.5 133.5v253h144v-252q0 -52 26 -86z" />
    <glyph glyph-name="ycircumflex.alt" horiz-adv-x="614" 
d="M513 577v-5h-160l-48 45l-49 -45h-159v5l167 146h83zM223 156q26 -34 75 -34t80.5 36.5t31.5 88.5v247h143v-508q0 -81 -34.5 -136t-89.5 -81.5t-116 -26.5q-101 0 -168.5 49t-81.5 149h139q9 -38 37 -52t70 -14t74.5 30t32.5 81v74q-23 -30 -47.5 -44.5t-50.5 -18.5
t-67 -4q-57 0 -102 29.5t-70.5 86t-25.5 133.5v253h144v-252q0 -52 26 -86z" />
    <glyph glyph-name="ydieresis.alt" horiz-adv-x="614" 
d="M120 687q24 21 56 21t55.5 -21t23.5 -59q0 -37 -23.5 -58t-55.5 -21t-56 21t-24 58q0 38 24 59zM382 687q24 21 56 21t56 -21t24 -59q0 -37 -24 -58t-56 -21t-56 21t-24 58q0 38 24 59zM223 156q26 -34 75 -34t80.5 36.5t31.5 88.5v247h143v-508q0 -81 -34.5 -136
t-89.5 -81.5t-116 -26.5q-101 0 -168.5 49t-81.5 149h139q9 -38 37 -52t70 -14t74.5 30t32.5 81v74q-23 -30 -47.5 -44.5t-50.5 -18.5t-67 -4q-57 0 -102 29.5t-70.5 86t-25.5 133.5v253h144v-252q0 -52 26 -86z" />
    <glyph glyph-name="ygrave.alt" horiz-adv-x="614" 
d="M306 701l75 -143v-7h-127l-117 144v6h169zM223 156q26 -34 75 -34t80.5 36.5t31.5 88.5v247h143v-508q0 -81 -34.5 -136t-89.5 -81.5t-116 -26.5q-101 0 -168.5 49t-81.5 149h139q9 -38 37 -52t70 -14t74.5 30t32.5 81v74q-23 -30 -47.5 -44.5t-50.5 -18.5t-67 -4
q-57 0 -102 29.5t-70.5 86t-25.5 133.5v253h144v-252q0 -52 26 -86z" />
    <glyph glyph-name="ordfeminine" unicode="&#xaa;" horiz-adv-x="441" 
d="M398 377h-104l-4 47q-13 -27 -41.5 -41.5t-58.5 -14.5q-74 0 -120 43.5t-46 127.5q0 83 47 126.5t123 43.5q32 0 58 -13t38 -35l7 39h101v-323zM154.5 592.5q-20.5 -19.5 -20.5 -53.5q0 -35 20 -54t51 -19q33 0 51.5 22t18.5 51q0 30 -18.5 51.5t-51.5 21.5
q-30 0 -50.5 -19.5zM402 321v-98h-364v98h364z" />
    <glyph glyph-name="ordmasculine" unicode="&#xba;" horiz-adv-x="425" 
d="M80.5 410q-50.5 45 -50.5 129q0 83 50 126.5t132 43.5q83 0 132.5 -43t49.5 -127t-50 -129t-132 -45q-81 0 -131.5 45zM263.5 485q20.5 19 20.5 54q0 34 -20.5 53.5t-51.5 19.5t-51.5 -19.5t-20.5 -53.5q0 -35 20.5 -54t51.5 -19t51.5 19zM391 317v-99h-356v99h356z" />
    <glyph glyph-name="uni0394" unicode="&#x394;" horiz-adv-x="794" 
d="M9 0v36l298 664h170l300 -669v-31h-768zM569 135l-177 411l-178 -411h355z" />
    <glyph glyph-name="uni03A9" unicode="&#x3a9;" horiz-adv-x="826" 
d="M294.5 541q-48.5 -33 -72 -84t-23.5 -106q0 -67 36 -125.5t100 -86.5v-139h-253v133h79q-113 81 -113 233q0 98 48.5 178t132.5 125.5t184 45.5q101 0 184.5 -45.5t132 -125.5t48.5 -178q0 -68 -27 -129t-85 -104h78v-133h-253v139q66 29 102 89.5t34 130.5
q0 53 -24.5 102.5t-73 81t-116.5 31.5q-70 0 -118.5 -33z" />
    <glyph glyph-name="pi" unicode="&#x3c0;" horiz-adv-x="671" 
d="M22 367v126h614v-126h-98v-209q0 -26 10 -39t34 -13q12 0 34 5l14 -114q-42 -9 -78 -9q-76 0 -116.5 41t-40.5 127v211h-132v-367h-143v367h-98z" />
    <glyph glyph-name="zero" unicode="0" horiz-adv-x="723" 
d="M92 580q42 72 113 107t159 35q87 0 157 -36.5t110.5 -108.5t40.5 -175v-101q0 -103 -41.5 -175.5t-111 -109t-153.5 -36.5q-85 0 -157 35t-115.5 107.5t-43.5 177.5v102q0 106 42 178zM247.5 164q42.5 -46 113.5 -46t114 46t43 136v101q0 87 -42.5 133t-111.5 46
q-70 0 -114.5 -45t-44.5 -134v-101q0 -90 42.5 -136z" />
    <glyph glyph-name="one" unicode="1" horiz-adv-x="453" 
d="M170 128v378l-112 -35v136l259 93v-572h110v-128h-375v128h118z" />
    <glyph glyph-name="two" unicode="2" horiz-adv-x="675" 
d="M145 657q80 52 196 52q77 0 141 -24t102 -73.5t38 -122.5q0 -122 -74 -172.5t-206 -50.5q-62 0 -103 -18.5t-41 -76.5v-27h419v-144h-566v172q0 128 83 179t208 51q50 0 88.5 19t38.5 65q0 44 -33.5 67t-94.5 23q-52 0 -91 -22t-41 -62h-150q6 113 86 165z" />
    <glyph glyph-name="three" unicode="3" horiz-adv-x="681" 
d="M332 422q55 0 91.5 13t36.5 56q0 30 -27.5 54.5t-96.5 24.5q-51 0 -86 -14.5t-42 -53.5h-155q9 109 90 159.5t194 50.5q63 0 122.5 -18t101.5 -58.5t52 -103.5q3 -16 3 -33q0 -48 -24 -85t-68 -56q54 -23 81.5 -64.5t27.5 -95.5q0 -20 -2 -31q-16 -102 -101.5 -141.5
t-198.5 -39.5q-72 0 -136 23.5t-106 74.5t-47 129h157q6 -46 42.5 -67t90.5 -21q49 0 92.5 18t43.5 67q0 85 -126 85h-107v127h97z" />
    <glyph glyph-name="four" unicode="4" horiz-adv-x="684" 
d="M563 261h80v-135h-80v-127h-153v127h-373l-13 160l384 413h155v-438zM410 510l-226 -249h226v249z" />
    <glyph glyph-name="five" unicode="5" horiz-adv-x="658" 
d="M210 451h123q284 0 284 -228q0 -81 -41.5 -133t-105.5 -75.5t-133 -23.5q-131 0 -208.5 54t-77.5 171h154q0 -44 39.5 -65.5t90.5 -21.5q44 0 86 21t42 73t-40.5 73t-89.5 21h-268v382h513v-140h-368v-108z" />
    <glyph glyph-name="six" unicode="6" horiz-adv-x="695" 
d="M281 445.5q38 14.5 94 14.5q76 0 139 -26.5t100 -79.5t37 -129q0 -81 -41 -134.5t-108 -78t-146 -24.5q-78 0 -145.5 25t-109.5 79t-42 135v247q0 78 41 132.5t107.5 81t143.5 26.5q126 0 203.5 -50.5t83.5 -162.5h-146q-9 41 -48.5 60.5t-93.5 19.5q-56 0 -97.5 -29.5
t-41.5 -77.5v-78q32 35 70 49.5zM456 153q40 27 40 72q0 48 -37.5 75.5t-101.5 27.5t-104 -26t-40 -73q0 -49 39 -76t104 -27q60 0 100 27z" />
    <glyph glyph-name="seven" unicode="7" horiz-adv-x="560" 
d="M345 558h-314v142h515l5 -77l-292 -623h-175z" />
    <glyph glyph-name="eight" unicode="8" horiz-adv-x="709" 
d="M58.5 271.5q12.5 28.5 37.5 54t60 37.5q-44 24 -66 61t-22 84q0 66 37.5 113t102 71t144.5 24q123 0 200.5 -48.5t89.5 -140.5q1 -7 1 -19q0 -45 -24 -81.5t-66 -55.5q57 -22 83 -65.5t26 -84.5q1 -81 -40.5 -134.5t-112.5 -79t-157 -23.5q-84 0 -154 25t-112 78t-40 134
q0 22 12.5 50.5zM262.5 442q33.5 -25 91.5 -25q60 0 93 26t33 65q0 19 -14 38.5t-43 32t-71 12.5q-47 0 -75.5 -15t-40 -35.5t-9.5 -36.5q2 -37 35.5 -62zM250.5 277q-39.5 -23 -40.5 -64q0 -35 33 -63.5t111 -28.5q54 0 86.5 14.5t45.5 35.5t11 42q-1 40 -38 63.5
t-105 23.5q-64 0 -103.5 -23z" />
    <glyph glyph-name="nine" unicode="9" horiz-adv-x="700" 
d="M418 256.5q-38 -14.5 -94 -14.5q-77 0 -139.5 26.5t-99.5 79.5t-37 129q0 81 41 134.5t108 78t146 24.5q78 0 145.5 -25t109.5 -79t42 -135v-247q0 -84 -42.5 -137.5t-110 -78t-147.5 -24.5q-127 0 -206 50.5t-85 162.5h146q7 -40 49 -58.5t97 -18.5q61 0 104 25.5
t43 78.5v78q-32 -35 -70 -49.5zM243.5 549q-40.5 -27 -40.5 -72q0 -48 37.5 -75.5t101.5 -27.5q66 0 105.5 27t38.5 76q-2 47 -41 73t-102 26q-59 0 -99.5 -27z" />
    <glyph glyph-name="zero.denom" horiz-adv-x="410" 
d="M60 297q24 37 62.5 55.5t82.5 18.5t82.5 -18.5t62.5 -55.5t24 -89v-54q0 -53 -24 -91t-62.5 -57t-82.5 -19t-82.5 19t-62.5 57t-24 91v54q0 52 24 89zM155 100q21 -18 50 -18q28 0 49 18t21 51v56q0 34 -21 53t-49 19q-29 0 -50 -19t-21 -53v-56q0 -33 21 -51z" />
    <glyph glyph-name="one.denom" horiz-adv-x="285" 
d="M97 83v176l-52 -11v84l152 40v-289h64v-83h-226v83h62z" />
    <glyph glyph-name="two.denom" horiz-adv-x="378" 
d="M82 348.5q44 31.5 104 31.5q69 0 112 -31.5t43 -91.5q0 -41 -20 -65t-48.5 -35t-69.5 -20q-37 -9 -54.5 -17t-17.5 -24h207v-96h-302v96q0 40 19 63t45 33.5t66 20.5q38 8 55.5 17t17.5 27q0 17 -14.5 26t-35.5 9q-19 0 -34.5 -7.5t-18.5 -21.5h-98q0 54 44 85.5z" />
    <glyph glyph-name="three.denom" horiz-adv-x="384" 
d="M186 224q29 0 42.5 9.5t13.5 25.5t-16.5 25.5t-43.5 9.5q-21 0 -37 -8t-19 -22h-89q0 56 45.5 84.5t105.5 28.5q38 0 73 -13.5t58 -40.5t23 -65q0 -51 -48 -72q26 -8 41 -30.5t15 -50.5q0 -64 -47.5 -90.5t-113.5 -26.5q-38 0 -74.5 12.5t-60.5 39t-24 65.5h105
q4 -28 53 -28q23 0 40 9.5t17 27.5q0 16 -14.5 25.5t-40.5 9.5h-58v75h54z" />
    <glyph glyph-name="four.denom" horiz-adv-x="401" 
d="M320 146h45v-85h-45v-61h-100v61h-193l-4 86l167 223h130v-224zM125 146h95v127z" />
    <glyph glyph-name="five.denom" horiz-adv-x="376" 
d="M138 240h54q154 0 154 -123q0 -67 -44.5 -98.5t-104.5 -31.5q-70 0 -114 30.5t-44 93.5h101q3 -18 17 -28t33 -10q22 0 38 12t16 32t-15 30t-37 10h-148v213h278v-86h-184v-44z" />
    <glyph glyph-name="six.denom" horiz-adv-x="386" 
d="M234 287q-15 8 -35 8q-23 0 -40.5 -10t-17.5 -26v-40q32 20 76 20q55 0 95.5 -31.5t40.5 -89.5q0 -60 -47 -92t-110 -32t-109 33t-46 92v140q0 56 45.5 86.5t108.5 30.5q65 0 106 -28t43 -84h-94q-1 15 -16 23zM235 147q-16 10 -39 10t-39.5 -10t-15.5 -29q0 -18 16 -28
t38 -10q23 0 39.5 10t16.5 28q0 19 -16 29z" />
    <glyph glyph-name="seven.denom" horiz-adv-x="329" 
d="M184 278h-156v92h283l4 -41l-152 -329h-112z" />
    <glyph glyph-name="eight.denom" horiz-adv-x="394" 
d="M48 157q15 23 40 35q-19 9 -31.5 30t-12.5 40q0 56 42.5 87t109.5 31q66 0 110.5 -31t44.5 -86q0 -19 -11 -37.5t-34 -29.5q26 -12 40.5 -35.5t14.5 -46.5q0 -64 -47.5 -94.5t-117.5 -28.5q-71 0 -118 30t-45 94q0 19 15 42zM237 236q13 10 13 25t-14 26t-38 11
q-25 0 -39 -10.5t-14 -25.5t14 -25.5t40 -10.5q25 0 38 10zM149.5 86q14.5 -13 49.5 -13q33 0 48 13t14 28q0 16 -17.5 27.5t-43.5 11.5q-28 0 -46.5 -10.5t-18.5 -28.5q0 -15 14.5 -28z" />
    <glyph glyph-name="nine.denom" horiz-adv-x="387" 
d="M150.5 82q15.5 -8 36.5 -8q23 0 41 10t18 26v40q-32 -20 -76 -20q-55 0 -95.5 31.5t-40.5 89.5q0 60 47 92t110 32q62 0 108.5 -33.5t46.5 -91.5v-140q0 -57 -45.5 -88t-108.5 -31q-68 0 -110 27t-44 87h96q1 -15 16.5 -23zM152 222q16 -10 39 -10t39.5 10t15.5 29
q0 18 -16 28t-38 10q-23 0 -39.5 -10t-16.5 -28q0 -19 16 -29z" />
    <glyph glyph-name="zero.num" horiz-adv-x="410" 
d="M60 638q24 37 62.5 55.5t82.5 18.5t82.5 -18.5t62.5 -55.5t24 -89v-54q0 -53 -24 -91t-62.5 -57t-82.5 -19t-82.5 19t-62.5 57t-24 91v54q0 52 24 89zM155 441q21 -18 50 -18q28 0 49 18t21 51v56q0 34 -21 53t-49 19q-29 0 -50 -19t-21 -53v-56q0 -33 21 -51z" />
    <glyph glyph-name="one.num" horiz-adv-x="285" 
d="M97 423v176l-52 -11v84l152 40v-289h64v-83h-226v83h62z" />
    <glyph glyph-name="two.num" horiz-adv-x="376" 
d="M81 678.5q44 31.5 104 31.5q69 0 112 -31.5t43 -91.5q0 -41 -20 -65t-48.5 -35t-69.5 -20q-37 -9 -54.5 -17t-17.5 -24h207v-96h-302v96q0 40 19 63t45 33.5t66 20.5q38 8 55.5 17t17.5 27q0 17 -14.5 26t-35.5 9q-19 0 -34.5 -7.5t-18.5 -21.5h-98q0 54 44 85.5z" />
    <glyph glyph-name="three.num" horiz-adv-x="384" 
d="M186 559q29 0 42.5 9.5t13.5 25.5t-16.5 25.5t-43.5 9.5q-21 0 -37 -8t-19 -22h-89q0 56 45.5 84.5t105.5 28.5q38 0 73 -13.5t58 -40.5t23 -65q0 -51 -48 -72q26 -8 41 -30.5t15 -50.5q0 -64 -47.5 -90.5t-113.5 -26.5q-38 0 -74.5 12.5t-60.5 39t-24 65.5h105
q4 -28 53 -28q23 0 40 9.5t17 27.5q0 16 -14.5 25.5t-40.5 9.5h-58v75h54z" />
    <glyph glyph-name="four.num" horiz-adv-x="401" 
d="M320 480h45v-85h-45v-61h-100v61h-193l-4 86l167 223h130v-224zM125 480h95v127z" />
    <glyph glyph-name="five.num" horiz-adv-x="379" 
d="M141 571h54q154 0 154 -123q0 -67 -44.5 -98.5t-104.5 -31.5q-70 0 -114 30.5t-44 93.5h101q3 -18 17 -28t33 -10q22 0 38 12t16 32t-15 30t-37 10h-148v213h278v-86h-184v-44z" />
    <glyph glyph-name="six.num" horiz-adv-x="386" 
d="M234 623q-15 8 -35 8q-23 0 -40.5 -10t-17.5 -26v-40q32 20 76 20q55 0 95.5 -31.5t40.5 -89.5q0 -60 -47 -92t-110 -32t-109 33t-46 92v140q0 56 45.5 86.5t108.5 30.5q65 0 106 -28t43 -84h-94q-1 15 -16 23zM235 483q-16 10 -39 10t-39.5 -10t-15.5 -29q0 -18 16 -28
t38 -10q23 0 39.5 10t16.5 28q0 19 -16 29z" />
    <glyph glyph-name="seven.num" horiz-adv-x="329" 
d="M184 610h-156v92h283l4 -41l-152 -329h-112z" />
    <glyph glyph-name="eight.num" horiz-adv-x="394" 
d="M48 491q15 23 40 35q-19 9 -31.5 30t-12.5 40q0 56 42.5 87t109.5 31q66 0 110.5 -31t44.5 -86q0 -19 -11 -37.5t-34 -29.5q26 -12 40.5 -35.5t14.5 -46.5q0 -64 -47.5 -94.5t-117.5 -28.5q-71 0 -118 30t-45 94q0 19 15 42zM237 570q13 10 13 25t-14 26t-38 11
q-25 0 -39 -10.5t-14 -25.5t14 -25.5t40 -10.5q25 0 38 10zM149.5 420q14.5 -13 49.5 -13q33 0 48 13t14 28q0 16 -17.5 27.5t-43.5 11.5q-28 0 -46.5 -10.5t-18.5 -28.5q0 -15 14.5 -28z" />
    <glyph glyph-name="nine.num" horiz-adv-x="387" 
d="M150.5 417q15.5 -8 36.5 -8q23 0 41 10t18 26v40q-32 -20 -76 -20q-55 0 -95.5 31.5t-40.5 89.5q0 60 47 92t110 32q62 0 108.5 -33.5t46.5 -91.5v-140q0 -57 -45.5 -88t-108.5 -31q-68 0 -110 27t-44 87h96q1 -15 16.5 -23zM152 557q16 -10 39 -10t39.5 10t15.5 29
q0 18 -16 28t-38 10q-23 0 -39.5 -10t-16.5 -28q0 -19 16 -29z" />
    <glyph glyph-name="zero.tf" horiz-adv-x="711" 
d="M86 580q42 72 113 107t159 35q87 0 157 -36.5t110.5 -108.5t40.5 -175v-101q0 -103 -41.5 -175.5t-111 -109t-153.5 -36.5q-85 0 -157 35t-115.5 107.5t-43.5 177.5v102q0 106 42 178zM241.5 164q42.5 -46 113.5 -46t114 46t43 136v101q0 87 -42.5 133t-111.5 46
q-70 0 -114.5 -45t-44.5 -134v-101q0 -90 42.5 -136z" />
    <glyph glyph-name="one.tf" horiz-adv-x="711" 
d="M291 131v371l-161 -53v139l314 112v-569h182v-131h-515v131h180z" />
    <glyph glyph-name="two.tf" horiz-adv-x="711" 
d="M163 657q80 52 196 52q77 0 141 -24t102 -73.5t38 -122.5q0 -122 -74 -172.5t-206 -50.5q-62 0 -103 -18.5t-41 -76.5v-27h419v-144h-566v172q0 128 83 179t208 51q50 0 88.5 19t38.5 65q0 44 -33.5 67t-94.5 23q-52 0 -91 -22t-41 -62h-150q6 113 86 165z" />
    <glyph glyph-name="three.tf" horiz-adv-x="711" 
d="M348 422q55 0 93 13t38 56q0 30 -29 54.5t-98 24.5q-51 0 -86 -14.5t-42 -53.5h-155q9 109 90 159.5t194 50.5q63 0 122.5 -18t101.5 -58.5t52 -103.5q3 -16 3 -33q0 -48 -24 -85t-68 -56q53 -22 79.5 -63t26.5 -95q0 -22 -2 -33q-16 -102 -100.5 -141.5t-196.5 -39.5
q-72 0 -136 23.5t-106 74.5t-47 129h157q6 -46 42.5 -67t90.5 -21q50 0 94.5 18t44.5 67q0 32 -25.5 58.5t-103.5 26.5h-107v127h97z" />
    <glyph glyph-name="four.tf" horiz-adv-x="711" 
d="M576 261h80v-135h-80v-127h-153v127h-373l-13 160l384 413h155v-438zM423 510l-226 -249h226v249z" />
    <glyph glyph-name="five.tf" horiz-adv-x="711" 
d="M236 451h123q284 0 284 -228q0 -81 -41.5 -133t-105.5 -75.5t-133 -23.5q-131 0 -208.5 54t-77.5 171h154q0 -44 39.5 -65.5t90.5 -21.5q44 0 86 21t42 73t-40.5 73t-89.5 21h-268v382h513v-140h-368v-108z" />
    <glyph glyph-name="six.tf" horiz-adv-x="711" 
d="M289 445.5q38 14.5 94 14.5q76 0 139 -26.5t100 -79.5t37 -129q0 -81 -41 -134.5t-108 -78t-146 -24.5q-78 0 -145.5 25t-109.5 79t-42 135v247q0 78 41 132.5t107.5 81t143.5 26.5q126 0 203.5 -50.5t83.5 -162.5h-146q-9 41 -48.5 60.5t-93.5 19.5q-56 0 -97.5 -29.5
t-41.5 -77.5v-78q32 35 70 49.5zM464 153q40 27 40 72q0 48 -37.5 75.5t-101.5 27.5t-104 -26t-40 -73q0 -49 39 -76t104 -27q60 0 100 27z" />
    <glyph glyph-name="seven.tf" horiz-adv-x="711" 
d="M420 558h-314v142h515l5 -77l-292 -623h-175z" />
    <glyph glyph-name="eight.tf" horiz-adv-x="711" 
d="M59.5 271.5q12.5 28.5 37.5 54t60 37.5q-44 24 -66 61t-22 84q0 66 37.5 113t102 71t144.5 24q123 0 200.5 -48.5t89.5 -140.5q1 -7 1 -19q0 -45 -24 -81.5t-66 -55.5q57 -22 83 -65.5t26 -84.5q1 -81 -40.5 -134.5t-112.5 -79t-157 -23.5q-84 0 -154 25t-112 78t-40 134
q0 22 12.5 50.5zM263.5 442q33.5 -25 91.5 -25q60 0 93 26t33 65q0 19 -14 38t-43 31t-71 12q-47 0 -76 -14.5t-40 -34.5t-9 -36q2 -37 35.5 -62zM251.5 277q-39.5 -23 -40.5 -64q0 -35 33 -63.5t111 -28.5q54 0 86.5 14.5t45.5 35.5t11 42q-1 40 -38 63.5t-105 23.5
q-64 0 -103.5 -23z" />
    <glyph glyph-name="nine.tf" horiz-adv-x="711" 
d="M423 256.5q-38 -14.5 -94 -14.5q-77 0 -139.5 26.5t-99.5 79.5t-37 129q0 81 41 134.5t108 78t146 24.5q78 0 145.5 -25t109.5 -79t42 -135v-247q0 -84 -42.5 -137.5t-110 -78t-147.5 -24.5q-127 0 -206 50.5t-85 162.5h146q7 -40 49 -58.5t97 -18.5q61 0 104 25.5
t43 78.5v78q-32 -35 -70 -49.5zM248.5 549q-40.5 -27 -40.5 -72q0 -48 37.5 -75.5t101.5 -27.5q66 0 105.5 27t38.5 76q-2 47 -41 73t-102 26q-59 0 -99.5 -27z" />
    <glyph glyph-name="uni2080" unicode="&#x2080;" horiz-adv-x="410" 
d="M60 218q24 37 62.5 55.5t82.5 18.5t82.5 -18.5t62.5 -55.5t24 -89v-54q0 -53 -24 -91t-62 -57t-82 -19t-83 19t-63 57t-24 91v54q0 52 24 89zM155 21q21 -18 50 -18q28 0 49 18t21 51v56q0 34 -21 53t-49 19q-29 0 -50 -19t-21 -53v-56q0 -33 21 -51z" />
    <glyph glyph-name="uni2081" unicode="&#x2081;" horiz-adv-x="285" 
d="M97 0v176l-52 -11v84l152 40v-289h64v-83h-226v83h62z" />
    <glyph glyph-name="uni2082" unicode="&#x2082;" horiz-adv-x="377" 
d="M82 265.5q44 31.5 104 31.5q69 0 112 -31.5t43 -91.5q0 -40 -19.5 -64t-46 -35t-68.5 -21q-39 -10 -57.5 -19t-18.5 -28h207v-90h-302v96q0 40 19 63t45 33.5t66 20.5q38 8 55.5 17t17.5 27q0 17 -14.5 26t-35.5 9q-19 0 -34.5 -7.5t-18.5 -21.5h-98q0 54 44 85.5z" />
    <glyph glyph-name="uni2083" unicode="&#x2083;" horiz-adv-x="384" 
d="M186 147q29 0 42.5 9.5t13.5 25.5t-16.5 25.5t-43.5 9.5q-21 0 -37 -8t-19 -22h-89q0 56 45.5 84.5t105.5 28.5q38 0 73 -13.5t58 -40.5t23 -65q0 -51 -48 -72q26 -8 41 -30.5t15 -50.5q0 -64 -47.5 -90.5t-113.5 -26.5q-38 0 -74.5 12.5t-60.5 39t-24 65.5h105
q4 -28 53 -28q23 0 40 9.5t17 27.5q0 16 -14.5 25.5t-40.5 9.5h-58v75h54z" />
    <glyph glyph-name="uni2084" unicode="&#x2084;" horiz-adv-x="401" 
d="M320 62h45v-85h-45v-61h-100v61h-193l-4 86l167 223h130v-224zM125 62h95v127z" />
    <glyph glyph-name="uni2085" unicode="&#x2085;" horiz-adv-x="379" 
d="M141 161h54q154 0 154 -123q0 -67 -44.5 -98.5t-104.5 -31.5q-70 0 -114 30.5t-44 93.5h101q3 -18 17 -28t33 -10q22 0 38 12t16 32t-15 30t-37 10h-148v213h278v-86h-184v-44z" />
    <glyph glyph-name="uni2086" unicode="&#x2086;" horiz-adv-x="386" 
d="M234 209q-15 8 -35 8q-23 0 -40.5 -10t-17.5 -26v-40q32 20 76 20q55 0 95.5 -31.5t40.5 -89.5q0 -60 -47 -92t-110 -32t-109 33t-46 92v140q0 56 45.5 86.5t108.5 30.5q65 0 106 -28t43 -84h-94q-1 15 -16 23zM235 69q-16 10 -39 10t-39.5 -10t-15.5 -29q0 -18 16 -28
t38 -10q23 0 39.5 10t16.5 28q0 19 -16 29z" />
    <glyph glyph-name="uni2087" unicode="&#x2087;" horiz-adv-x="327" 
d="M183 195h-156v92h283l4 -41l-152 -329h-112z" />
    <glyph glyph-name="uni2088" unicode="&#x2088;" horiz-adv-x="394" 
d="M48 74q15 23 40 35q-19 9 -31.5 30t-12.5 40q0 56 42.5 87t109.5 31q66 0 110.5 -31t44.5 -86q0 -19 -11 -37.5t-34 -29.5q26 -12 40.5 -35.5t14.5 -46.5q0 -64 -47.5 -94.5t-117.5 -28.5q-71 0 -118 30t-45 94q0 19 15 42zM237 153q13 10 13 25t-14 26t-38 11
q-25 0 -39 -10.5t-14 -25.5t14 -25.5t40 -10.5q25 0 38 10zM149.5 3q14.5 -13 49.5 -13q33 0 48 13t14 28q0 16 -17.5 27.5t-43.5 11.5q-28 0 -46.5 -10.5t-18.5 -28.5q0 -15 14.5 -28z" />
    <glyph glyph-name="uni2089" unicode="&#x2089;" horiz-adv-x="387" 
d="M150.5 1q15.5 -8 36.5 -8q23 0 41 10t18 26v40q-32 -20 -76 -20q-55 0 -95.5 31.5t-40.5 89.5q0 60 47 92t110 32q62 0 108.5 -33.5t46.5 -91.5v-140q0 -57 -45.5 -88t-108.5 -31q-68 0 -110 27t-44 87h96q1 -15 16.5 -23zM152 141q16 -10 39 -10t39.5 10t15.5 29
q0 18 -16 28t-38 10q-23 0 -39.5 -10t-16.5 -28q0 -19 16 -29z" />
    <glyph glyph-name="uni2070" unicode="&#x2070;" horiz-adv-x="408" 
d="M59 768q24 37 62.5 55.5t82.5 18.5t82.5 -18.5t62.5 -55.5t24 -89v-55q0 -53 -24 -90.5t-62.5 -56.5t-82.5 -19t-82.5 19t-62.5 56.5t-24 90.5v55q0 52 24 89zM154 570.5q21 -18.5 50 -18.5q28 0 49 18.5t21 51.5v56q0 34 -21 53t-49 19q-29 0 -50 -19t-21 -53v-56
q0 -33 21 -51.5z" />
    <glyph glyph-name="uni00B9" unicode="&#xb9;" horiz-adv-x="285" 
d="M97 474v172l-52 -11v84l152 40v-285h64v-87h-226v87h62z" />
    <glyph glyph-name="uni00B2" unicode="&#xb2;" horiz-adv-x="376" 
d="M81 734.5q44 31.5 104 31.5q69 0 112 -31.5t43 -91.5q0 -41 -20 -65t-48.5 -35t-69.5 -20q-37 -9 -54.5 -17t-17.5 -24h207v-96h-302v96q0 40 19 63t45 33.5t66 20.5q38 8 55.5 17t17.5 27q0 17 -14.5 26t-35.5 9q-19 0 -34.5 -7.5t-18.5 -21.5h-98q0 54 44 85.5z" />
    <glyph glyph-name="uni00B3" unicode="&#xb3;" horiz-adv-x="385" 
d="M186 613q29 0 42.5 9.5t13.5 25.5t-16.5 24.5t-44.5 8.5q-21 0 -36.5 -7t-18.5 -21h-89q0 56 45.5 84.5t105.5 28.5q38 0 73 -13.5t58 -40.5t23 -65q0 -51 -48 -72q26 -8 42 -31t16 -50q0 -64 -48.5 -90.5t-114.5 -26.5q-38 0 -74.5 12.5t-60.5 39t-24 65.5h105
q4 -28 53 -28q23 0 40 9.5t17 27.5q0 16 -14.5 25.5t-40.5 9.5h-58v75h54z" />
    <glyph glyph-name="uni2074" unicode="&#x2074;" horiz-adv-x="401" 
d="M320 613h45v-85h-45v-61h-100v61h-193l-4 86l167 223h130v-224zM125 613h95v127z" />
    <glyph glyph-name="uni2075" unicode="&#x2075;" horiz-adv-x="377" 
d="M140 702h54q154 0 154 -123q0 -67 -44.5 -98.5t-104.5 -31.5q-70 0 -114 30.5t-44 93.5h101q3 -18 17 -28t33 -10q22 0 38 12t16 32t-15 30t-37 10h-148v213h278v-86h-184v-44z" />
    <glyph glyph-name="uni2076" unicode="&#x2076;" horiz-adv-x="383" 
d="M232 753q-15 8 -35 8q-23 0 -40.5 -10t-17.5 -26v-40q32 20 76 20q55 0 95.5 -31.5t40.5 -89.5q0 -60 -47 -92t-110 -32t-109 33t-46 92v140q0 56 45.5 86.5t108.5 30.5q65 0 106 -28t43 -84h-94q-1 15 -16 23zM233 613q-16 10 -39 10t-39.5 -10t-15.5 -29q0 -18 16 -28
t38 -10q23 0 39.5 10t16.5 28q0 19 -16 29z" />
    <glyph glyph-name="uni2077" unicode="&#x2077;" horiz-adv-x="328" 
d="M184 741h-156v92h283l4 -41l-152 -329h-112z" />
    <glyph glyph-name="uni2078" unicode="&#x2078;" horiz-adv-x="393" 
d="M47 610q15 23 40 35q-19 9 -31.5 30t-12.5 40q0 56 42.5 87t109.5 31q66 0 110.5 -31t44.5 -86q0 -19 -11 -37.5t-34 -29.5q26 -12 40.5 -35.5t14.5 -46.5q0 -64 -47.5 -94.5t-117.5 -28.5q-71 0 -118 30t-45 94q0 19 15 42zM236 689q13 10 13 25t-14 26t-38 11
q-25 0 -39 -10.5t-14 -25.5t14 -25.5t40 -10.5q25 0 38 10zM148.5 539q14.5 -13 49.5 -13q33 0 48 13t14 28q0 16 -17.5 27.5t-43.5 11.5q-28 0 -46.5 -10.5t-18.5 -28.5q0 -15 14.5 -28z" />
    <glyph glyph-name="uni2079" unicode="&#x2079;" horiz-adv-x="385" 
d="M150.5 550q15.5 -8 36.5 -8q23 0 41 10t18 26v40q-32 -20 -76 -20q-55 0 -95.5 31.5t-40.5 89.5q0 60 47 92t110 32q62 0 108.5 -33.5t46.5 -91.5v-140q0 -57 -45.5 -88t-108.5 -31q-68 0 -110 27t-44 87h96q1 -15 16.5 -23zM152 690q16 -10 39 -10t39.5 10t15.5 29
q0 18 -16 28t-38 10q-23 0 -39.5 -10t-16.5 -28q0 -19 16 -29z" />
    <glyph glyph-name="fraction" unicode="&#x2044;" horiz-adv-x="171" 
d="M-50 -5h-121l392 713h121z" />
    <glyph glyph-name="onehalf" unicode="&#xbd;" horiz-adv-x="818" 
d="M522 708h122l-392 -710h-120zM103 417v172l-52 -12v85l152 40v-285h64v-88h-226v88h62zM523 343.5q44 31.5 104 31.5q69 0 112 -31.5t43 -91.5q0 -41 -20 -65t-48.5 -35t-69.5 -20q-37 -9 -54.5 -17t-17.5 -24h207v-96h-302v96q0 40 19 63t45 33.5t66 20.5q38 8 55.5 17
t17.5 27q0 17 -14.5 26t-35.5 9q-19 0 -34.5 -7.5t-18.5 -21.5h-98q0 54 44 85.5z" />
    <glyph glyph-name="uni2153" unicode="&#x2153;" horiz-adv-x="813" 
d="M244 -5h-110l392 713h113zM106 407v179l-52 -11v84l152 40v-292h64v-80h-226v80h62zM612 228q32 0 43 5.5t12 27.5q0 17 -15.5 27.5t-36.5 10.5q-49 0 -62 -31h-89q0 55 46 83.5t105 28.5q60 0 107 -30t47 -88q0 -24 -13 -45t-37 -27q28 -8 44 -29t16 -46
q0 -62 -51.5 -92.5t-115.5 -30.5q-37 0 -72.5 12.5t-59 39t-23.5 65.5h101q9 -30 57 -30q22 0 39.5 10.5t17.5 26.5q0 15 -15 26t-41 11h-57v75h53z" />
    <glyph glyph-name="uni2154" unicode="&#x2154;" horiz-adv-x="891" 
d="M90 678.5q44 31.5 104 31.5q69 0 112 -31.5t43 -91.5q0 -40 -19.5 -64t-46 -35t-68.5 -21q-39 -10 -57.5 -19t-18.5 -28h207v-90h-302v96q0 40 19 63t45 33.5t66 20.5q38 8 55.5 17t17.5 27q0 17 -14.5 26t-35.5 9q-19 0 -34.5 -7.5t-18.5 -21.5h-98q0 54 44 85.5z
M322 -5h-110l392 713h112zM690 228q32 0 43 5.5t12 27.5q0 17 -15.5 27.5t-36.5 10.5q-49 0 -62 -31h-89q0 55 46 83.5t105 28.5q60 0 107 -30t47 -88q0 -24 -13 -45t-37 -27q28 -8 44 -29t16 -46q0 -62 -51.5 -92.5t-115.5 -30.5q-37 0 -72.5 12.5t-59 39t-23.5 65.5h101
q9 -30 57 -30q22 0 39.5 10.5t17.5 26.5q0 15 -15 26t-41 11h-57v75h53z" />
    <glyph glyph-name="onequarter" unicode="&#xbc;" horiz-adv-x="805" 
d="M525 708h122l-392 -709h-120zM107 418v171l-53 -11v84l153 40v-284h63v-88h-225v88h62zM726 148h45v-87h-45v-61h-96v61h-197l-4 86l167 223h130v-222zM531 148h99v125z" />
    <glyph glyph-name="threequarters" unicode="&#xbe;" horiz-adv-x="843" 
d="M185 567q31 0 41 5t12 27q0 10 -11 21t-41 11q-26 0 -38.5 -5t-18.5 -21h-87q0 53 44.5 80.5t101.5 27.5q35 0 69.5 -13t56.5 -39t22 -62q0 -21 -11.5 -41.5t-32.5 -26.5q24 -8 38 -28.5t14 -43.5q0 -60 -48.5 -89t-110.5 -29q-58 0 -103.5 28t-45.5 84h100
q9 -12 21 -18.5t32 -6.5q22 0 37.5 8t15.5 20q0 19 -11.5 29t-41.5 10h-55v72h51zM569 708h122l-394 -714h-121zM763 148h45v-87h-45v-61h-96v61h-197l-4 86l167 223h130v-222zM568 148h99v125z" />
    <glyph glyph-name="oneeighth" unicode="&#x215b;" horiz-adv-x="819" 
d="M238 -5h-108l392 713h111zM107 415v171l-52 -11v84l152 40v-284h64v-88h-226v88h62zM473 155q15 23 40 35q-19 9 -31.5 30t-12.5 40q0 56 42.5 87t109.5 31q66 0 110.5 -31t44.5 -86q0 -19 -11 -37.5t-34 -29.5q26 -12 40.5 -35.5t14.5 -46.5q0 -64 -47.5 -94.5
t-117.5 -28.5q-71 0 -118 30t-45 94q0 19 15 42zM662 234q13 10 13 25t-14 26t-38 11q-25 0 -39 -10.5t-14 -25.5t14 -25.5t40 -10.5q25 0 38 10zM574.5 84q14.5 -13 49.5 -13q33 0 48 13t14 28q0 16 -17.5 27.5t-43.5 11.5q-28 0 -46.5 -10.5t-18.5 -28.5q0 -15 14.5 -28z
" />
    <glyph glyph-name="threeeighths" unicode="&#x215c;" horiz-adv-x="897" 
d="M191 556q32 0 43 5.5t12 27.5q0 17 -15.5 27.5t-36.5 10.5q-49 0 -62 -31h-89q0 55 46 83.5t105 28.5q60 0 107 -30t47 -88q0 -24 -13 -45t-37 -27q28 -8 44 -29.5t16 -45.5q0 -62 -51.5 -92.5t-115.5 -30.5q-37 0 -72.5 12.5t-59 39t-23.5 65.5h101q9 -30 57 -30
q22 0 39.5 10.5t17.5 26.5q0 15 -15 26t-41 11h-57v75h53zM310 -5h-109l391 713h112zM548.5 158.5q12.5 22.5 37.5 34.5q-19 9 -29 29.5t-10 40.5q0 56 42.5 87t108.5 31q67 0 111.5 -31t44.5 -87q0 -47 -40 -66q25 -12 37 -35.5t12 -45.5q2 -65 -45 -94.5t-120 -29.5
q-71 0 -117.5 30t-44.5 94q0 20 12.5 42.5zM700 228q49 0 51 34q2 17 -13.5 27t-39.5 10q-23 0 -38 -10t-15 -26q0 -35 55 -35zM650.5 87.5q15.5 -13.5 49.5 -13.5q33 0 48.5 13.5t12.5 28.5q0 15 -17 26.5t-43 11.5q-28 0 -46.5 -10.5t-18.5 -27.5q-1 -15 14.5 -28.5z" />
    <glyph glyph-name="fiveeighths" unicode="&#x215d;" horiz-adv-x="891" 
d="M302 -5h-109l391 713h112zM139 568h54q154 0 154 -123q0 -67 -44.5 -98.5t-104.5 -31.5q-70 0 -114 30.5t-44 93.5h101q3 -18 17 -28t33 -10q22 0 38 12t16 32t-15 30t-37 10h-148v213h278v-86h-184v-44zM542.5 158.5q12.5 22.5 37.5 34.5q-19 9 -29 29.5t-10 40.5
q0 56 42.5 87t108.5 31q67 0 111.5 -31t44.5 -87q0 -47 -40 -66q25 -12 37 -35.5t12 -45.5q2 -65 -45 -94.5t-120 -29.5q-71 0 -117.5 30t-44.5 94q0 20 12.5 42.5zM694 228q49 0 51 34q2 17 -13.5 27t-39.5 10q-23 0 -38 -10t-15 -26q0 -35 55 -35zM644.5 87.5
q15.5 -13.5 49.5 -13.5q33 0 48.5 13.5t12.5 28.5q0 15 -17 26.5t-43 11.5q-28 0 -46.5 -10.5t-18.5 -27.5q-1 -15 14.5 -28.5z" />
    <glyph glyph-name="seveneighths" unicode="&#x215e;" horiz-adv-x="806" 
d="M204 -5h-109l392 713h111zM195 613h-156v86h282l4 -41l-162 -329h-102zM457.5 158.5q12.5 22.5 37.5 34.5q-19 9 -29 29.5t-10 40.5q0 56 42.5 87t109.5 31q66 0 110.5 -31t44.5 -87q0 -47 -40 -66q25 -12 37.5 -35.5t12.5 -45.5q0 -65 -46.5 -94.5t-118.5 -29.5
q-71 0 -118 30t-45 94q0 20 12.5 42.5zM609 228q26 0 38 8.5t14 25.5q1 17 -14 27t-39 10q-23 0 -39 -10.5t-15 -26.5q5 -34 55 -34zM559.5 87.5q15.5 -13.5 49.5 -13.5q33 0 48 13t14 29q0 15 -17.5 26.5t-43.5 11.5q-28 0 -46.5 -10.5t-18.5 -27.5q-1 -15 14.5 -28.5z" />
    <glyph glyph-name="asterisk" unicode="*" horiz-adv-x="410" 
d="M207 491l-56 -87l-81 60l62 73l-90 21l28 90l89 -33l-5 93h103l-11 -93l94 35l27 -92l-91 -19l66 -75l-78 -58z" />
    <glyph glyph-name="backslash" unicode="\" horiz-adv-x="511" 
d="M488 -82h-142l-322 850h143z" />
    <glyph glyph-name="periodcentered" unicode="&#xb7;" horiz-adv-x="278" 
d="M78 360.5q26 22.5 61 22.5q36 0 61.5 -22.5t25.5 -63.5q0 -40 -25.5 -62.5t-61.5 -22.5q-35 0 -61 22.5t-26 62.5q0 41 26 63.5z" />
    <glyph glyph-name="bullet" unicode="&#x2022;" horiz-adv-x="419" 
d="M110.5 217.5q-39.5 37.5 -39.5 97.5t39.5 98t99.5 38q59 0 98.5 -38.5t39.5 -97.5q0 -60 -39.5 -97.5t-98.5 -37.5q-60 0 -99.5 37.5z" />
    <glyph glyph-name="colon" unicode=":" horiz-adv-x="279" 
d="M83 419q24 21 57 21q32 0 56 -21t24 -59q0 -37 -24 -58t-56 -21q-33 0 -57 21t-24 58q0 38 24 59zM83 132q24 21 57 21q32 0 56 -21t24 -59q0 -37 -24 -58t-56 -21q-33 0 -57 21t-24 58q0 38 24 59z" />
    <glyph glyph-name="comma" unicode="," horiz-adv-x="263" 
d="M204 13q-7 -26 -22 -67l-16 -47h-77l15 104q-25 4 -39.5 19t-14.5 40q0 36 23.5 56t56.5 20t57 -19.5t24 -54.5q0 -25 -7 -51z" />
    <glyph glyph-name="ellipsis" unicode="&#x2026;" horiz-adv-x="739" 
d="M74.5 132.5q24.5 21.5 57.5 21.5t57.5 -21.5t24.5 -59.5t-24.5 -59.5t-57.5 -21.5t-57.5 21.5t-24.5 59.5t24.5 59.5zM311.5 132.5q24.5 21.5 57.5 21.5t57 -21.5t24 -59.5t-24 -59.5t-57 -21.5t-57.5 21.5t-24.5 59.5t24.5 59.5zM550.5 132.5q24.5 21.5 57.5 21.5
t57 -21.5t24 -59.5t-24 -59.5t-57 -21.5t-57.5 21.5t-24.5 59.5t24.5 59.5z" />
    <glyph glyph-name="exclam" unicode="!" horiz-adv-x="299" 
d="M75 213l-1 243q-2 160 -2 245h155l-4 -488h-148zM88 148q26 23 62 23t62 -23t26 -65q0 -41 -26 -64t-62 -23t-62 23t-26 64q0 42 26 65z" />
    <glyph glyph-name="exclamdown" unicode="&#xa1;" horiz-adv-x="281" 
d="M202 372.5q-26 -23.5 -62 -23.5t-62 23.5t-26 64.5t26 64t62 23t62 -23t26 -64t-26 -64.5zM215 307l1 -243q2 -160 2 -245h-155l4 488h148z" />
    <glyph glyph-name="numbersign" unicode="#" horiz-adv-x="700" 
d="M349 550h109l38 150h133l-37 -150h72v-116h-101l-47 -182h79v-117h-106l-33 -135h-134l33 135h-110l-33 -135h-133l33 135h-76v117h106l46 183h-83v115h110l37 150h134zM264 245h126l50 198h-126z" />
    <glyph glyph-name="period" unicode="." horiz-adv-x="264" 
d="M74.5 132.5q24.5 21.5 57.5 21.5t57.5 -21.5t24.5 -59.5t-24.5 -59.5t-57.5 -21.5t-57.5 21.5t-24.5 59.5t24.5 59.5z" />
    <glyph glyph-name="question" unicode="?" horiz-adv-x="598" 
d="M65.5 611.5q33.5 51.5 93 78t136.5 26.5q108 0 177 -41.5t87 -123.5q5 -27 5 -44q0 -38 -14.5 -65t-34.5 -44.5t-55 -41.5q-32 -21 -51 -37.5t-32 -40t-13 -56.5h-155q1 62 19.5 102t43 61t62.5 44q35 20 50.5 35.5t15.5 41.5q0 36 -29 55.5t-76 19.5q-45 0 -75 -25
t-32 -67h-156q0 71 33.5 122.5zM223.5 149q27.5 24 64.5 24t64.5 -24t27.5 -67t-27.5 -67t-64.5 -24t-64.5 24t-27.5 67t27.5 67z" />
    <glyph glyph-name="questiondown" unicode="&#xbf;" horiz-adv-x="592" 
d="M370.5 358.5q-27.5 -24.5 -64.5 -24.5t-64.5 24.5t-27.5 67.5t27.5 67t64.5 24t64.5 -24t27.5 -67t-27.5 -67.5zM489 -148.5q-72 -59.5 -190 -59.5q-106 0 -176.5 41.5t-87.5 123.5q-5 27 -5 44q0 37 14 64.5t35 45.5t55 40q33 22 51.5 38.5t31.5 40t13 56.5h155
q-1 -62 -19.5 -102t-43 -61t-62.5 -44q-35 -20 -50.5 -35.5t-15.5 -41.5q0 -36 29 -55.5t76 -19.5q45 0 75 25t32 67h157q-2 -108 -74 -167.5z" />
    <glyph glyph-name="quotedbl" unicode="&#x22;" horiz-adv-x="459" 
d="M195 428h-131v271h131v-271zM395 428h-133v271h133v-271z" />
    <glyph glyph-name="quotesingle" unicode="'" horiz-adv-x="258" 
d="M194 426h-130v271h130v-271z" />
    <glyph glyph-name="semicolon" unicode=";" horiz-adv-x="287" 
d="M89 419q24 21 57 21q32 0 56 -21t24 -59q0 -37 -24 -58t-56 -21q-33 0 -57 21t-24 58q0 38 24 59zM214 2q-9 -32 -27 -79l-9 -24h-77l18 99q-25 4 -41 21t-16 43q0 37 24.5 58t57.5 21q32 0 55.5 -20.5t23.5 -58.5q0 -28 -9 -60z" />
    <glyph glyph-name="slash" unicode="/" horiz-adv-x="509" 
d="M163 -82h-140l321 850h141z" />
    <glyph glyph-name="underscore" unicode="_" horiz-adv-x="501" 
d="M487 4v-125h-473v125h473z" />
    <glyph glyph-name="periodcentered.case" horiz-adv-x="298" 
d="M88 391.5q26 22.5 61 22.5q36 0 61.5 -22.5t25.5 -62.5t-25.5 -63t-61.5 -23q-35 0 -61 23t-26 63t26 62.5z" />
    <glyph glyph-name="bullet.case" horiz-adv-x="419" 
d="M110.5 220q-39.5 37 -39.5 98q0 60 40 98t100 38q58 0 97.5 -38.5t39.5 -97.5q0 -61 -39 -98t-98 -37q-61 0 -100.5 37z" />
    <glyph glyph-name="braceleft" unicode="{" horiz-adv-x="373" 
d="M269 -165q-82 0 -126.5 45.5t-44.5 124.5v149q0 32 -13.5 53t-54.5 21v106q41 0 54.5 21t13.5 53v142q0 85 43.5 132t127.5 47q31 0 65 -6v-109q-16 3 -29 3q-29 0 -41.5 -18t-12.5 -57v-134q0 -7 0.5 -41.5t-17 -55t-53.5 -31.5q36 -10 51 -27t17 -35t2 -64v-130
q0 -42 11 -56t46 -14q16 0 26 1v-113q-40 -7 -65 -7z" />
    <glyph glyph-name="braceright" unicode="}" horiz-adv-x="373" 
d="M64 -49q35 0 46.5 14.5t11.5 56.5v130q0 7 -0.5 42t17 54.5t53.5 29.5q-36 11 -51 28.5t-17 35t-2 64.5v134q0 39 -12.5 54.5t-42.5 15.5q-8 0 -28 -2v113q34 6 65 6q84 0 127.5 -47t43.5 -132v-142q0 -32 13.5 -53t54.5 -21v-106q-41 0 -54.5 -21t-13.5 -53v-149
q0 -79 -44.5 -124.5t-126.5 -45.5q-25 0 -65 7v112q9 -1 25 -1z" />
    <glyph glyph-name="bracketleft" unicode="[" horiz-adv-x="363" 
d="M72 704h256v-123h-114v-635h114v-124h-256v882z" />
    <glyph glyph-name="bracketright" unicode="]" horiz-adv-x="363" 
d="M35 -54h114v635h-114v123h256v-882h-256v124z" />
    <glyph glyph-name="parenleft" unicode="(" horiz-adv-x="361" 
d="M225 510q-41 -98 -41 -206q0 -118 39 -215t118 -161l-72 -97q-117 78 -175.5 197t-58.5 276q0 150 64 270t175 199l72 -99q-80 -66 -121 -164z" />
    <glyph glyph-name="parenright" unicode=")" horiz-adv-x="361" 
d="M262 574q64 -120 64 -270q0 -157 -58.5 -276t-175.5 -197l-72 97q79 64 118 161t39 215q0 107 -41.5 205.5t-120.5 164.5l72 99q111 -79 175 -199z" />
    <glyph glyph-name="braceleft.case" horiz-adv-x="370" 
d="M262 -106q-79 0 -119.5 44.5t-40.5 124.5v149q0 32 -13.5 53t-54.5 21v107q41 0 54.5 20.5t13.5 53.5v141q0 86 39 132.5t120 46.5q29 0 65 -6v-113q-12 3 -23 3q-30 0 -45 -20t-15 -51v-133q0 -7 0.5 -42t-17 -55t-53.5 -31q36 -11 51 -28t17 -35t2 -64v-130
q0 -43 11 -57t46 -14q16 0 26 1v-111q-40 -7 -64 -7z" />
    <glyph glyph-name="braceright.case" horiz-adv-x="370" 
d="M70 11q35 0 46 14t11 57v130q0 7 -0.5 41.5t17 54.5t53.5 31q-36 11 -51 28.5t-17 35t-2 64.5v133q0 31 -15 51t-45 20q-11 0 -23 -3v113q36 6 65 6q81 0 120 -46.5t39 -132.5v-141q0 -33 13.5 -53.5t54.5 -20.5v-107q-41 0 -54.5 -21t-13.5 -53v-149q0 -80 -40.5 -124.5
t-119.5 -44.5q-24 0 -64 7v111q10 -1 26 -1z" />
    <glyph glyph-name="bracketleft.case" horiz-adv-x="377" 
d="M79 790h256v-121h-114v-638h114v-123h-256v882z" />
    <glyph glyph-name="bracketright.case" horiz-adv-x="378" 
d="M43 29h114v638h-114v121h256v-882h-256v123z" />
    <glyph glyph-name="parenleft.case" horiz-adv-x="373" 
d="M229 557q-41 -98 -41 -206q0 -118 39 -215t118 -161l-72 -97q-117 78 -175.5 197t-58.5 276q0 150 64 270t175 199l72 -99q-80 -66 -121 -164z" />
    <glyph glyph-name="parenright.case" horiz-adv-x="373" 
d="M270 621q64 -120 64 -270q0 -157 -58.5 -276t-175.5 -197l-72 97q79 64 118 161t39 215q0 107 -41.5 205.5t-120.5 164.5l72 99q111 -79 175 -199z" />
    <glyph glyph-name="emdash" unicode="&#x2014;" horiz-adv-x="690" 
d="M632 351v-125h-574v125h574z" />
    <glyph glyph-name="endash" unicode="&#x2013;" horiz-adv-x="597" 
d="M539 348v-125h-481v125h481z" />
    <glyph glyph-name="hyphen" unicode="-" horiz-adv-x="493" 
d="M434 355v-125h-375v125h375z" />
    <glyph glyph-name="emdash.case" horiz-adv-x="702" 
d="M638 391v-125h-574v125h574z" />
    <glyph glyph-name="endash.case" horiz-adv-x="609" 
d="M545 390v-125h-481v125h481z" />
    <glyph glyph-name="hyphen.case" horiz-adv-x="503" 
d="M439 401v-127h-375v127h375z" />
    <glyph glyph-name="guillemotleft" unicode="&#xab;" horiz-adv-x="563" 
d="M183 297l41 -67l98 -156h-153l-139 223l139 222h152zM528 519l-138 -222l139 -223h-154l-139 223l139 222h153z" />
    <glyph glyph-name="guillemotright" unicode="&#xbb;" horiz-adv-x="562" 
d="M188 77h-153l139 222l-138 222h152l139 -222zM393 77h-154l139 222l-138 222h153l139 -222z" />
    <glyph glyph-name="guilsinglleft" unicode="&#x2039;" horiz-adv-x="356" 
d="M183 295l41 -67l98 -156h-153l-139 223l139 222h152z" />
    <glyph glyph-name="guilsinglright" unicode="&#x203a;" horiz-adv-x="357" 
d="M188 78h-153l138 222l-137 222h152l139 -222z" />
    <glyph glyph-name="quotedblbase" unicode="&#x201e;" horiz-adv-x="469" 
d="M221 107l-84 -242h-111l49 242h146zM410 107l-84 -242h-111l49 242h146z" />
    <glyph glyph-name="quotedblleft" unicode="&#x201c;" horiz-adv-x="446" 
d="M40 457l83 242h112l-59 -242h-136zM224 457l72 242h112l-49 -242h-135z" />
    <glyph glyph-name="quotedblright" unicode="&#x201d;" horiz-adv-x="441" 
d="M231 699l-72 -242h-112l49 242h135zM415 699l-83 -242h-112l59 242h136z" />
    <glyph glyph-name="quoteleft" unicode="&#x2018;" horiz-adv-x="273" 
d="M39 457l85 244h111l-49 -244h-147z" />
    <glyph glyph-name="quoteright" unicode="&#x2019;" horiz-adv-x="267" 
d="M242 700l-84 -242h-112l49 242h147z" />
    <glyph glyph-name="quotesinglbase" unicode="&#x201a;" horiz-adv-x="280" 
d="M221 107l-84 -242h-111l49 242h146z" />
    <glyph glyph-name="guillemotleft.case" horiz-adv-x="598" 
d="M204 356l41 -67l98 -156h-153l-139 223l139 221h152zM539 577l-138 -221l139 -223h-153l-139 223l139 221h152z" />
    <glyph glyph-name="guillemotright.case" horiz-adv-x="597" 
d="M211 133h-153l139 222l-138 222h152l139 -222zM408 133h-154l139 222l-138 222h153l139 -222z" />
    <glyph glyph-name="guilsinglleft.case" horiz-adv-x="401" 
d="M203 338l41 -67l98 -156h-153l-139 223l139 221h152z" />
    <glyph glyph-name="guilsinglright.case" horiz-adv-x="401" 
d="M213 118h-153l138 223l-137 222h152l139 -222z" />
    <glyph glyph-name="Euro" unicode="&#x20ac;" horiz-adv-x="630" 
d="M104 345q0 20 1 31h-60v111h83q37 103 124.5 166t222.5 63q60 0 111 -17l-43 -131q-34 9 -68 9q-62 0 -108 -23.5t-74 -66.5h197l-24 -111h-212q-2 -22 -2 -34q0 -15 1 -22h195l-22 -109h-137q35 -49 89 -69.5t97 -20.5q40 0 76 13l44 -135q-49 -15 -120 -15
q-140 0 -229 59t-123 168h-78v109h59v25z" />
    <glyph glyph-name="cent" unicode="&#xa2;" horiz-adv-x="549" 
d="M453 2q-32 -16 -76 -25v-76h-132v78q-91 25 -145.5 89.5t-54.5 164.5q0 95 53 161t147 93v77h132v-76q72 -16 126 -69l-82 -89q-20 21 -45 28.5t-58 7.5t-63 -17.5t-48.5 -48t-18.5 -67.5q0 -38 18 -68t48 -46.5t64 -16.5q28 0 57.5 12t48.5 35l89 -102q-28 -29 -60 -45z
" />
    <glyph glyph-name="currency" unicode="&#xa4;" horiz-adv-x="621" 
d="M111 223q-17 45 -17 82q0 46 23 95l-63 59l109 109l58 -58q42 13 90 13q44 0 87 -15l60 60l108 -109l-58 -57q19 -49 19 -93q0 -43 -17 -86l56 -56l-106 -106l-59 57q-38 -13 -92 -13q-47 0 -89 13l-57 -59l-109 108zM381 240q25 27 25 73t-25 73t-72 27
q-43 0 -70.5 -27.5t-27.5 -72.5t27.5 -72.5t70.5 -27.5q47 0 72 27z" />
    <glyph glyph-name="dollar" unicode="$" horiz-adv-x="715" 
d="M462.5 579.5q-46.5 23.5 -101.5 23.5q-58 0 -99.5 -22t-41.5 -64q0 -40 40.5 -57.5t107.5 -21.5q140 -15 225 -65t85 -171q0 -98 -61.5 -155.5t-179.5 -69.5v-95h-137v94q-90 8 -163 57t-105 124l130 63q21 -47 78.5 -78t120.5 -31q79 0 119.5 18.5t40.5 72.5
q0 81 -165 96q-89 8 -150.5 26.5t-100.5 64t-39 128.5q0 93 68.5 145t169.5 61v83h132v-83q72 -9 125.5 -42t85.5 -100l-123 -57q-15 32 -61.5 55.5z" />
    <glyph glyph-name="florin" unicode="&#x192;" horiz-adv-x="498" 
d="M269.5 -113.5q-24.5 -44.5 -65 -66.5t-90.5 -22q-70 0 -134 40l49 101q37 -20 64 -20t42 19.5t15 56.5v369h-101v121h101v29q0 68 28.5 112.5t74 65.5t97.5 21q40 0 71.5 -10t65.5 -32l-49 -101q-31 20 -71 20q-34 0 -53.5 -19t-19.5 -57v-29h137v-121h-137v-369
q0 -64 -24.5 -108.5z" />
    <glyph glyph-name="sterling" unicode="&#xa3;" horiz-adv-x="661" 
d="M271 390h198v-125h-170q0 -37 -14.5 -77t-47.5 -47h377v-141h-561v142q52 2 71 34t22 89h-93v125h69q-15 48 -15 92q0 67 29.5 119t86.5 81.5t137 29.5q113 0 177.5 -57.5t62.5 -162.5h-135q0 45 -30 65t-75 20q-42 0 -71.5 -28t-29.5 -77q0 -32 12 -82z" />
    <glyph glyph-name="yen" unicode="&#xa5;" horiz-adv-x="760" 
d="M298 209v58h-150v107h94l-213 318v8h176l88 -142l82 -145l86 144l93 143h179v-8l-223 -318h92v-107h-151v-58h151v-107h-151v-102h-153v102h-150v107h150z" />
    <glyph glyph-name="cent.tf" horiz-adv-x="711" 
d="M534 2q-32 -16 -76 -25v-76h-132v78q-91 25 -145.5 89.5t-54.5 164.5q0 95 53 161t147 93v77h132v-76q72 -16 126 -69l-82 -89q-20 21 -45 28.5t-58 7.5t-63 -17.5t-48.5 -48t-18.5 -67.5q0 -38 18 -68t48 -46.5t64 -16.5q28 0 57.5 12t48.5 35l89 -102q-28 -29 -60 -45z
" />
    <glyph glyph-name="dollar.tf" horiz-adv-x="711" 
d="M458.5 579.5q-46.5 23.5 -101.5 23.5q-58 0 -99.5 -22t-41.5 -64q0 -40 40.5 -57.5t107.5 -21.5q140 -15 225 -65t85 -171q0 -98 -61.5 -155.5t-179.5 -69.5v-95h-137v94q-90 8 -163 57t-105 124l130 63q21 -47 78.5 -78t120.5 -31q79 0 119.5 18.5t40.5 72.5
q0 81 -165 96q-89 8 -150.5 26.5t-100.5 64t-39 128.5q0 93 68.5 145t169.5 61v83h132v-83q72 -9 125.5 -42t85.5 -100l-123 -57q-15 32 -61.5 55.5z" />
    <glyph glyph-name="Euro.tf" horiz-adv-x="711" 
d="M146 345q0 20 1 31h-60v111h83q37 103 124.5 166t222.5 63q60 0 111 -17l-43 -131q-34 9 -68 9q-62 0 -108 -23.5t-74 -66.5h197l-24 -111h-212q-2 -22 -2 -34q0 -15 1 -22h195l-22 -109h-137q35 -49 89 -69.5t97 -20.5q40 0 76 13l44 -135q-49 -15 -120 -15
q-140 0 -229 59t-123 168h-78v109h59v25z" />
    <glyph glyph-name="florin.tf" horiz-adv-x="711" 
d="M398.5 -113.5q-24.5 -44.5 -65 -66.5t-90.5 -22q-70 0 -134 40l49 101q37 -20 64 -20t42 19.5t15 56.5v361h-135v121h135v37q0 68 28.5 112.5t74 65.5t97.5 21q40 0 71.5 -10t65.5 -32l-49 -101q-31 20 -71 20q-34 0 -53.5 -19t-19.5 -57v-37h144v-121h-144v-361
q0 -64 -24.5 -108.5z" />
    <glyph glyph-name="sterling.tf" horiz-adv-x="711" 
d="M296 390h198v-125h-170q0 -37 -14.5 -77t-47.5 -47h377v-141h-561v142q52 2 71 34t22 89h-93v125h69q-15 48 -15 92q0 67 29.5 119t86.5 81.5t137 29.5q113 0 177.5 -57.5t62.5 -162.5h-135q0 45 -30 65t-75 20q-42 0 -71.5 -28t-29.5 -77q0 -32 12 -82z" />
    <glyph glyph-name="yen.tf" horiz-adv-x="711" 
d="M274 209v58h-150v107h94l-213 318v8h176l88 -142l82 -145l86 144l93 143h179v-8l-223 -318h92v-107h-151v-58h151v-107h-151v-102h-153v102h-150v107h150z" />
    <glyph glyph-name="plus" unicode="+" horiz-adv-x="497" 
d="M181 535h132v-144h141v-126h-141v-144h-132v144h-138v126h138v144z" />
    <glyph glyph-name="minus" unicode="&#x2212;" horiz-adv-x="524" 
d="M460 344v-131h-396v131h396z" />
    <glyph glyph-name="multiply" unicode="&#xd7;" horiz-adv-x="460" 
d="M321 495l89 -89l-93 -94l92 -91l-89 -85l-90 90l-87 -90l-93 92l89 87l-87 88l96 92l84 -89z" />
    <glyph glyph-name="divide" unicode="&#xf7;" horiz-adv-x="552" 
d="M220.5 566q23.5 21 55.5 21t55.5 -21t23.5 -59q0 -37 -23.5 -57.5t-55.5 -20.5t-55.5 20.5t-23.5 57.5q0 38 23.5 59zM506 382v-129h-460v129h460zM220.5 191q23.5 21 55.5 21t55.5 -21t23.5 -59q0 -37 -23.5 -57.5t-55.5 -20.5t-55.5 20.5t-23.5 57.5q0 38 23.5 59z" />
    <glyph glyph-name="equal" unicode="=" horiz-adv-x="570" 
d="M506 492v-129h-442v129h442zM506 256v-128h-442v128h442z" />
    <glyph glyph-name="notequal" unicode="&#x2260;" horiz-adv-x="589" 
d="M238 256l57 107h-223v129h297l52 92l58 -32l-35 -60h70v-129h-142l-58 -107h200v-128h-273l-53 -93l-57 33l34 60h-93v128h166z" />
    <glyph glyph-name="greater" unicode="&#x3e;" horiz-adv-x="420" 
d="M58 467l94 91l236 -241v-7l-236 -241l-93 91l147 153z" />
    <glyph glyph-name="less" unicode="&#x3c;" horiz-adv-x="418" 
d="M267 69l-235 241v7l235 241l94 -99l-148 -146l147 -145z" />
    <glyph glyph-name="greaterequal" unicode="&#x2265;" horiz-adv-x="457" 
d="M157 221l-85 86l144 133l-145 137l86 86l239 -220v-5zM58 72v116h347v-116h-347z" />
    <glyph glyph-name="lessequal" unicode="&#x2264;" horiz-adv-x="456" 
d="M300 663l85 -86l-145 -137l144 -133l-84 -86l-239 217v5zM399 188v-116h-347v116h347z" />
    <glyph glyph-name="plusminus" unicode="&#xb1;" horiz-adv-x="546" 
d="M203 447v143h140v-143h140v-135h-140v-142h-140v142h-140v135h140zM485 137v-126h-424v126h424z" />
    <glyph glyph-name="approxequal" unicode="&#x2248;" horiz-adv-x="584" 
d="M117.5 445q37.5 29 83.5 29q11 0 16 -1q20 -3 39 -9.5t47 -18.5q50 -22 76 -26q4 -1 12 -1q32 0 43 41l89 -36q-11 -59 -41.5 -86.5t-72.5 -27.5q-16 0 -36 5q-17 4 -71 23q-55 20 -78 25q-10 3 -21 3q-36 0 -56 -45l-86 48q19 48 56.5 77zM117.5 235q37.5 29 83.5 29
q11 0 16 -1q20 -3 39 -9.5t47 -18.5q50 -22 76 -26q4 -1 12 -1q32 0 43 41l89 -36q-11 -59 -41.5 -86.5t-72.5 -27.5q-16 0 -36 5q-17 4 -71 23q-55 20 -78 25q-10 3 -21 3q-36 0 -56 -45l-86 48q19 48 56.5 77z" />
    <glyph glyph-name="asciitilde" unicode="~" horiz-adv-x="622" 
d="M511 247.5q-41 -37.5 -97 -37.5q-26 0 -47 9t-54 28q-30 18 -49.5 26.5t-42.5 8.5q-43 0 -66 -55l-100 34q14 61 58 101t108 40q29 0 54 -10t57 -30q5 -3 26 -14.5t40 -16.5q22 -3 36.5 11.5t26.5 44.5l109 -31q-18 -71 -59 -108.5z" />
    <glyph glyph-name="logicalnot" unicode="&#xac;" horiz-adv-x="543" 
d="M352 144v124h-288v120h409v-244h-121z" />
    <glyph glyph-name="infinity" unicode="&#x221e;" horiz-adv-x="744" 
d="M125 180.5q-39 22.5 -59 59.5t-20 78q0 43 20 81t59.5 61.5t94.5 23.5q36 0 75.5 -25t74.5 -64q34 37 76.5 63t76.5 26q55 0 95 -23.5t60 -61.5t20 -81q0 -42 -20 -78.5t-59 -59t-94 -22.5q-77 0 -155 89q-34 -40 -73.5 -64.5t-77.5 -24.5q-55 0 -94 22.5zM261.5 282
q20.5 14 44.5 38q-7 6 -25 23t-34 25.5t-32 8.5q-32 0 -49.5 -17t-17.5 -41q0 -21 18 -36.5t49 -16.5q26 2 46.5 16zM577 282.5q17 15.5 18 37.5q0 23 -17.5 40t-48.5 17q-24 0 -46 -15.5t-46 -42.5q16 -19 44 -37t48 -16q31 1 48 16.5z" />
    <glyph glyph-name="integral" unicode="&#x222b;" horiz-adv-x="506" 
d="M201.5 627q28.5 45 74 66.5t97.5 21.5q34 0 69.5 -11t67.5 -31l-51 -108q-39 27 -75 27q-29 0 -48 -20t-19 -58v-516q0 -68 -29.5 -113t-76 -66t-98.5 -21q-33 0 -59.5 8t-58.5 28l51 108q24 -14 32 -17.5t24 -3.5q29 0 50 20t21 57v516q0 68 28.5 113z" />
    <glyph glyph-name="uni2126" unicode="&#x2126;" horiz-adv-x="823" 
d="M293.5 541q-48.5 -33 -72 -84t-23.5 -106q0 -67 36 -125.5t100 -86.5v-139h-253v133h79q-113 81 -113 233q0 98 48.5 178t132.5 125.5t184 45.5q101 0 184.5 -45.5t132 -125.5t48.5 -178q0 -68 -27 -129t-85 -104h78v-133h-253v139q66 29 102 89.5t34 130.5
q0 53 -24.5 102.5t-73 81t-116.5 31.5q-70 0 -118.5 -33z" />
    <glyph glyph-name="uni2206" unicode="&#x2206;" horiz-adv-x="823" 
d="M28 0v36l298 664h170l300 -669v-31h-768zM588 135l-177 411l-178 -411h355z" />
    <glyph glyph-name="product" unicode="&#x220f;" horiz-adv-x="691" 
d="M468 564h-241v-756h-149v892h535v-892h-145v756z" />
    <glyph glyph-name="summation" unicode="&#x2211;" horiz-adv-x="604" 
d="M552 144v-144h-511v92l189 272l-179 261v75h495v-136h-284l132 -202l-158 -218h316z" />
    <glyph glyph-name="radical" unicode="&#x221a;" horiz-adv-x="613" 
d="M280 0l-164 307l-72 -29l-35 85l188 85l143 -297l188 569l79 -23l-229 -697h-98z" />
    <glyph glyph-name="uni00B5" unicode="&#xb5;" horiz-adv-x="619" 
d="M382 -4q-32 -19 -70 -19q-34 0 -62 17t-42 48v-255h-138v707h145v-272q0 -51 30 -80t71 -29q43 0 74.5 31t31.5 89v261h146v-494h-125l-15 51q-14 -36 -46 -55z" />
    <glyph glyph-name="partialdiff" unicode="&#x2202;" horiz-adv-x="579" 
d="M303.5 517.5q-41.5 27.5 -91.5 46t-87 22.5l24 116q114 -8 203.5 -69t140 -161.5t50.5 -221.5q0 -76 -30.5 -134.5t-88 -91t-135.5 -32.5q-82 0 -140 34.5t-87 91t-29 120.5q0 67 31 123t83.5 88.5t113.5 32.5q51 0 98 -23q-14 31 -55.5 58.5zM370.5 154.5
q30.5 35.5 30.5 83.5q0 55 -29.5 87t-82.5 32q-51 0 -79.5 -35t-28.5 -83q0 -49 29 -84.5t79 -35.5q51 0 81.5 35.5z" />
    <glyph glyph-name="percent" unicode="%" horiz-adv-x="815" 
d="M290.5 681q37.5 -23 56.5 -59.5t19 -77.5q0 -42 -19 -78.5t-56.5 -59.5t-90.5 -23t-90.5 23t-56.5 59.5t-19 78.5q0 41 19 77.5t56.5 59.5t90.5 23t90.5 -23zM257 -1h-159l460 700h157zM158 585q-15 -17 -15 -41t14.5 -40.5t42.5 -16.5q27 0 41.5 16.5t14.5 40.5
t-14.5 41t-41.5 17t-42 -17zM705.5 291q37.5 -23 56.5 -59.5t19 -77.5q0 -42 -19 -78.5t-56.5 -59.5t-90.5 -23t-90.5 23t-56.5 59.5t-19 78.5q0 41 19 77.5t56.5 59.5t90.5 23t90.5 -23zM574 193q-15 -17 -15 -40t15 -39.5t41 -16.5t40.5 16.5t14.5 39.5q0 24 -14.5 40.5
t-40.5 16.5t-41 -17z" />
    <glyph glyph-name="perthousand" unicode="&#x2030;" horiz-adv-x="1192" 
d="M293.5 681q37.5 -23 56.5 -59.5t19 -77.5q0 -42 -19 -78.5t-56.5 -59.5t-90.5 -23t-90.5 23t-56.5 59.5t-19 78.5q0 41 19 77.5t56.5 59.5t90.5 23t90.5 -23zM260 -1h-159l460 700h157zM161 585q-15 -17 -15 -41t14.5 -40.5t42.5 -16.5q27 0 41.5 16.5t14.5 40.5
t-14.5 41t-41.5 17t-42 -17zM708.5 291q37.5 -23 56.5 -59.5t19 -77.5q0 -42 -19 -78.5t-56.5 -59.5t-90.5 -23t-90.5 23t-56.5 59.5t-19 78.5q0 41 19 77.5t56.5 59.5t90.5 23t90.5 -23zM1084.5 291q37.5 -23 56.5 -59.5t19 -77.5q0 -42 -19 -78.5t-56.5 -59.5t-90.5 -23
t-90.5 23t-56.5 59.5t-19 78.5q0 41 19 77.5t56.5 59.5t90.5 23t90.5 -23zM577 193q-15 -17 -15 -40t15 -39.5t41 -16.5t40.5 16.5t14.5 39.5q0 24 -14.5 40.5t-40.5 16.5t-41 -17zM953 193q-15 -17 -15 -40t15 -39.5t41 -16.5t40.5 16.5t14.5 39.5q0 24 -14.5 40.5
t-40.5 16.5t-41 -17z" />
    <glyph glyph-name="uni2215" unicode="&#x2215;" horiz-adv-x="484" 
d="M106 -5h-121l392 713h121z" />
    <glyph glyph-name="uni2219" unicode="&#x2219;" horiz-adv-x="279" 
d="M78.5 379.5q25.5 22.5 61.5 22.5q35 0 60.5 -22.5t25.5 -63.5q0 -40 -25.5 -63t-60.5 -23q-36 0 -61.5 23t-25.5 63q0 41 25.5 63.5z" />
    <glyph glyph-name="arrowup" unicode="&#x2191;" horiz-adv-x="546" 
d="M516 391l-71 -75l-110 110v-339h-125v340l-114 -105l-65 70l243 244z" />
    <glyph glyph-name="uni2197" unicode="&#x2197;" horiz-adv-x="523" 
d="M462 196l-102 -4l-1 156l-241 -240l-88 90l240 240l-154 6l4 95h343z" />
    <glyph glyph-name="arrowright" unicode="&#x2192;" horiz-adv-x="632" 
d="M357 109l-75 71l109 109h-339v126h341l-106 114l71 64l243 -242z" />
    <glyph glyph-name="uni2198" unicode="&#x2198;" horiz-adv-x="554" 
d="M34 494l88 90l240 -240l1 156l102 -4l1 -172q1 -57 1 -171h-344l-4 95l155 6z" />
    <glyph glyph-name="arrowdown" unicode="&#x2193;" horiz-adv-x="544" 
d="M30 315l70 75l110 -109v339h126v-341l114 106l64 -71l-242 -244z" />
    <glyph glyph-name="uni2199" unicode="&#x2199;" horiz-adv-x="556" 
d="M90 496l103 4v-33v-82v-41l241 240l88 -90l-240 -240l154 -6l-4 -95h-343z" />
    <glyph glyph-name="arrowleft" unicode="&#x2190;" horiz-adv-x="630" 
d="M275 592l75 -71l-110 -110h339v-125h-340l105 -114l-70 -65l-244 243z" />
    <glyph glyph-name="uni2196" unicode="&#x2196;" horiz-adv-x="523" 
d="M402 539l4 -102l-155 -1l240 -240l-90 -88l-240 240l-6 -155l-96 4v344z" />
    <glyph glyph-name="lozenge" unicode="&#x25ca;" horiz-adv-x="601" 
d="M241 8l-212 343l212 345h120l210 -345l-210 -343h-120zM419 351l-117 213l-122 -213l122 -212z" />
    <glyph glyph-name="at" unicode="@" horiz-adv-x="928" 
d="M305 521q-73 -40 -116.5 -112.5t-43.5 -165.5q0 -104 43.5 -172.5t115 -100.5t157.5 -32q80 0 147 39l41 -81q-50 -30 -95.5 -40.5t-95.5 -10.5q-106 0 -201 44t-154 133.5t-59 220.5q0 125 59 218t156 141.5t206 48.5q121 0 218 -45t153.5 -135t56.5 -220
q0 -79 -23.5 -138t-67 -91t-101.5 -32q-34 0 -64.5 18.5t-37.5 59.5q-22 -31 -64.5 -51t-73.5 -20q-72 0 -130.5 31.5t-92 87.5t-33.5 127q0 65 28 118.5t77 87t110 41.5q7 1 21 1q45 0 86 -16t65 -50l7 43l93 -15v-338q0 -15 7.5 -21t16.5 -6q36 2 56.5 42.5t20.5 117.5
q0 154 -85.5 233.5t-242.5 79.5q-87 0 -160 -40zM362 338.5q-33 -39.5 -33 -94.5q0 -56 33 -94t97 -38q62 0 95.5 39t33.5 98q0 57 -33.5 93t-96.5 36t-96 -39.5z" />
    <glyph glyph-name="ampersand" unicode="&#x26;" horiz-adv-x="717" 
d="M618.5 167q15.5 -20 40.5 -20l14 2v-154q-16 -3 -34 -3q-48 0 -81 22.5t-47 71.5q-28 -51 -81 -74t-117 -23q-112 0 -189 48.5t-77 163.5q0 53 29.5 94t84.5 65q-29 9 -50 32.5t-32.5 52.5t-11.5 53q0 77 41.5 125t103.5 69t127 21q110 0 183.5 -49t81.5 -156h-143
q-6 38 -43 58t-83 20q-47 0 -80 -24t-33 -64q0 -45 32.5 -62t78.5 -17h326v-119h-56v-90q0 -23 15.5 -43zM233.5 276q-32.5 -24 -32.5 -56q0 -52 40 -72.5t92 -20.5q23 0 54 10t54.5 32.5t23.5 57.5v73h-140q-59 0 -91.5 -24z" />
    <glyph glyph-name="paragraph" unicode="&#xb6;" horiz-adv-x="856" 
d="M268 188q-77 6 -130.5 41t-80 88.5t-26.5 113.5q0 68 33 130t97 100.5t152 38.5h500v-148h-85v-764h-157v764h-146v-764h-157v400z" />
    <glyph glyph-name="section" unicode="&#xa7;" horiz-adv-x="615" 
d="M206.5 114q41.5 -16 91.5 -16q55 0 91 12t36 38q0 20 -31.5 29.5t-85.5 8.5q-65 -2 -124 14t-95.5 51.5t-32.5 90.5q1 28 20 56t56 41q-36 12 -52.5 44t-16.5 65q0 59 41.5 94.5t101 50t119.5 14.5q62 0 124.5 -20t100.5 -63l-86 -71q-31 23 -64 32t-79 10
q-52 0 -86.5 -11t-34.5 -36q0 -24 34 -34t79 -10q109 0 183 -33.5t67 -123.5q-3 -29 -23 -55.5t-52 -40.5q37 -17 55.5 -44t18.5 -60q0 -64 -43 -101t-102.5 -51t-116.5 -14q-77 0 -142.5 25t-108.5 75l75 90q41 -41 82.5 -57zM393 386q-34 14 -80 14q-49 0 -85 -13.5
t-36 -38.5q0 -24 32 -38t79 -14q43 0 83.5 11.5t40.5 39.5q0 25 -34 39z" />
    <glyph glyph-name="copyright" unicode="&#xa9;" horiz-adv-x="827" 
d="M613.5 674q82.5 -47 126 -130t43.5 -188q0 -106 -43.5 -189t-126 -129.5t-195.5 -46.5t-197.5 47t-130.5 130t-46 188q0 102 46 185t131 131.5t197 48.5q113 0 195.5 -47zM187 216q33 -61 92.5 -94.5t138.5 -33.5t137 33t88.5 93.5t30.5 141.5t-30.5 141t-88.5 93
t-137 33q-78 0 -138 -34t-93 -95t-33 -138q0 -79 33 -140zM291.5 495.5q55.5 51.5 138.5 51.5q85 0 150 -63l-67 -66q-15 13 -36 21.5t-42 8.5q-42 0 -70.5 -24.5t-28.5 -71.5q0 -42 29 -65.5t70 -23.5q47 0 80 33l68 -68q-66 -65 -157 -65q-52 0 -96.5 22.5t-72 65
t-27.5 101.5q6 92 61.5 143.5z" />
    <glyph glyph-name="registered" unicode="&#xae;" horiz-adv-x="827" 
d="M613.5 674q82.5 -47 126 -130t43.5 -188q0 -106 -43.5 -189t-126 -129.5t-195.5 -46.5t-197.5 47t-130.5 130t-46 188q0 102 46 185t131 131.5t197 48.5q113 0 195.5 -47zM187 216q33 -61 92.5 -94.5t138.5 -33.5t137 33t88.5 93.5t30.5 141.5t-30.5 141t-88.5 93
t-137 33q-78 0 -138 -34t-93 -95t-33 -138q0 -79 33 -140zM417 278h-42v-108h-103v362h166q47 0 79.5 -18t48.5 -47.5t16 -61.5q0 -37 -20.5 -66.5t-56.5 -39.5l83 -129h-111zM443 362q18 0 27.5 12t9.5 28t-10 28.5t-28 12.5h-69v-81h70z" />
    <glyph glyph-name="uni2117" unicode="&#x2117;" horiz-adv-x="811" 
d="M599 668q82 -49 125 -132t43 -184t-43 -184t-125 -132t-194 -49t-193.5 49t-124.5 132.5t-43 183.5t43 183.5t124.5 132.5t193.5 49t194 -49zM184.5 214q29.5 -61 86 -96t134.5 -35t134.5 35t86.5 96.5t30 137.5q0 75 -30 136.5t-86.5 97t-134.5 35.5t-134 -35.5
t-86 -96.5t-32 -137q2 -77 31.5 -138zM276 168v356h170q67 0 104.5 -37.5t37.5 -89.5q0 -34 -16.5 -63.5t-49 -48t-77.5 -18.5h-66v-99h-103zM447 355q19 0 29 10.5t10 24.5q0 16 -11 28t-29 12h-67v-75h68z" />
    <glyph glyph-name="trademark" unicode="&#x2122;" horiz-adv-x="826" 
d="M157 403v204h-94v92h295v-92h-95v-204h-106zM754 699v-297h-105v90l6 71l-48 -65l-24 -32h-19l-71 97l5 -71v-90h-104v297h104l76 -92l75 92h105z" />
    <glyph glyph-name="degree" unicode="&#xb0;" horiz-adv-x="365" 
d="M259 691q32 -19 48.5 -50.5t16.5 -66.5t-16.5 -65.5t-49 -49.5t-78.5 -19q-67 0 -104 40t-37 95q0 35 16.5 66t48.5 50t78 19q45 0 77 -19zM136.5 615.5q-16.5 -17.5 -16.5 -41.5t16 -41t45 -17q30 0 46.5 17.5t16.5 41.5q0 23 -16.5 40.5t-45.5 17.5t-45.5 -17.5z" />
    <glyph glyph-name="bar" unicode="|" horiz-adv-x="282" 
d="M72 -74v840h138v-840h-138z" />
    <glyph glyph-name="brokenbar" unicode="&#xa6;" horiz-adv-x="292" 
d="M73 711h146v-370h-146v370zM219 -92h-146v371h146v-371z" />
    <glyph glyph-name="dagger" unicode="&#x2020;" horiz-adv-x="603" 
d="M570 515v-129h-189v-497h-159v497h-189v129h189v184h159v-184h189z" />
    <glyph glyph-name="uni2113" unicode="&#x2113;" horiz-adv-x="392" 
d="M222.5 94.5q23.5 -18.5 62.5 -18.5q25 0 44 5v-69q-51 -16 -91 -16q-65 0 -102.5 40.5t-37.5 126.5l-49 -24l-14 46q31 12 62 30v333q0 61 14 97t48 53t94 17q114 0 114 -138q0 -19 -4 -55q-9 -78 -53.5 -149.5t-110.5 -130.5v-95q0 -34 23.5 -52.5zM195 311
q45 52 79 109.5t41 110.5q3 45 3 51q0 37 -13.5 59t-49.5 22q-28 0 -43.5 -34.5t-15.5 -80.5z" />
    <glyph glyph-name="daggerdbl" unicode="&#x2021;" horiz-adv-x="636" 
d="M585 517v-129h-190v-204h190v-127h-190v-180h-154v180h-190v127h190v204h-190v129h190v182h154v-182h190z" />
    <glyph glyph-name="estimated" unicode="&#x212e;" horiz-adv-x="624" 
d="M184 27q-61 34 -96.5 101t-35.5 161q0 95 35 162t96 101t136 34q116 0 190 -66t74 -212q0 -13 -2 -45h-402v-170q59 -53 141 -53q62 0 108.5 21.5t81.5 71.5l37 -29q-43 -61 -98 -86t-129 -25q-75 0 -136 34zM179 493v-183h283v186q-55 43 -143 43q-86 0 -140 -46z" />
    <glyph glyph-name="asciicircum" unicode="^" horiz-adv-x="649" 
d="M278 703h83l249 -367l1 -8h-153l-140 210l-134 -210h-147l1 6z" />
    <glyph glyph-name="bar.case" horiz-adv-x="295" 
d="M79 -89v839h137v-839h-137z" />
    <glyph glyph-name="uni0326" unicode="&#x326;" horiz-adv-x="0" 
d="M-262.5 -162.5q-14.5 15.5 -14.5 40.5q0 35 22.5 55t54.5 20t57.5 -20.5t26.5 -55.5q0 -15 -8 -43t-38 -120h-76l15 104q-25 4 -39.5 19.5z" />
    <glyph glyph-name="uni0326.alt" horiz-adv-x="0" 
d="M-149.5 651.5q14.5 -15.5 14.5 -40.5q0 -35 -22.5 -55t-54.5 -20q-33 0 -58 20t-26 56q0 15 8 43t38 120h76l-15 -104q25 -4 39.5 -19.5z" />
    <glyph glyph-name="acute" unicode="&#xb4;" horiz-adv-x="278" 
d="M141 551h-126v7l74 140h168v-6z" />
    <glyph glyph-name="breve" unicode="&#x2d8;" horiz-adv-x="406" 
d="M339 617.5q-20 -35.5 -56.5 -55t-81.5 -19.5q-41 0 -78 15.5t-60.5 47t-23.5 76.5q0 11 1 17h116q0 -24 14.5 -34t30.5 -10t29 9t13 35h115q1 -46 -19 -81.5z" />
    <glyph glyph-name="caron" unicode="&#x2c7;" horiz-adv-x="434" 
d="M170 700l46 -40l49 40h140v-6l-155 -140h-75l-150 140v6h145z" />
    <glyph glyph-name="cedilla" unicode="&#xb8;" horiz-adv-x="364" 
d="M144 -144.5q22 -9.5 43 -9.5q17 0 29 8t12 24q0 17 -16 28t-36 11t-37 -12l-32 24l35 96h103l-17 -49q56 -3 82 -32t26 -68q0 -60 -39 -91t-96 -31q-45 0 -86.5 19t-63.5 53l61 51q10 -12 32 -21.5z" />
    <glyph glyph-name="circumflex" unicode="&#x2c6;" horiz-adv-x="451" 
d="M407 579v-5h-140l-47 42l-46 -42h-141v5l150 140h75z" />
    <glyph glyph-name="dieresis" unicode="&#xa8;" horiz-adv-x="526" 
d="M82.5 706.5q23.5 20.5 56.5 20.5q32 0 55.5 -21t23.5 -58t-23.5 -57.5t-55.5 -20.5q-33 0 -56.5 20.5t-23.5 57.5q0 38 23.5 58.5zM342.5 706.5q23.5 20.5 56.5 20.5q32 0 55.5 -21t23.5 -58t-23.5 -57.5t-55.5 -20.5t-56 20.5t-24 57.5q0 38 23.5 58.5z" />
    <glyph glyph-name="dotaccent" unicode="&#x2d9;" horiz-adv-x="276" 
d="M83.5 691q24.5 21 57.5 21t57.5 -21t24.5 -59q0 -37 -24.5 -57.5t-57.5 -20.5t-57.5 20.5t-24.5 57.5q0 38 24.5 59z" />
    <glyph glyph-name="grave" unicode="`" horiz-adv-x="264" 
d="M165 698l74 -140v-7h-126l-116 141v6h168z" />
    <glyph glyph-name="hungarumlaut" unicode="&#x2dd;" horiz-adv-x="382" 
d="M262 697l-105 -144h-135l92 149h148v-5zM458 696l-119 -144h-129l100 149h148v-5z" />
    <glyph glyph-name="macron" unicode="&#xaf;" horiz-adv-x="453" 
d="M409 702v-119h-359v119h359z" />
    <glyph glyph-name="ogonek" unicode="&#x2db;" horiz-adv-x="390" 
d="M268.5 -261q-33.5 -15 -73.5 -15q-47 0 -85.5 21t-55.5 65q-5 17 -5 37q0 50 34 88t115 38q22 0 57 -5l15 -58q-6 3 -24 3q-33 0 -61 -11.5t-28 -36.5q0 -3 2 -11q5 -26 41 -26q14 0 29 4.5t23 11.5l71 -60q-21 -30 -54.5 -45z" />
    <glyph glyph-name="ring" unicode="&#x2da;" horiz-adv-x="427" 
d="M110.5 682.5q43.5 31.5 102.5 31.5q57 0 98 -32t41 -97q0 -40 -20.5 -68.5t-52 -43t-66.5 -14.5q-59 0 -102.5 30.5t-43.5 95.5q0 66 43.5 97.5zM168 623.5q-15 -15.5 -15 -35.5q0 -22 15 -37.5t42 -15.5t42 15t15 36t-15.5 37t-41.5 16q-27 0 -42 -15.5z" />
    <glyph glyph-name="tilde" unicode="&#x2dc;" horiz-adv-x="418" 
d="M139 788q17 0 32 -4q12 -4 21.5 -8l16.5 -7q34 -16 48 -16q25 0 37 32l89 -44q-41 -97 -103 -97q-13 0 -36 7q-16 5 -39 16q-3 1 -20.5 8.5t-30.5 7.5q-27 0 -43 -39l-85 50q42 94 113 94z" />
    <glyph glyph-name="_0004" horiz-adv-x="0" 
 />
    </font>
</defs>
</svg>
